<?xml version="1.0" encoding="utf-8"?>
<!-- Generator: Adobe Illustrator 19.0.0, SVG Export Plug-In . SVG Version: 6.00 Build 0)  -->
<svg version="1.1" id="Layer_3" xmlns="http://www.w3.org/2000/svg" xmlns:xlink="http://www.w3.org/1999/xlink" x="0px" y="0px"
	 viewBox="0 0 515.3 375.3" style="enable-background:new 0 0 515.3 375.3;" xml:space="preserve">
<style type="text/css">
	.st0{filter:url(#Adobe_OpacityMaskFilter);}
	.st1{filter:url(#Adobe_OpacityMaskFilter_1_);}
	.st2{mask:url(#XMLID_332_);fill:url(#XMLID_333_);}
	.st3{fill:url(#XMLID_334_);}
	.st4{fill:url(#XMLID_335_);}
	.st5{fill:#FFFFFF;}
	.st6{fill:url(#XMLID_336_);}
	.st7{fill:#DAEAEE;}
	.st8{fill:#8589A9;}
	.st9{fill:url(#XMLID_337_);}
	.st10{fill:url(#XMLID_338_);}
	.st11{fill:url(#XMLID_339_);}
	.st12{fill:url(#XMLID_340_);}
	.st13{fill:url(#XMLID_341_);}
	.st14{fill:url(#XMLID_342_);}
	.st15{opacity:0.18;fill:#1B1F4C;}
	.st16{fill:url(#XMLID_343_);}
	.st17{fill:url(#XMLID_344_);}
	.st18{fill:url(#XMLID_345_);}
	.st19{opacity:0.31;fill:#1B1F4C;}
	.st20{fill:url(#XMLID_346_);}
	.st21{fill:#1B1F4C;}
	.st22{fill:url(#XMLID_347_);}
	.st23{fill:url(#XMLID_348_);}
	.st24{fill:url(#XMLID_349_);}
	.st25{fill:url(#XMLID_350_);}
	.st26{fill:url(#XMLID_351_);}
	.st27{fill:url(#XMLID_352_);}
	.st28{fill:url(#XMLID_353_);}
	.st29{fill:#51A0AD;}
</style>
<defs>
	<filter id="Adobe_OpacityMaskFilter" filterUnits="userSpaceOnUse" x="7.1" y="3.5" width="503.5" height="327.6">
		<feFlood  style="flood-color:white;flood-opacity:1" result="back"/>
		<feBlend  in="SourceGraphic" in2="back" mode="normal"/>
	</filter>
</defs>
<mask maskUnits="userSpaceOnUse" x="7.1" y="3.5" width="503.5" height="327.6" id="XMLID_332_">
	<g id="XMLID_263_" class="st0">
		<defs>
			<filter id="Adobe_OpacityMaskFilter_1_" filterUnits="userSpaceOnUse" x="7.1" y="3.5" width="503.5" height="327.6">
				<feFlood  style="flood-color:white;flood-opacity:1" result="back"/>
				<feBlend  in="SourceGraphic" in2="back" mode="normal"/>
			</filter>
		</defs>
		<mask maskUnits="userSpaceOnUse" x="7.1" y="3.5" width="503.5" height="327.6" id="XMLID_332_">
			<g id="XMLID_264_" class="st1">
			</g>
		</mask>
		
			<linearGradient id="XMLID_333_" gradientUnits="userSpaceOnUse" x1="-53.9458" y1="167.3015" x2="449.5656" y2="167.3015" gradientTransform="matrix(-1 0 0 1 456.6667 0)">
			<stop  offset="0" style="stop-color:#FFFFFF"/>
			<stop  offset="1" style="stop-color:#000000"/>
		</linearGradient>
		<polygon id="XMLID_265_" class="st2" points="205.1,113.7 292.8,201.3 475.6,18.5 463.1,6 510.6,3.5 508.1,51.1 494.9,37.9 
			292.8,240 205.1,152.4 26.5,331.1 7.1,311.7 		"/>
	</g>
</mask>
<linearGradient id="XMLID_334_" gradientUnits="userSpaceOnUse" x1="-53.9458" y1="167.3015" x2="449.5656" y2="167.3015" gradientTransform="matrix(-1 0 0 1 456.6667 0)">
	<stop  offset="0" style="stop-color:#FEBB16"/>
	<stop  offset="0.2454" style="stop-color:#FEBB1A"/>
	<stop  offset="0.441" style="stop-color:#FEBE27"/>
	<stop  offset="0.6195" style="stop-color:#FFC33B"/>
	<stop  offset="0.7878" style="stop-color:#FFCA54"/>
	<stop  offset="0.9475" style="stop-color:#FFD370"/>
	<stop  offset="1" style="stop-color:#FFD67A"/>
</linearGradient>
<polygon id="XMLID_266_" class="st3" points="205.1,113.7 292.8,201.3 475.6,18.5 463.1,6 510.6,3.5 508.1,51.1 494.9,37.9 
	292.8,240 205.1,152.4 26.5,331.1 7.1,311.7 "/>
<g id="XMLID_168_">
	
		<linearGradient id="XMLID_335_" gradientUnits="userSpaceOnUse" x1="558.795" y1="281.7079" x2="348.8346" y2="108.4218" gradientTransform="matrix(-1 0 0 1 456.6667 0)">
		<stop  offset="0" style="stop-color:#5B2669"/>
		<stop  offset="0.6581" style="stop-color:#491E5A"/>
		<stop  offset="1" style="stop-color:#3F1851"/>
	</linearGradient>
	<circle id="XMLID_262_" class="st4" cx="62.9" cy="145.5" r="19.4"/>
	<g id="XMLID_169_">
		<g id="XMLID_251_">
			<g id="XMLID_255_">
				<path id="XMLID_256_" class="st5" d="M68,145.5c-0.2,0-0.5,0-0.7,0l0,0c-0.2,0-0.4,0-0.6,0c-0.2,0-0.5,0-0.7,0
					c-0.2,0-0.4,0-0.6,0c-0.2,0-0.5,0-0.7,0c-0.2,0-0.4,0-0.6,0c-0.3,0-0.5,0-0.7,0c-0.2,0-0.4,0-0.6,0c-0.3,0-0.5-0.1-0.7-0.1
					c-0.2,0-0.3-0.1-0.3-0.2l0-1.5v0c0-0.1,0-0.1,0.1-0.1c0,0,0,0,0,0c0,0,0.1,0,0.1,0.1c0.2,0.1,2.5,0.3,6.2,0.3
					c3.7,0,6-0.2,6.2-0.4c0,0,0.1-0.1,0.1-0.1c0,0,0,0,0,0c0.1,0,0.1,0,0.1,0.1v0l0,0l0,1.5c0,0.1-0.1,0.2-0.3,0.2
					c-0.2,0-0.4,0.1-0.7,0.1c-0.2,0-0.3,0-0.6,0.1c-0.2,0-0.4,0-0.7,0c-0.2,0-0.4,0-0.6,0c-0.2,0-0.4,0-0.7,0c-0.2,0-0.4,0-0.6,0
					c-0.2,0-0.4,0-0.7,0c-0.2,0-0.4,0-0.6,0c-0.2,0-0.5,0-0.7,0c-0.1,0-0.2,0-0.2,0C68.2,145.5,68.1,145.5,68,145.5
					C68,145.5,68,145.5,68,145.5z M74.5,143.6c-0.2,0.1-0.7,0.1-1.7,0.2c-1.2,0.1-2.8,0.1-4.5,0.1c-1.9,0-5.4,0-6.2-0.3l0,1.3
					c0,0,0.1,0,0.2,0.1c0.2,0,0.4,0.1,0.7,0.1c0.2,0,0.4,0,0.6,0c0.2,0,0.4,0,0.7,0c0.2,0,0.4,0,0.6,0c0.2,0,0.4,0,0.7,0
					c0.2,0,0.4,0,0.6,0c0.2,0,0.4,0,0.7,0c0.2,0,0.4,0,0.6,0l0,0c0.2,0,0.5,0,0.7,0c0.1,0,0.2,0,0.3,0c0.1,0,0.2,0,0.2,0
					c0.2,0,0.5,0,0.7,0c0.2,0,0.4,0,0.6,0c0.2,0,0.5,0,0.7,0c0.2,0,0.4,0,0.6,0c0.2,0,0.5,0,0.7,0c0.2,0,0.4,0,0.6,0
					c0.2,0,0.5,0,0.7,0c0.2,0,0.4,0,0.6,0c0.3,0,0.5-0.1,0.7-0.1c0.1,0,0.2,0,0.2-0.1L74.5,143.6z M62.1,145
					C62.1,145,62.1,145,62.1,145L62.1,145z M74.5,145L74.5,145C74.5,145,74.5,145,74.5,145z M62.1,143.5L62.1,143.5
					C62.1,143.5,62.1,143.5,62.1,143.5C62.1,143.5,62.1,143.5,62.1,143.5z"/>
			</g>
			<g id="XMLID_252_">
				<path id="XMLID_253_" class="st5" d="M61.9,143.5C61.9,143.5,61.9,143.5,61.9,143.5C61.9,143.5,61.9,143.6,61.9,143.5
					c0.1,0.1,0.1,0.2,0.2,0.2c0,0,0,0,0,0c0,0,0,0,0.1,0c0,0,0,0,0.1,0c0,0,0,0,0.1,0c0,0,0,0,0.1,0c0,0,0,0,0.1,0c0,0,0.1,0,0.1,0
					c0.1,0,0.1,0,0.2,0c0,0,0.1,0,0.1,0c0.1,0,0.2,0,0.3,0c0,0,0,0,0,0c0.1,0,0.3,0,0.5,0c0,0,0.1,0,0.1,0c0,0,0.1,0,0.1,0
					c0,0,0.1,0,0.1,0c0.1,0,0.1,0,0.2,0c0.1,0,0.2,0,0.2,0c0.1,0,0.1,0,0.2,0c0.1,0,0.2,0,0.2,0c0.1,0,0.1,0,0.2,0c0,0,0,0,0.1,0
					c0,0,0.1,0,0.1,0c0,0,0,0,0,0c0,0,0.1,0,0.1,0c0,0,0,0,0,0c0,0,0.1,0,0.2,0c0.1,0,0.1,0,0.2,0c0.1,0,0.3,0,0.4,0
					c0,0,0.1,0,0.1,0c0.1,0,0.1,0,0.2,0c0,0,0.1,0,0.1,0c0.2,0,0.4,0,0.6,0c0.1,0,0.1,0,0.2,0c0.2,0,0.4,0,0.6,0c0.1,0,0.2,0,0.3,0
					c1.7,0,3.3-0.1,4.5-0.1c0,0,0.1,0,0.1,0c0,0,0.1,0,0.1,0c0.1,0,0.2,0,0.2,0c0,0,0.1,0,0.1,0c0,0,0,0,0.1,0c0,0,0,0,0.1,0
					c0.1,0,0.2,0,0.2,0c0,0,0.1,0,0.1,0c0,0,0,0,0.1,0c0,0,0,0,0.1,0c0,0,0.1,0,0.1,0c0,0,0,0,0,0c0,0,0,0,0,0c0,0,0,0,0,0
					c0,0,0,0,0.1,0c0,0,0.1,0,0.1,0c0,0,0,0,0,0c0,0,0,0,0,0c0,0,0.1,0,0.1,0c0,0,0,0,0,0c0.2-0.1,0.2-0.1,0.2-0.2c0,0,0,0,0,0
					c0,0,0-0.1,0-0.1c-0.1-0.1-0.2-0.1-0.5-0.1c0,0,0,0,0,0c-0.2,0-0.6-0.1-1-0.1c0,0-0.1,0-0.1,0c-0.2,0-0.4,0-0.7,0
					c-0.2,0-0.4,0-0.6,0c-0.2,0-0.4,0-0.6,0c0.8,0,1.5,0.1,2,0.1c0,0,0,0,0,0c0.6,0,1,0.1,1.2,0.1c-0.1,0-0.1,0-0.2,0c0,0,0,0-0.1,0
					c0,0,0,0-0.1,0c0,0-0.1,0-0.1,0c0,0,0,0-0.1,0c0,0-0.1,0-0.1,0c-0.3,0-0.6,0.1-1,0.1c0,0-0.1,0-0.1,0c0,0-0.1,0-0.1,0
					c0,0-0.1,0-0.1,0c-0.3,0-0.5,0-0.8,0c0,0-0.1,0-0.1,0c-0.5,0-1,0-1.5,0c-0.1,0-0.2,0-0.3,0c0,0,0,0-0.1,0c-0.1,0-0.1,0-0.2,0
					c-0.3,0-0.7,0-1.1,0c-0.3,0-0.5,0-0.7,0c-0.1,0-0.2,0-0.3,0c-0.2,0-0.4,0-0.5,0c-0.1,0-0.1,0-0.2,0c-0.3,0-0.6,0-0.8,0
					c0,0-0.1,0-0.1,0c0,0,0,0,0,0c-0.1,0-0.2,0-0.2,0h0c0,0-0.1,0-0.1,0c-0.1,0-0.2,0-0.3,0c0,0-0.1,0-0.1,0c-0.1,0-0.2,0-0.3,0
					c0,0-0.1,0-0.1,0c-0.1,0-0.1,0-0.2,0c-0.1,0-0.3,0-0.4,0c-0.1,0-0.2,0-0.2,0c-0.1,0-0.2,0-0.3,0c0,0,0,0-0.1,0c0,0-0.1,0-0.1,0
					c0,0-0.1,0-0.1,0c0,0,0,0,0,0c0,0-0.1,0-0.1,0c0,0,0,0-0.1,0c0,0-0.1,0-0.1,0c0,0-0.1,0-0.1,0c0,0-0.1,0-0.1,0
					c-0.1,0-0.1,0-0.2,0c0.2,0,0.6-0.1,1.2-0.2c0,0,0,0,0,0c0.5,0,1.2-0.1,2-0.1c-0.2,0-0.4,0-0.7,0c-0.2,0-0.4,0-0.6,0
					c-0.3,0-0.5,0-0.7,0c0,0-0.1,0-0.1,0c-0.4,0-0.8,0.1-1,0.1C61.9,143.3,61.9,143.4,61.9,143.5z"/>
			</g>
		</g>
		<g id="XMLID_240_">
			<g id="XMLID_244_">
				<path id="XMLID_245_" class="st5" d="M68,147.6c-0.2,0-0.5,0-0.7,0l0,0c-0.2,0-0.4,0-0.6,0c-0.2,0-0.5,0-0.7,0
					c-0.2,0-0.4,0-0.6,0c-0.2,0-0.5,0-0.7,0c-0.2,0-0.4,0-0.6,0c-0.3,0-0.5,0-0.7,0c-0.2,0-0.4,0-0.6,0c-0.3,0-0.5-0.1-0.7-0.1
					c-0.2,0-0.3-0.1-0.3-0.2l0-1.5v0c0-0.1,0-0.1,0.1-0.1c0,0,0,0,0,0c0,0,0.1,0,0.1,0.1c0.2,0.1,2.5,0.3,6.2,0.3
					c3.7,0,6-0.2,6.2-0.4c0,0,0.1-0.1,0.1-0.1c0,0,0,0,0,0c0.1,0,0.1,0,0.1,0.1v0l0,0l0,1.5c0,0.1-0.1,0.2-0.3,0.2
					c-0.2,0-0.4,0.1-0.7,0.1c-0.2,0-0.3,0-0.6,0.1c-0.2,0-0.4,0-0.7,0c-0.2,0-0.4,0-0.6,0c-0.2,0-0.4,0-0.7,0c-0.2,0-0.4,0-0.6,0
					c-0.2,0-0.4,0-0.7,0c-0.2,0-0.4,0-0.6,0c-0.2,0-0.5,0-0.7,0c-0.1,0-0.2,0-0.2,0C68.2,147.6,68.1,147.6,68,147.6
					C68,147.6,68,147.6,68,147.6z M74.5,145.7c-0.2,0.1-0.7,0.1-1.7,0.2c-1.2,0.1-2.8,0.1-4.5,0.1c-1.9,0-5.4,0-6.2-0.3l0,1.3
					c0,0,0.1,0,0.2,0.1c0.2,0,0.4,0.1,0.7,0.1c0.2,0,0.4,0,0.6,0c0.2,0,0.4,0,0.7,0c0.2,0,0.4,0,0.6,0c0.2,0,0.4,0,0.7,0
					c0.2,0,0.4,0,0.6,0c0.2,0,0.4,0,0.7,0c0.2,0,0.4,0,0.6,0l0,0c0.2,0,0.5,0,0.7,0c0.1,0,0.2,0,0.3,0c0.1,0,0.2,0,0.2,0
					c0.2,0,0.5,0,0.7,0c0.2,0,0.4,0,0.6,0c0.2,0,0.5,0,0.7,0c0.2,0,0.4,0,0.6,0c0.2,0,0.5,0,0.7,0c0.2,0,0.4,0,0.6,0
					c0.2,0,0.5,0,0.7,0c0.2,0,0.4,0,0.6,0c0.3,0,0.5-0.1,0.7-0.1c0.1,0,0.2,0,0.2-0.1L74.5,145.7z M62.1,147.1
					C62.1,147.1,62.1,147.1,62.1,147.1L62.1,147.1z M74.5,147L74.5,147C74.5,147,74.5,147,74.5,147z M62.1,145.6L62.1,145.6
					C62.1,145.6,62.1,145.6,62.1,145.6C62.1,145.6,62.1,145.6,62.1,145.6z"/>
			</g>
			<g id="XMLID_241_">
				<path id="XMLID_242_" class="st5" d="M61.9,145.6C61.9,145.6,61.9,145.6,61.9,145.6C61.9,145.6,61.9,145.6,61.9,145.6
					c0.1,0.1,0.1,0.2,0.2,0.2c0,0,0,0,0,0c0,0,0,0,0.1,0c0,0,0,0,0.1,0c0,0,0,0,0.1,0c0,0,0,0,0.1,0c0,0,0,0,0.1,0c0,0,0.1,0,0.1,0
					c0.1,0,0.1,0,0.2,0c0,0,0.1,0,0.1,0c0.1,0,0.2,0,0.3,0c0,0,0,0,0,0c0.1,0,0.3,0,0.5,0c0,0,0.1,0,0.1,0c0,0,0.1,0,0.1,0
					c0,0,0.1,0,0.1,0c0.1,0,0.1,0,0.2,0c0.1,0,0.2,0,0.2,0c0.1,0,0.1,0,0.2,0c0.1,0,0.2,0,0.2,0c0.1,0,0.1,0,0.2,0c0,0,0,0,0.1,0
					c0,0,0.1,0,0.1,0c0,0,0,0,0,0c0,0,0.1,0,0.1,0c0,0,0,0,0,0c0,0,0.1,0,0.2,0c0.1,0,0.1,0,0.2,0c0.1,0,0.3,0,0.4,0
					c0,0,0.1,0,0.1,0c0.1,0,0.1,0,0.2,0c0,0,0.1,0,0.1,0c0.2,0,0.4,0,0.6,0c0.1,0,0.1,0,0.2,0c0.2,0,0.4,0,0.6,0c0.1,0,0.2,0,0.3,0
					c1.7,0,3.3-0.1,4.5-0.1c0,0,0.1,0,0.1,0c0,0,0.1,0,0.1,0c0.1,0,0.2,0,0.2,0c0,0,0.1,0,0.1,0c0,0,0,0,0.1,0c0,0,0,0,0.1,0
					c0.1,0,0.2,0,0.2,0c0,0,0.1,0,0.1,0c0,0,0,0,0.1,0c0,0,0,0,0.1,0c0,0,0.1,0,0.1,0c0,0,0,0,0,0c0,0,0,0,0,0c0,0,0,0,0,0
					c0,0,0,0,0.1,0c0,0,0.1,0,0.1,0c0,0,0,0,0,0c0,0,0,0,0,0c0,0,0.1,0,0.1,0c0,0,0,0,0,0c0.2-0.1,0.2-0.1,0.2-0.2c0,0,0,0,0,0
					c0,0,0-0.1,0-0.1c-0.1-0.1-0.2-0.1-0.5-0.1c0,0,0,0,0,0c-0.2,0-0.6-0.1-1-0.1c0,0-0.1,0-0.1,0c-0.2,0-0.4,0-0.7,0
					c-0.2,0-0.4,0-0.6,0c-0.2,0-0.4,0-0.6,0c0.8,0,1.5,0.1,2,0.1c0,0,0,0,0,0c0.6,0,1,0.1,1.2,0.1c-0.1,0-0.1,0-0.2,0c0,0,0,0-0.1,0
					c0,0,0,0-0.1,0c0,0-0.1,0-0.1,0c0,0,0,0-0.1,0c0,0-0.1,0-0.1,0c-0.3,0-0.6,0.1-1,0.1c0,0-0.1,0-0.1,0c0,0-0.1,0-0.1,0
					c0,0-0.1,0-0.1,0c-0.3,0-0.5,0-0.8,0c0,0-0.1,0-0.1,0c-0.5,0-1,0-1.5,0c-0.1,0-0.2,0-0.3,0c0,0,0,0-0.1,0c-0.1,0-0.1,0-0.2,0
					c-0.3,0-0.7,0-1.1,0c-0.3,0-0.5,0-0.7,0c-0.1,0-0.2,0-0.3,0c-0.2,0-0.4,0-0.5,0c-0.1,0-0.1,0-0.2,0c-0.3,0-0.6,0-0.8,0
					c0,0-0.1,0-0.1,0c0,0,0,0,0,0c-0.1,0-0.2,0-0.2,0h0c0,0-0.1,0-0.1,0c-0.1,0-0.2,0-0.3,0c0,0-0.1,0-0.1,0c-0.1,0-0.2,0-0.3,0
					c0,0-0.1,0-0.1,0c-0.1,0-0.1,0-0.2,0c-0.1,0-0.3,0-0.4,0c-0.1,0-0.2,0-0.2,0c-0.1,0-0.2,0-0.3,0c0,0,0,0-0.1,0c0,0-0.1,0-0.1,0
					c0,0-0.1,0-0.1,0c0,0,0,0,0,0c0,0-0.1,0-0.1,0c0,0,0,0-0.1,0c0,0-0.1,0-0.1,0c0,0-0.1,0-0.1,0c0,0-0.1,0-0.1,0
					c-0.1,0-0.1,0-0.2,0c0.2,0,0.6-0.1,1.2-0.2c0,0,0,0,0,0c0.5,0,1.2-0.1,2-0.1c-0.2,0-0.4,0-0.7,0c-0.2,0-0.4,0-0.6,0
					c-0.3,0-0.5,0-0.7,0c0,0-0.1,0-0.1,0c-0.4,0-0.8,0.1-1,0.1C61.9,145.4,61.9,145.5,61.9,145.6z"/>
			</g>
		</g>
		<g id="XMLID_229_">
			<g id="XMLID_233_">
				<path id="XMLID_234_" class="st5" d="M68,149.7c-0.2,0-0.5,0-0.7,0l0,0c-0.2,0-0.4,0-0.6,0c-0.2,0-0.5,0-0.7,0
					c-0.2,0-0.4,0-0.6,0c-0.2,0-0.5,0-0.7,0c-0.2,0-0.4,0-0.6,0c-0.3,0-0.5,0-0.7,0c-0.2,0-0.4,0-0.6,0c-0.3,0-0.5-0.1-0.7-0.1
					c-0.2,0-0.3-0.1-0.3-0.2l0-1.5v0c0-0.1,0-0.1,0.1-0.1c0,0,0,0,0,0c0,0,0.1,0,0.1,0.1c0.2,0.1,2.5,0.3,6.2,0.3
					c3.7,0,6-0.2,6.2-0.4c0,0,0.1-0.1,0.1-0.1c0,0,0,0,0,0c0.1,0,0.1,0,0.1,0.1v0l0,0l0,1.5c0,0.1-0.1,0.2-0.3,0.2
					c-0.2,0-0.4,0.1-0.7,0.1c-0.2,0-0.3,0-0.6,0.1c-0.2,0-0.4,0-0.7,0c-0.2,0-0.4,0-0.6,0c-0.2,0-0.4,0-0.7,0c-0.2,0-0.4,0-0.6,0
					c-0.2,0-0.4,0-0.7,0c-0.2,0-0.4,0-0.6,0c-0.2,0-0.5,0-0.7,0c-0.1,0-0.2,0-0.2,0C68.2,149.7,68.1,149.7,68,149.7
					C68,149.7,68,149.7,68,149.7z M74.5,147.8c-0.2,0.1-0.7,0.1-1.7,0.2c-1.2,0.1-2.8,0.1-4.5,0.1c-1.9,0-5.4,0-6.2-0.3l0,1.3
					c0,0,0.1,0,0.2,0.1c0.2,0,0.4,0.1,0.7,0.1c0.2,0,0.4,0,0.6,0c0.2,0,0.4,0,0.7,0c0.2,0,0.4,0,0.6,0c0.2,0,0.4,0,0.7,0
					c0.2,0,0.4,0,0.6,0c0.2,0,0.4,0,0.7,0c0.2,0,0.4,0,0.6,0l0,0c0.2,0,0.5,0,0.7,0c0.1,0,0.2,0,0.3,0c0.1,0,0.2,0,0.2,0
					c0.2,0,0.5,0,0.7,0c0.2,0,0.4,0,0.6,0c0.2,0,0.5,0,0.7,0c0.2,0,0.4,0,0.6,0c0.2,0,0.5,0,0.7,0c0.2,0,0.4,0,0.6,0
					c0.2,0,0.5,0,0.7,0c0.2,0,0.4,0,0.6,0c0.3,0,0.5-0.1,0.7-0.1c0.1,0,0.2,0,0.2-0.1L74.5,147.8z M62.1,149.2
					C62.1,149.2,62.1,149.2,62.1,149.2L62.1,149.2z M74.5,149.2L74.5,149.2C74.5,149.2,74.5,149.2,74.5,149.2z M62.1,147.7
					L62.1,147.7C62.1,147.7,62.1,147.7,62.1,147.7C62.1,147.7,62.1,147.7,62.1,147.7z"/>
			</g>
			<g id="XMLID_230_">
				<path id="XMLID_231_" class="st5" d="M61.9,147.7C61.9,147.7,61.9,147.7,61.9,147.7C61.9,147.7,61.9,147.8,61.9,147.7
					c0.1,0.1,0.1,0.2,0.2,0.2c0,0,0,0,0,0c0,0,0,0,0.1,0c0,0,0,0,0.1,0c0,0,0,0,0.1,0c0,0,0,0,0.1,0c0,0,0,0,0.1,0c0,0,0.1,0,0.1,0
					c0.1,0,0.1,0,0.2,0c0,0,0.1,0,0.1,0c0.1,0,0.2,0,0.3,0c0,0,0,0,0,0c0.1,0,0.3,0,0.5,0c0,0,0.1,0,0.1,0c0,0,0.1,0,0.1,0
					c0,0,0.1,0,0.1,0c0.1,0,0.1,0,0.2,0c0.1,0,0.2,0,0.2,0c0.1,0,0.1,0,0.2,0c0.1,0,0.2,0,0.2,0c0.1,0,0.1,0,0.2,0c0,0,0,0,0.1,0
					c0,0,0.1,0,0.1,0c0,0,0,0,0,0c0,0,0.1,0,0.1,0c0,0,0,0,0,0c0,0,0.1,0,0.2,0c0.1,0,0.1,0,0.2,0c0.1,0,0.3,0,0.4,0
					c0,0,0.1,0,0.1,0c0.1,0,0.1,0,0.2,0c0,0,0.1,0,0.1,0c0.2,0,0.4,0,0.6,0c0.1,0,0.1,0,0.2,0c0.2,0,0.4,0,0.6,0c0.1,0,0.2,0,0.3,0
					c1.7,0,3.3-0.1,4.5-0.1c0,0,0.1,0,0.1,0c0,0,0.1,0,0.1,0c0.1,0,0.2,0,0.2,0c0,0,0.1,0,0.1,0c0,0,0,0,0.1,0c0,0,0,0,0.1,0
					c0.1,0,0.2,0,0.2,0c0,0,0.1,0,0.1,0c0,0,0,0,0.1,0c0,0,0,0,0.1,0c0,0,0.1,0,0.1,0c0,0,0,0,0,0c0,0,0,0,0,0c0,0,0,0,0,0
					c0,0,0,0,0.1,0c0,0,0.1,0,0.1,0c0,0,0,0,0,0c0,0,0,0,0,0c0,0,0.1,0,0.1,0c0,0,0,0,0,0c0.2-0.1,0.2-0.1,0.2-0.2c0,0,0,0,0,0
					c0,0,0-0.1,0-0.1c-0.1-0.1-0.2-0.1-0.5-0.1c0,0,0,0,0,0c-0.2,0-0.6-0.1-1-0.1c0,0-0.1,0-0.1,0c-0.2,0-0.4,0-0.7,0
					c-0.2,0-0.4,0-0.6,0c-0.2,0-0.4,0-0.6,0c0.8,0,1.5,0.1,2,0.1c0,0,0,0,0,0c0.6,0,1,0.1,1.2,0.1c-0.1,0-0.1,0-0.2,0c0,0,0,0-0.1,0
					c0,0,0,0-0.1,0c0,0-0.1,0-0.1,0c0,0,0,0-0.1,0c0,0-0.1,0-0.1,0c-0.3,0-0.6,0.1-1,0.1c0,0-0.1,0-0.1,0c0,0-0.1,0-0.1,0
					c0,0-0.1,0-0.1,0c-0.3,0-0.5,0-0.8,0c0,0-0.1,0-0.1,0c-0.5,0-1,0-1.5,0c-0.1,0-0.2,0-0.3,0c0,0,0,0-0.1,0c-0.1,0-0.1,0-0.2,0
					c-0.3,0-0.7,0-1.1,0c-0.3,0-0.5,0-0.7,0c-0.1,0-0.2,0-0.3,0c-0.2,0-0.4,0-0.5,0c-0.1,0-0.1,0-0.2,0c-0.3,0-0.6,0-0.8,0
					c0,0-0.1,0-0.1,0c0,0,0,0,0,0c-0.1,0-0.2,0-0.2,0h0c0,0-0.1,0-0.1,0c-0.1,0-0.2,0-0.3,0c0,0-0.1,0-0.1,0c-0.1,0-0.2,0-0.3,0
					c0,0-0.1,0-0.1,0c-0.1,0-0.1,0-0.2,0c-0.1,0-0.3,0-0.4,0c-0.1,0-0.2,0-0.2,0c-0.1,0-0.2,0-0.3,0c0,0,0,0-0.1,0c0,0-0.1,0-0.1,0
					c0,0-0.1,0-0.1,0c0,0,0,0,0,0c0,0-0.1,0-0.1,0c0,0,0,0-0.1,0c0,0-0.1,0-0.1,0c0,0-0.1,0-0.1,0c0,0-0.1,0-0.1,0
					c-0.1,0-0.1,0-0.2,0c0.2,0,0.6-0.1,1.2-0.2c0,0,0,0,0,0c0.5,0,1.2-0.1,2-0.1c-0.2,0-0.4,0-0.7,0c-0.2,0-0.4,0-0.6,0
					c-0.3,0-0.5,0-0.7,0c0,0-0.1,0-0.1,0c-0.4,0-0.8,0.1-1,0.1C61.9,147.5,61.9,147.6,61.9,147.7z"/>
			</g>
		</g>
		<g id="XMLID_218_">
			<g id="XMLID_222_">
				<path id="XMLID_223_" class="st5" d="M68,151.8c-0.2,0-0.5,0-0.7,0l0,0c-0.2,0-0.4,0-0.6,0c-0.2,0-0.5,0-0.7,0
					c-0.2,0-0.4,0-0.6,0c-0.2,0-0.5,0-0.7,0c-0.2,0-0.4,0-0.6,0c-0.3,0-0.5,0-0.7,0c-0.2,0-0.4,0-0.6,0c-0.3,0-0.5-0.1-0.7-0.1
					c-0.2,0-0.3-0.1-0.3-0.2l0-1.5v0c0-0.1,0-0.1,0.1-0.1c0,0,0,0,0,0c0,0,0.1,0,0.1,0.1c0.2,0.1,2.5,0.3,6.2,0.3
					c3.7,0,6-0.2,6.2-0.4c0,0,0.1-0.1,0.1-0.1c0,0,0,0,0,0c0.1,0,0.1,0,0.1,0.1v0l0,0l0,1.5c0,0.1-0.1,0.2-0.3,0.2
					c-0.2,0-0.4,0.1-0.7,0.1c-0.2,0-0.3,0-0.6,0.1c-0.2,0-0.4,0-0.7,0c-0.2,0-0.4,0-0.6,0c-0.2,0-0.4,0-0.7,0c-0.2,0-0.4,0-0.6,0
					c-0.2,0-0.4,0-0.7,0c-0.2,0-0.4,0-0.6,0c-0.2,0-0.5,0-0.7,0c-0.1,0-0.2,0-0.2,0C68.2,151.8,68.1,151.8,68,151.8
					C68,151.8,68,151.8,68,151.8z M74.5,149.9c-0.2,0.1-0.7,0.1-1.7,0.2c-1.2,0.1-2.8,0.1-4.5,0.1c-1.9,0-5.4,0-6.2-0.3l0,1.3
					c0,0,0.1,0,0.2,0.1c0.2,0,0.4,0.1,0.7,0.1c0.2,0,0.4,0,0.6,0c0.2,0,0.4,0,0.7,0c0.2,0,0.4,0,0.6,0c0.2,0,0.4,0,0.7,0
					c0.2,0,0.4,0,0.6,0c0.2,0,0.4,0,0.7,0c0.2,0,0.4,0,0.6,0l0,0c0.2,0,0.5,0,0.7,0c0.1,0,0.2,0,0.3,0c0.1,0,0.2,0,0.2,0
					c0.2,0,0.5,0,0.7,0c0.2,0,0.4,0,0.6,0c0.2,0,0.5,0,0.7,0c0.2,0,0.4,0,0.6,0c0.2,0,0.5,0,0.7,0c0.2,0,0.4,0,0.6,0
					c0.2,0,0.5,0,0.7,0c0.2,0,0.4,0,0.6,0c0.3,0,0.5-0.1,0.7-0.1c0.1,0,0.2,0,0.2-0.1L74.5,149.9z M62.1,151.3
					C62.1,151.3,62.1,151.3,62.1,151.3L62.1,151.3z M74.5,151.3L74.5,151.3C74.5,151.3,74.5,151.3,74.5,151.3z M62.1,149.8
					L62.1,149.8C62.1,149.8,62.1,149.8,62.1,149.8C62.1,149.8,62.1,149.8,62.1,149.8z"/>
			</g>
			<g id="XMLID_219_">
				<path id="XMLID_220_" class="st5" d="M61.9,149.8C61.9,149.8,61.9,149.8,61.9,149.8C61.9,149.8,61.9,149.9,61.9,149.8
					c0.1,0.1,0.1,0.2,0.2,0.2c0,0,0,0,0,0c0,0,0,0,0.1,0c0,0,0,0,0.1,0c0,0,0,0,0.1,0c0,0,0,0,0.1,0c0,0,0,0,0.1,0c0,0,0.1,0,0.1,0
					c0.1,0,0.1,0,0.2,0c0,0,0.1,0,0.1,0c0.1,0,0.2,0,0.3,0c0,0,0,0,0,0c0.1,0,0.3,0,0.5,0c0,0,0.1,0,0.1,0c0,0,0.1,0,0.1,0
					c0,0,0.1,0,0.1,0c0.1,0,0.1,0,0.2,0c0.1,0,0.2,0,0.2,0c0.1,0,0.1,0,0.2,0c0.1,0,0.2,0,0.2,0c0.1,0,0.1,0,0.2,0c0,0,0,0,0.1,0
					c0,0,0.1,0,0.1,0c0,0,0,0,0,0c0,0,0.1,0,0.1,0c0,0,0,0,0,0c0,0,0.1,0,0.2,0c0.1,0,0.1,0,0.2,0c0.1,0,0.3,0,0.4,0
					c0,0,0.1,0,0.1,0c0.1,0,0.1,0,0.2,0c0,0,0.1,0,0.1,0c0.2,0,0.4,0,0.6,0c0.1,0,0.1,0,0.2,0c0.2,0,0.4,0,0.6,0c0.1,0,0.2,0,0.3,0
					c1.7,0,3.3-0.1,4.5-0.1c0,0,0.1,0,0.1,0c0,0,0.1,0,0.1,0c0.1,0,0.2,0,0.2,0c0,0,0.1,0,0.1,0c0,0,0,0,0.1,0c0,0,0,0,0.1,0
					c0.1,0,0.2,0,0.2,0c0,0,0.1,0,0.1,0c0,0,0,0,0.1,0c0,0,0,0,0.1,0c0,0,0.1,0,0.1,0c0,0,0,0,0,0c0,0,0,0,0,0c0,0,0,0,0,0
					c0,0,0,0,0.1,0c0,0,0.1,0,0.1,0c0,0,0,0,0,0c0,0,0,0,0,0c0,0,0.1,0,0.1,0c0,0,0,0,0,0c0.2-0.1,0.2-0.1,0.2-0.2c0,0,0,0,0,0
					c0,0,0-0.1,0-0.1c-0.1-0.1-0.2-0.1-0.5-0.1c0,0,0,0,0,0c-0.2,0-0.6-0.1-1-0.1c0,0-0.1,0-0.1,0c-0.2,0-0.4,0-0.7,0
					c-0.2,0-0.4,0-0.6,0c-0.2,0-0.4,0-0.6,0c0.8,0,1.5,0.1,2,0.1c0,0,0,0,0,0c0.6,0,1,0.1,1.2,0.1c-0.1,0-0.1,0-0.2,0c0,0,0,0-0.1,0
					c0,0,0,0-0.1,0c0,0-0.1,0-0.1,0c0,0,0,0-0.1,0c0,0-0.1,0-0.1,0c-0.3,0-0.6,0.1-1,0.1c0,0-0.1,0-0.1,0c0,0-0.1,0-0.1,0
					c0,0-0.1,0-0.1,0c-0.3,0-0.5,0-0.8,0c0,0-0.1,0-0.1,0c-0.5,0-1,0-1.5,0c-0.1,0-0.2,0-0.3,0c0,0,0,0-0.1,0c-0.1,0-0.1,0-0.2,0
					c-0.3,0-0.7,0-1.1,0c-0.3,0-0.5,0-0.7,0c-0.1,0-0.2,0-0.3,0c-0.2,0-0.4,0-0.5,0c-0.1,0-0.1,0-0.2,0c-0.3,0-0.6,0-0.8,0
					c0,0-0.1,0-0.1,0c0,0,0,0,0,0c-0.1,0-0.2,0-0.2,0h0c0,0-0.1,0-0.1,0c-0.1,0-0.2,0-0.3,0c0,0-0.1,0-0.1,0c-0.1,0-0.2,0-0.3,0
					c0,0-0.1,0-0.1,0c-0.1,0-0.1,0-0.2,0c-0.1,0-0.3,0-0.4,0c-0.1,0-0.2,0-0.2,0c-0.1,0-0.2,0-0.3,0c0,0,0,0-0.1,0c0,0-0.1,0-0.1,0
					c0,0-0.1,0-0.1,0c0,0,0,0,0,0c0,0-0.1,0-0.1,0c0,0,0,0-0.1,0c0,0-0.1,0-0.1,0c0,0-0.1,0-0.1,0c0,0-0.1,0-0.1,0
					c-0.1,0-0.1,0-0.2,0c0.2,0,0.6-0.1,1.2-0.2c0,0,0,0,0,0c0.5,0,1.2-0.1,2-0.1c-0.2,0-0.4,0-0.7,0c-0.2,0-0.4,0-0.6,0
					c-0.3,0-0.5,0-0.7,0c0,0-0.1,0-0.1,0c-0.4,0-0.8,0.1-1,0.1C61.9,149.7,61.9,149.7,61.9,149.8z"/>
			</g>
		</g>
		<g id="XMLID_205_">
			<g id="XMLID_210_">
				<path id="XMLID_211_" class="st5" d="M73.8,141.7c0,0-0.1,0-0.1,0C73.7,141.8,73.7,141.8,73.8,141.7z M74.1,141.7
					c0,0-0.1,0-0.1,0C74,141.7,74.1,141.7,74.1,141.7z M74.3,141.7C74.2,141.7,74.2,141.7,74.3,141.7
					C74.2,141.7,74.2,141.7,74.3,141.7z M61.9,141.5C61.9,141.5,61.9,141.5,61.9,141.5l0,1.5c0,0.1,0.1,0.2,0.3,0.2
					c0.1,0,0.1,0,0.2,0c0.1,0,0.3,0,0.5,0.1c0.1,0,0.3,0,0.5,0c0,0,0,0,0,0c0,0,0.1,0,0.1,0c0.2,0,0.4,0,0.7,0c0.2,0,0.4,0,0.6,0
					c0.2,0,0.4,0,0.7,0c0.2,0,0.4,0,0.6,0c0.2,0,0.4,0,0.7,0c0.2,0,0.4,0,0.6,0h0c0.2,0,0.5,0,0.7,0h0.1c0.1,0,0.1,0,0.2,0
					c0.1,0,0.2,0,0.2,0c0.2,0,0.5,0,0.7,0c0.2,0,0.4,0,0.6,0c0.2,0,0.5,0,0.7,0c0.2,0,0.4,0,0.6,0c0.2,0,0.5,0,0.7,0
					c0.2,0,0.4,0,0.6,0c0.2,0,0.5,0,0.7,0c0,0,0.1,0,0.1,0c0,0,0,0,0,0c0.2,0,0.3,0,0.5,0c0.2,0,0.4,0,0.5-0.1c0,0,0,0,0,0
					c0.1,0,0.1,0,0.2,0c0.2,0,0.3-0.1,0.3-0.2l0-1.5c0,0,0,0,0,0c0,0-0.1-0.1-0.1-0.1c0,0-0.1,0-0.1,0.1c0,0-0.1,0-0.1,0
					c-0.1,0-0.1,0-0.2,0c0,0,0,0-0.1,0c0,0-0.1,0-0.1,0c0,0-0.1,0-0.1,0c-0.1,0-0.3,0-0.4,0c0,0,0,0-0.1,0c0,0-0.1,0-0.1,0
					c0,0-0.1,0-0.1,0c-0.2,0-0.4,0-0.7,0c0,0-0.1,0-0.1,0c-0.2,0-0.4,0-0.7,0c-0.1,0-0.2,0-0.2,0c0,0-0.1,0-0.1,0
					c-0.1,0-0.2,0-0.3,0c-0.1,0-0.1,0-0.2,0c-0.1,0-0.1,0-0.2,0c-0.1,0-0.1,0-0.2,0c0,0-0.1,0-0.1,0c-0.1,0-0.2,0-0.2,0
					c-0.1,0-0.1,0-0.2,0c-0.1,0-0.2,0-0.3,0c0,0,0,0-0.1,0c-0.1,0-0.1,0-0.2,0c-0.3,0-0.7,0-1.1,0c-0.3,0-0.5,0-0.7,0
					c-0.1,0-0.2,0-0.3,0c-0.2,0-0.4,0-0.5,0c-0.1,0-0.1,0-0.2,0c-0.3,0-0.6,0-0.8,0c0,0-0.1,0-0.1,0c0,0,0,0,0,0c-0.1,0-0.2,0-0.2,0
					h0c0,0-0.1,0-0.1,0c-0.1,0-0.2,0-0.3,0c0,0-0.1,0-0.1,0c-0.1,0-0.2,0-0.3,0c0,0-0.1,0-0.1,0c-0.1,0-0.1,0-0.2,0
					c-0.1,0-0.3,0-0.4,0c-0.1,0-0.2,0-0.2,0c-0.1,0-0.2,0-0.3,0c0,0,0,0-0.1,0c0,0-0.1,0-0.1,0c0,0-0.1,0-0.1,0c0,0,0,0,0,0
					c0,0-0.1,0-0.1,0c0,0,0,0-0.1,0c0,0-0.1,0-0.1,0c0,0-0.1,0-0.1,0c0,0-0.1,0-0.1,0c-0.1,0-0.1,0-0.2,0h0c-0.1,0-0.1,0-0.1,0
					c0,0-0.1-0.1-0.1-0.1C61.9,141.4,61.9,141.4,61.9,141.5z M62.1,141.7C62.1,141.7,62.1,141.7,62.1,141.7c0.1,0,0.1,0,0.1,0
					c0.2,0,0.4,0.1,0.6,0.1c0,0,0.1,0,0.1,0c0.1,0,0.1,0,0.2,0c0.2,0,0.4,0,0.6,0c0.1,0,0.1,0,0.2,0c0.1,0,0.2,0,0.3,0
					c0.1,0,0.1,0,0.2,0c0.2,0,0.5,0,0.7,0c0.1,0,0.1,0,0.2,0c0.1,0,0.2,0,0.4,0c0,0,0.1,0,0.1,0c0,0,0,0,0.1,0c0,0,0.1,0,0.1,0
					c0.1,0,0.1,0,0.2,0c0.1,0,0.2,0,0.3,0c0,0,0.1,0,0.1,0c0.1,0,0.2,0,0.2,0c0,0,0,0,0.1,0c0,0,0.1,0,0.1,0c0.3,0,0.6,0,0.8,0
					c0.1,0,0.2,0,0.3,0c1.7,0,3.3-0.1,4.5-0.1c0,0,0.1,0,0.1,0c0,0,0.1,0,0.1,0c0.1,0,0.2,0,0.2,0c0,0,0.1,0,0.1,0c0,0,0,0,0.1,0
					c0,0,0,0,0.1,0c0.1,0,0.2,0,0.2,0c0,0,0.1,0,0.1,0c0,0,0,0,0.1,0c0,0,0,0,0.1,0c0,0,0.1,0,0.1,0c0,0,0.1,0,0.1,0c0,0,0,0,0.1,0
					c0,0,0.1,0,0.1,0c0.1,0,0.1,0,0.2,0c0,0,0,0,0,0c0,0,0,0,0,0l0,1.3c0,0-0.1,0-0.2,0.1c-0.2,0-0.4,0.1-0.7,0.1
					c-0.1,0-0.3,0-0.4,0c0,0-0.1,0-0.1,0c-0.2,0-0.4,0-0.7,0c-0.2,0-0.4,0-0.6,0c-0.2,0-0.4,0-0.6,0c0,0,0,0-0.1,0
					c-0.2,0-0.4,0-0.6,0c-0.2,0-0.4,0-0.7,0c-0.2,0-0.4,0-0.6,0c-0.2,0-0.4,0-0.7,0c-0.1,0-0.2,0-0.2,0c-0.1,0-0.2,0-0.3,0
					c-0.2,0-0.5,0-0.7,0h0c-0.2,0-0.4,0-0.6,0c-0.2,0-0.5,0-0.7,0c-0.2,0-0.4,0-0.6,0c0,0,0,0,0,0c-0.2,0-0.4,0-0.7,0
					c-0.2,0-0.4,0-0.6,0c-0.3,0-0.5,0-0.7,0c0,0-0.1,0-0.1,0c-0.2,0-0.3,0-0.5,0c-0.3,0-0.5-0.1-0.7-0.1c-0.1,0-0.2,0-0.2-0.1
					L62.1,141.7z"/>
			</g>
			<g id="XMLID_206_">
				<path id="XMLID_207_" class="st5" d="M61.9,141.6C61.9,141.6,61.9,141.5,61.9,141.6C61.9,141.5,61.9,141.5,61.9,141.6
					c0-0.2,0-0.4,1.9-0.5c1.2-0.1,2.8-0.1,4.5-0.1c2.1,0,6.1,0.1,6.4,0.4c0,0,0,0.1,0,0.1c0,0.1,0,0.3-1.9,0.4
					c-1.2,0.1-2.8,0.1-4.5,0.1c-0.1,0-0.2,0-0.3,0C65.8,142,62.2,141.9,61.9,141.6z M68.3,141.2c-3.4,0-5.5,0.2-6.1,0.3
					c0.6,0.1,2.7,0.3,6.1,0.3c3.4,0,5.5-0.2,6.1-0.3C73.8,141.3,71.6,141.2,68.3,141.2z"/>
			</g>
		</g>
		<g id="XMLID_194_">
			<g id="XMLID_198_">
				<path id="XMLID_199_" class="st5" d="M54.9,149.9c-0.2,0-0.5,0-0.7,0l0,0c-0.2,0-0.4,0-0.6,0c-0.2,0-0.5,0-0.7,0
					c-0.2,0-0.4,0-0.6,0c-0.2,0-0.5,0-0.7,0c-0.2,0-0.4,0-0.6,0c-0.3,0-0.5,0-0.7,0c-0.2,0-0.4,0-0.6,0c-0.3,0-0.5-0.1-0.7-0.1
					c-0.2,0-0.3-0.1-0.3-0.2l0-1.5v0c0-0.1,0-0.1,0.1-0.1c0,0,0,0,0,0c0,0,0.1,0,0.1,0.1c0.2,0.1,2.5,0.3,6.2,0.3
					c3.7,0,6-0.2,6.2-0.4c0,0,0.1-0.1,0.1-0.1c0,0,0,0,0,0c0.1,0,0.1,0,0.1,0.1v0l0,0l0,1.5c0,0.1-0.1,0.2-0.3,0.2
					c-0.2,0-0.4,0.1-0.7,0.1c-0.2,0-0.3,0-0.6,0.1c-0.2,0-0.4,0-0.7,0c-0.2,0-0.4,0-0.6,0c-0.2,0-0.4,0-0.7,0c-0.2,0-0.4,0-0.6,0
					c-0.2,0-0.4,0-0.7,0c-0.2,0-0.4,0-0.6,0c-0.2,0-0.5,0-0.7,0c-0.1,0-0.2,0-0.2,0C55.1,149.9,55,149.9,54.9,149.9
					C54.9,149.9,54.9,149.9,54.9,149.9z M61.4,148c-0.2,0.1-0.7,0.1-1.7,0.2c-1.2,0.1-2.8,0.1-4.5,0.1c-1.9,0-5.4,0-6.2-0.3l0,1.3
					c0,0,0.1,0,0.2,0.1c0.2,0,0.4,0.1,0.7,0.1c0.2,0,0.4,0,0.6,0c0.2,0,0.4,0,0.7,0c0.2,0,0.4,0,0.6,0c0.2,0,0.4,0,0.7,0
					c0.2,0,0.4,0,0.6,0c0.2,0,0.4,0,0.7,0c0.2,0,0.4,0,0.6,0l0,0c0.2,0,0.5,0,0.7,0c0.1,0,0.2,0,0.3,0c0.1,0,0.2,0,0.2,0
					c0.2,0,0.5,0,0.7,0c0.2,0,0.4,0,0.6,0c0.2,0,0.5,0,0.7,0c0.2,0,0.4,0,0.6,0c0.2,0,0.5,0,0.7,0c0.2,0,0.4,0,0.6,0
					c0.2,0,0.5,0,0.7,0c0.2,0,0.4,0,0.6,0c0.3,0,0.5-0.1,0.7-0.1c0.1,0,0.2,0,0.2-0.1L61.4,148z M49,149.4
					C49,149.4,49,149.4,49,149.4L49,149.4z M61.4,149.3L61.4,149.3C61.4,149.3,61.4,149.3,61.4,149.3z M49,147.9L49,147.9
					C49,147.9,49,147.9,49,147.9C49,147.9,49,147.9,49,147.9z"/>
			</g>
			<g id="XMLID_195_">
				<path id="XMLID_196_" class="st5" d="M48.7,147.9C48.7,147.9,48.7,147.9,48.7,147.9C48.7,147.9,48.8,147.9,48.7,147.9
					c0.1,0.1,0.1,0.2,0.2,0.2c0,0,0,0,0,0c0,0,0,0,0.1,0c0,0,0,0,0.1,0c0,0,0,0,0.1,0c0,0,0,0,0.1,0c0,0,0,0,0.1,0c0,0,0.1,0,0.1,0
					c0.1,0,0.1,0,0.2,0c0,0,0.1,0,0.1,0c0.1,0,0.2,0,0.3,0c0,0,0,0,0,0c0.1,0,0.3,0,0.5,0c0,0,0.1,0,0.1,0c0,0,0.1,0,0.1,0
					c0,0,0.1,0,0.1,0c0.1,0,0.1,0,0.2,0c0.1,0,0.2,0,0.2,0c0.1,0,0.1,0,0.2,0c0.1,0,0.2,0,0.2,0c0.1,0,0.1,0,0.2,0c0,0,0,0,0.1,0
					c0,0,0.1,0,0.1,0c0,0,0,0,0,0c0,0,0.1,0,0.1,0c0,0,0,0,0,0c0,0,0.1,0,0.2,0c0.1,0,0.1,0,0.2,0c0.1,0,0.3,0,0.4,0
					c0,0,0.1,0,0.1,0c0.1,0,0.1,0,0.2,0c0,0,0.1,0,0.1,0c0.2,0,0.4,0,0.6,0c0.1,0,0.1,0,0.2,0c0.2,0,0.4,0,0.6,0c0.1,0,0.2,0,0.3,0
					c1.7,0,3.3-0.1,4.5-0.1c0,0,0.1,0,0.1,0c0,0,0.1,0,0.1,0c0.1,0,0.2,0,0.2,0c0,0,0.1,0,0.1,0c0,0,0,0,0.1,0c0,0,0,0,0.1,0
					c0.1,0,0.2,0,0.2,0c0,0,0.1,0,0.1,0c0,0,0,0,0.1,0c0,0,0,0,0.1,0c0,0,0.1,0,0.1,0c0,0,0,0,0,0c0,0,0,0,0,0c0,0,0,0,0,0
					c0,0,0,0,0.1,0c0,0,0.1,0,0.1,0c0,0,0,0,0,0c0,0,0,0,0,0c0,0,0.1,0,0.1,0c0,0,0,0,0,0c0.2-0.1,0.2-0.1,0.2-0.2c0,0,0,0,0,0
					c0,0,0-0.1,0-0.1c-0.1-0.1-0.2-0.1-0.5-0.1c0,0,0,0,0,0c-0.2,0-0.6-0.1-1-0.1c0,0-0.1,0-0.1,0c-0.2,0-0.4,0-0.7,0
					c-0.2,0-0.4,0-0.6,0c-0.2,0-0.4,0-0.6,0c0.8,0,1.5,0.1,2,0.1c0,0,0,0,0,0c0.6,0,1,0.1,1.2,0.1c-0.1,0-0.1,0-0.2,0c0,0,0,0-0.1,0
					c0,0,0,0-0.1,0c0,0-0.1,0-0.1,0c0,0,0,0-0.1,0c0,0-0.1,0-0.1,0c-0.3,0-0.6,0.1-1,0.1c0,0-0.1,0-0.1,0c0,0-0.1,0-0.1,0
					c0,0-0.1,0-0.1,0c-0.3,0-0.5,0-0.8,0c0,0-0.1,0-0.1,0c-0.5,0-1,0-1.5,0c-0.1,0-0.2,0-0.3,0c0,0,0,0-0.1,0c-0.1,0-0.1,0-0.2,0
					c-0.3,0-0.7,0-1.1,0c-0.3,0-0.5,0-0.7,0c-0.1,0-0.2,0-0.3,0c-0.2,0-0.4,0-0.5,0c-0.1,0-0.1,0-0.2,0c-0.3,0-0.6,0-0.8,0
					c0,0-0.1,0-0.1,0c0,0,0,0,0,0c-0.1,0-0.2,0-0.2,0h0c0,0-0.1,0-0.1,0c-0.1,0-0.2,0-0.3,0c0,0-0.1,0-0.1,0c-0.1,0-0.2,0-0.3,0
					c0,0-0.1,0-0.1,0c-0.1,0-0.1,0-0.2,0c-0.1,0-0.3,0-0.4,0c-0.1,0-0.2,0-0.2,0c-0.1,0-0.2,0-0.3,0c0,0,0,0-0.1,0c0,0-0.1,0-0.1,0
					c0,0-0.1,0-0.1,0c0,0,0,0,0,0c0,0-0.1,0-0.1,0c0,0,0,0-0.1,0c0,0-0.1,0-0.1,0c0,0-0.1,0-0.1,0c0,0-0.1,0-0.1,0
					c-0.1,0-0.1,0-0.2,0c0.2,0,0.6-0.1,1.2-0.2c0,0,0,0,0,0c0.5,0,1.2-0.1,2-0.1c-0.2,0-0.4,0-0.7,0c-0.2,0-0.4,0-0.6,0
					c-0.3,0-0.5,0-0.7,0c0,0-0.1,0-0.1,0c-0.4,0-0.8,0.1-1,0.1C48.7,147.7,48.7,147.8,48.7,147.9z"/>
			</g>
		</g>
		<g id="XMLID_183_">
			<g id="XMLID_187_">
				<path id="XMLID_188_" class="st5" d="M54.9,151.9c-0.2,0-0.5,0-0.7,0l0,0c-0.2,0-0.4,0-0.6,0c-0.2,0-0.5,0-0.7,0
					c-0.2,0-0.4,0-0.6,0c-0.2,0-0.5,0-0.7,0c-0.2,0-0.4,0-0.6,0c-0.3,0-0.5,0-0.7,0c-0.2,0-0.4,0-0.6,0c-0.3,0-0.5-0.1-0.7-0.1
					c-0.2,0-0.3-0.1-0.3-0.2l0-1.5v0c0-0.1,0-0.1,0.1-0.1c0,0,0,0,0,0c0,0,0.1,0,0.1,0.1c0.2,0.1,2.5,0.3,6.2,0.3
					c3.7,0,6-0.2,6.2-0.4c0,0,0.1-0.1,0.1-0.1c0,0,0,0,0,0c0.1,0,0.1,0,0.1,0.1v0l0,0l0,1.5c0,0.1-0.1,0.2-0.3,0.2
					c-0.2,0-0.4,0.1-0.7,0.1c-0.2,0-0.3,0-0.6,0.1c-0.2,0-0.4,0-0.7,0c-0.2,0-0.4,0-0.6,0c-0.2,0-0.4,0-0.7,0c-0.2,0-0.4,0-0.6,0
					c-0.2,0-0.4,0-0.7,0c-0.2,0-0.4,0-0.6,0c-0.2,0-0.5,0-0.7,0c-0.1,0-0.2,0-0.2,0C55.1,151.9,55,151.9,54.9,151.9
					C54.9,151.9,54.9,151.9,54.9,151.9z M61.4,150.1c-0.2,0.1-0.7,0.1-1.7,0.2c-1.2,0.1-2.8,0.1-4.5,0.1c-1.9,0-5.4,0-6.2-0.3l0,1.3
					c0,0,0.1,0,0.2,0.1c0.2,0,0.4,0.1,0.7,0.1c0.2,0,0.4,0,0.6,0c0.2,0,0.4,0,0.7,0c0.2,0,0.4,0,0.6,0c0.2,0,0.4,0,0.7,0
					c0.2,0,0.4,0,0.6,0c0.2,0,0.4,0,0.7,0c0.2,0,0.4,0,0.6,0l0,0c0.2,0,0.5,0,0.7,0c0.1,0,0.2,0,0.3,0c0.1,0,0.2,0,0.2,0
					c0.2,0,0.5,0,0.7,0c0.2,0,0.4,0,0.6,0c0.2,0,0.5,0,0.7,0c0.2,0,0.4,0,0.6,0c0.2,0,0.5,0,0.7,0c0.2,0,0.4,0,0.6,0
					c0.2,0,0.5,0,0.7,0c0.2,0,0.4,0,0.6,0c0.3,0,0.5-0.1,0.7-0.1c0.1,0,0.2,0,0.2-0.1L61.4,150.1z M49,151.4
					C49,151.4,49,151.4,49,151.4L49,151.4z M61.4,151.4L61.4,151.4C61.4,151.4,61.4,151.4,61.4,151.4z M49,149.9L49,149.9
					C49,149.9,49,149.9,49,149.9C49,149.9,49,149.9,49,149.9z"/>
			</g>
			<g id="XMLID_184_">
				<path id="XMLID_185_" class="st5" d="M48.7,149.9C48.7,149.9,48.7,149.9,48.7,149.9C48.7,150,48.8,150,48.7,149.9
					c0.1,0.1,0.1,0.2,0.2,0.2c0,0,0,0,0,0c0,0,0,0,0.1,0c0,0,0,0,0.1,0c0,0,0,0,0.1,0c0,0,0,0,0.1,0c0,0,0,0,0.1,0c0,0,0.1,0,0.1,0
					c0.1,0,0.1,0,0.2,0c0,0,0.1,0,0.1,0c0.1,0,0.2,0,0.3,0c0,0,0,0,0,0c0.1,0,0.3,0,0.5,0c0,0,0.1,0,0.1,0c0,0,0.1,0,0.1,0
					c0,0,0.1,0,0.1,0c0.1,0,0.1,0,0.2,0c0.1,0,0.2,0,0.2,0c0.1,0,0.1,0,0.2,0c0.1,0,0.2,0,0.2,0c0.1,0,0.1,0,0.2,0c0,0,0,0,0.1,0
					c0,0,0.1,0,0.1,0c0,0,0,0,0,0c0,0,0.1,0,0.1,0c0,0,0,0,0,0c0,0,0.1,0,0.2,0c0.1,0,0.1,0,0.2,0c0.1,0,0.3,0,0.4,0
					c0,0,0.1,0,0.1,0c0.1,0,0.1,0,0.2,0c0,0,0.1,0,0.1,0c0.2,0,0.4,0,0.6,0c0.1,0,0.1,0,0.2,0c0.2,0,0.4,0,0.6,0c0.1,0,0.2,0,0.3,0
					c1.7,0,3.3-0.1,4.5-0.1c0,0,0.1,0,0.1,0c0,0,0.1,0,0.1,0c0.1,0,0.2,0,0.2,0c0,0,0.1,0,0.1,0c0,0,0,0,0.1,0c0,0,0,0,0.1,0
					c0.1,0,0.2,0,0.2,0c0,0,0.1,0,0.1,0c0,0,0,0,0.1,0c0,0,0,0,0.1,0c0,0,0.1,0,0.1,0c0,0,0,0,0,0c0,0,0,0,0,0c0,0,0,0,0,0
					c0,0,0,0,0.1,0c0,0,0.1,0,0.1,0c0,0,0,0,0,0c0,0,0,0,0,0c0,0,0.1,0,0.1,0c0,0,0,0,0,0c0.2-0.1,0.2-0.1,0.2-0.2c0,0,0,0,0,0
					c0,0,0-0.1,0-0.1c-0.1-0.1-0.2-0.1-0.5-0.1c0,0,0,0,0,0c-0.2,0-0.6-0.1-1-0.1c0,0-0.1,0-0.1,0c-0.2,0-0.4,0-0.7,0
					c-0.2,0-0.4,0-0.6,0c-0.2,0-0.4,0-0.6,0c0.8,0,1.5,0.1,2,0.1c0,0,0,0,0,0c0.6,0,1,0.1,1.2,0.1c-0.1,0-0.1,0-0.2,0c0,0,0,0-0.1,0
					c0,0,0,0-0.1,0c0,0-0.1,0-0.1,0c0,0,0,0-0.1,0c0,0-0.1,0-0.1,0c-0.3,0-0.6,0.1-1,0.1c0,0-0.1,0-0.1,0c0,0-0.1,0-0.1,0
					c0,0-0.1,0-0.1,0c-0.3,0-0.5,0-0.8,0c0,0-0.1,0-0.1,0c-0.5,0-1,0-1.5,0c-0.1,0-0.2,0-0.3,0c0,0,0,0-0.1,0c-0.1,0-0.1,0-0.2,0
					c-0.3,0-0.7,0-1.1,0c-0.3,0-0.5,0-0.7,0c-0.1,0-0.2,0-0.3,0c-0.2,0-0.4,0-0.5,0c-0.1,0-0.1,0-0.2,0c-0.3,0-0.6,0-0.8,0
					c0,0-0.1,0-0.1,0c0,0,0,0,0,0c-0.1,0-0.2,0-0.2,0h0c0,0-0.1,0-0.1,0c-0.1,0-0.2,0-0.3,0c0,0-0.1,0-0.1,0c-0.1,0-0.2,0-0.3,0
					c0,0-0.1,0-0.1,0c-0.1,0-0.1,0-0.2,0c-0.1,0-0.3,0-0.4,0c-0.1,0-0.2,0-0.2,0c-0.1,0-0.2,0-0.3,0c0,0,0,0-0.1,0c0,0-0.1,0-0.1,0
					c0,0-0.1,0-0.1,0c0,0,0,0,0,0c0,0-0.1,0-0.1,0c0,0,0,0-0.1,0c0,0-0.1,0-0.1,0c0,0-0.1,0-0.1,0c0,0-0.1,0-0.1,0
					c-0.1,0-0.1,0-0.2,0c0.2,0,0.6-0.1,1.2-0.2c0,0,0,0,0,0c0.5,0,1.2-0.1,2-0.1c-0.2,0-0.4,0-0.7,0c-0.2,0-0.4,0-0.6,0
					c-0.3,0-0.5,0-0.7,0c0,0-0.1,0-0.1,0c-0.4,0-0.8,0.1-1,0.1C48.7,149.8,48.7,149.9,48.7,149.9z"/>
			</g>
		</g>
		<g id="XMLID_170_">
			<g id="XMLID_175_">
				<path id="XMLID_176_" class="st5" d="M60.6,146.1c0,0-0.1,0-0.1,0C60.6,146.1,60.6,146.1,60.6,146.1z M61,146.1c0,0-0.1,0-0.1,0
					C60.9,146.1,60.9,146.1,61,146.1z M61.1,146C61.1,146,61.1,146,61.1,146C61.1,146,61.1,146,61.1,146z M48.7,145.9
					C48.7,145.9,48.7,145.9,48.7,145.9l0,1.5c0,0.1,0.1,0.2,0.3,0.2c0.1,0,0.1,0,0.2,0c0.1,0,0.3,0,0.5,0.1c0.1,0,0.3,0,0.5,0
					c0,0,0,0,0,0c0,0,0.1,0,0.1,0c0.2,0,0.4,0,0.7,0c0.2,0,0.4,0,0.6,0c0.2,0,0.4,0,0.7,0c0.2,0,0.4,0,0.6,0c0.2,0,0.4,0,0.7,0
					c0.2,0,0.4,0,0.6,0h0c0.2,0,0.5,0,0.7,0h0.1c0.1,0,0.1,0,0.2,0c0.1,0,0.2,0,0.2,0c0.2,0,0.5,0,0.7,0c0.2,0,0.4,0,0.6,0
					c0.2,0,0.5,0,0.7,0c0.2,0,0.4,0,0.6,0c0.2,0,0.5,0,0.7,0c0.2,0,0.4,0,0.6,0c0.2,0,0.5,0,0.7,0c0,0,0.1,0,0.1,0c0,0,0,0,0,0
					c0.2,0,0.3,0,0.5,0c0.2,0,0.4,0,0.5-0.1c0,0,0,0,0,0c0.1,0,0.1,0,0.2,0c0.2,0,0.3-0.1,0.3-0.2l0-1.5c0,0,0,0,0,0
					c0,0-0.1-0.1-0.1-0.1c0,0-0.1,0-0.1,0.1c0,0-0.1,0-0.1,0c-0.1,0-0.1,0-0.2,0c0,0,0,0-0.1,0c0,0-0.1,0-0.1,0c0,0-0.1,0-0.1,0
					c-0.1,0-0.3,0-0.4,0c0,0,0,0-0.1,0c0,0-0.1,0-0.1,0c0,0-0.1,0-0.1,0c-0.2,0-0.4,0-0.7,0c0,0-0.1,0-0.1,0c-0.2,0-0.4,0-0.7,0
					c-0.1,0-0.2,0-0.2,0c0,0-0.1,0-0.1,0c-0.1,0-0.2,0-0.3,0c-0.1,0-0.1,0-0.2,0c-0.1,0-0.1,0-0.2,0c-0.1,0-0.1,0-0.2,0
					c0,0-0.1,0-0.1,0c-0.1,0-0.2,0-0.2,0c-0.1,0-0.1,0-0.2,0c-0.1,0-0.2,0-0.3,0c0,0,0,0-0.1,0c-0.1,0-0.1,0-0.2,0
					c-0.3,0-0.7,0-1.1,0c-0.3,0-0.5,0-0.7,0c-0.1,0-0.2,0-0.3,0c-0.2,0-0.4,0-0.5,0c-0.1,0-0.1,0-0.2,0c-0.3,0-0.6,0-0.8,0
					c0,0-0.1,0-0.1,0c0,0,0,0,0,0c-0.1,0-0.2,0-0.2,0h0c0,0-0.1,0-0.1,0c-0.1,0-0.2,0-0.3,0c0,0-0.1,0-0.1,0c-0.1,0-0.2,0-0.3,0
					c0,0-0.1,0-0.1,0c-0.1,0-0.1,0-0.2,0c-0.1,0-0.3,0-0.4,0c-0.1,0-0.2,0-0.2,0c-0.1,0-0.2,0-0.3,0c0,0,0,0-0.1,0c0,0-0.1,0-0.1,0
					c0,0-0.1,0-0.1,0c0,0,0,0,0,0c0,0-0.1,0-0.1,0c0,0,0,0-0.1,0c0,0-0.1,0-0.1,0c0,0-0.1,0-0.1,0c0,0-0.1,0-0.1,0
					c-0.1,0-0.1,0-0.2,0h0c-0.1,0-0.1,0-0.1,0c0,0-0.1-0.1-0.1-0.1C48.8,145.7,48.7,145.8,48.7,145.9z M49,146C49,146,49,146,49,146
					c0.1,0,0.1,0,0.1,0c0.2,0,0.4,0.1,0.6,0.1c0,0,0.1,0,0.1,0c0.1,0,0.1,0,0.2,0c0.2,0,0.4,0,0.6,0c0.1,0,0.1,0,0.2,0
					c0.1,0,0.2,0,0.3,0c0.1,0,0.1,0,0.2,0c0.2,0,0.5,0,0.7,0c0.1,0,0.1,0,0.2,0c0.1,0,0.2,0,0.4,0c0,0,0.1,0,0.1,0c0,0,0,0,0.1,0
					c0,0,0.1,0,0.1,0c0.1,0,0.1,0,0.2,0c0.1,0,0.2,0,0.3,0c0,0,0.1,0,0.1,0c0.1,0,0.2,0,0.2,0c0,0,0,0,0.1,0c0,0,0.1,0,0.1,0
					c0.3,0,0.6,0,0.8,0c0.1,0,0.2,0,0.3,0c1.7,0,3.3-0.1,4.5-0.1c0,0,0.1,0,0.1,0c0,0,0.1,0,0.1,0c0.1,0,0.2,0,0.2,0
					c0,0,0.1,0,0.1,0c0,0,0,0,0.1,0c0,0,0,0,0.1,0c0.1,0,0.2,0,0.2,0c0,0,0.1,0,0.1,0c0,0,0,0,0.1,0c0,0,0,0,0.1,0c0,0,0.1,0,0.1,0
					c0,0,0.1,0,0.1,0c0,0,0,0,0.1,0c0,0,0.1,0,0.1,0c0.1,0,0.1,0,0.2,0c0,0,0,0,0,0c0,0,0,0,0,0l0,1.3c0,0-0.1,0-0.2,0.1
					c-0.2,0-0.4,0.1-0.7,0.1c-0.1,0-0.3,0-0.4,0c0,0-0.1,0-0.1,0c-0.2,0-0.4,0-0.7,0c-0.2,0-0.4,0-0.6,0c-0.2,0-0.4,0-0.6,0
					c0,0,0,0-0.1,0c-0.2,0-0.4,0-0.6,0c-0.2,0-0.4,0-0.7,0c-0.2,0-0.4,0-0.6,0c-0.2,0-0.4,0-0.7,0c-0.1,0-0.2,0-0.2,0
					c-0.1,0-0.2,0-0.3,0c-0.2,0-0.5,0-0.7,0h0c-0.2,0-0.4,0-0.6,0c-0.2,0-0.5,0-0.7,0c-0.2,0-0.4,0-0.6,0c0,0,0,0,0,0
					c-0.2,0-0.4,0-0.7,0c-0.2,0-0.4,0-0.6,0c-0.3,0-0.5,0-0.7,0c0,0-0.1,0-0.1,0c-0.2,0-0.3,0-0.5,0c-0.3,0-0.5-0.1-0.7-0.1
					c-0.1,0-0.2,0-0.2-0.1L49,146z"/>
			</g>
			<g id="XMLID_171_">
				<path id="XMLID_172_" class="st5" d="M48.8,145.9C48.8,145.9,48.7,145.9,48.8,145.9C48.7,145.9,48.7,145.9,48.8,145.9
					c0-0.2,0-0.4,1.9-0.5c1.2-0.1,2.8-0.1,4.5-0.1c2.1,0,6.1,0.1,6.4,0.4c0,0,0,0.1,0,0.1c0,0.1,0,0.3-1.9,0.4
					c-1.2,0.1-2.8,0.1-4.5,0.1c-0.1,0-0.2,0-0.3,0C52.7,146.3,49.1,146.2,48.8,145.9z M55.2,145.5c-3.4,0-5.5,0.2-6.1,0.3
					c0.6,0.1,2.7,0.3,6.1,0.3c3.4,0,5.5-0.2,6.1-0.3C60.7,145.7,58.5,145.5,55.2,145.5z"/>
			</g>
		</g>
	</g>
</g>
<g id="XMLID_157_">
	
		<linearGradient id="XMLID_336_" gradientUnits="userSpaceOnUse" x1="365.8516" y1="159.415" x2="150.3904" y2="1.7155" gradientTransform="matrix(-1 0 0 1 456.6667 0)">
		<stop  offset="0" style="stop-color:#5B2669"/>
		<stop  offset="0.6581" style="stop-color:#491E5A"/>
		<stop  offset="1" style="stop-color:#3F1851"/>
	</linearGradient>
	<circle id="XMLID_167_" class="st6" cx="226.9" cy="59.8" r="25.2"/>
	<g id="XMLID_158_">
		<rect id="XMLID_166_" x="217.2" y="45.4" class="st5" width="2.6" height="22.6"/>
		<g id="XMLID_159_">
			<rect id="XMLID_165_" x="222.7" y="52" class="st5" width="2.6" height="16"/>
			<rect id="XMLID_164_" x="228.1" y="48.8" class="st5" width="2.6" height="19.2"/>
			<rect id="XMLID_163_" x="233.4" y="45.4" class="st5" width="2.6" height="22.6"/>
			<rect id="XMLID_162_" x="238.8" y="55" class="st5" width="2.6" height="13.1"/>
			<g id="XMLID_160_">
				<polygon id="XMLID_161_" class="st5" points="241.4,70.2 214,70.2 214,45.4 214.2,45.4 214.2,70.1 241.4,70.1 				"/>
			</g>
		</g>
	</g>
</g>
<path id="XMLID_156_" class="st7" d="M125.9,130.8c-12.1,0-16.5-0.4-15.5-3.4c1-3,2.6-5,5.6-4c3.1,1,1.9-6.9,6.6-7.8
	c4.7-0.9,6.4,5.7,8.4,4.4c1.9-1.3,7.4-2,8.1,3.2c0.7,5.1,5.5-0.3,7.7,2C148.9,127.4,150.7,130.8,125.9,130.8z"/>
<g id="XMLID_141_">
	<g id="XMLID_151_">
		<path id="XMLID_155_" class="st5" d="M99.1,83.5c-25.7,0-35.2-0.8-33.1-7.2c2.2-6.4,5.5-10.7,12-8.6c6.5,2.1,4.1-14.7,14-16.6
			s13.7,12,17.8,9.4c4.1-2.7,15.7-4.2,17.2,6.7c1.4,10.9,11.7-0.6,16.3,4.2C148,76.2,151.8,83.5,99.1,83.5z"/>
		<path id="XMLID_152_" class="st8" d="M66.2,79.7c-0.7-0.9-0.8-2.1-0.3-3.5c1.6-4.9,4.7-11.1,12.1-8.6c2.9,1,4-2.1,5.3-5.9
			c1.5-4.3,3.3-9.6,8.7-10.7c5.7-1.1,9.4,3,12.3,6.3c2.1,2.4,3.8,4.2,5.5,3.1c2.4-1.6,7.9-2.9,12.1-1c3,1.4,4.7,4,5.2,7.8
			c0.3,2.2,0.9,3.6,2,4.3c1.6,1,3.9,0.3,6.3-0.4c2.9-0.9,5.9-1.8,8,0.3c1.6,1.6,3.1,3.6,2.3,5.5c-1.9,4.6-17.2,6.8-46.6,6.8
			C78.3,83.6,68.6,83,66.2,79.7z M135.6,71.3c-2.5,0.8-4.8,1.5-6.5,0.4c-1.1-0.7-1.8-2.2-2.1-4.4c-0.5-3.7-2.2-6.3-5.1-7.6
			c-4.2-1.9-9.6-0.6-11.9,1c-1.8,1.2-3.6-0.7-5.8-3.2c-2.9-3.2-6.5-7.2-12.1-6.2c-5.2,1-7,6.3-8.5,10.5c-1.3,3.8-2.4,7.1-5.6,6.1
			c-5.6-1.8-9.2,0.8-11.8,8.5c-0.5,1.4-0.4,2.4,0.2,3.3c2.3,3.2,12,3.8,32.7,3.8c28.9,0,44.5-2.2,46.4-6.6c0.7-1.8-0.7-3.6-2.2-5.2
			c-0.9-0.9-1.9-1.2-3.1-1.2C138.8,70.3,137.1,70.8,135.6,71.3z"/>
	</g>
	<g id="XMLID_142_">
		<path id="XMLID_148_" class="st5" d="M66.1,79.8c-0.7-1-0.8-2.2-0.3-3.7c1.7-5,4.8-11.3,12.4-8.8c2.6,0.9,3.6-1.6,5-5.8
			c1.5-4.4,3.4-9.8,8.8-10.8c5.9-1.1,9.7,3.2,12.5,6.3c2.3,2.5,3.7,4,5.2,3.1c2.5-1.6,8-3,12.4-1c3,1.4,4.8,4.1,5.3,8
			c0.3,2.1,0.9,3.5,1.9,4.1c1.5,1,3.7,0.3,6.1-0.4c3-0.9,6.1-1.8,8.2,0.4c1.6,1.7,3.2,3.7,2.3,5.7c-0.7,1.7-2.9,6.9-46.8,6.9
			C78.2,83.8,68.5,83.2,66.1,79.8z M135.6,71.5c-2.5,0.8-4.9,1.5-6.7,0.4c-1.2-0.8-1.9-2.3-2.2-4.6c-0.5-3.7-2.1-6.2-4.9-7.4
			c-4.1-1.9-9.4-0.5-11.7,1c-2,1.3-3.9-0.8-6.1-3.2c-2.9-3.2-6.4-7.1-11.9-6.1c-5.1,1-6.8,5.9-8.3,10.3c-1.4,3.9-2.5,7.4-5.9,6.2
			c-5.4-1.8-9,0.8-11.5,8.3c-0.4,1.3-0.4,2.3,0.2,3.1c2.3,3.1,12.3,3.7,32.5,3.7c28.8,0,44.3-2.2,46.2-6.5c0.7-1.6-0.7-3.4-2.2-5
			c-0.8-0.8-1.8-1.1-2.9-1.1C138.8,70.5,137.2,71,135.6,71.5z"/>
		<path id="XMLID_143_" class="st8" d="M66,79.9c-0.7-1-0.8-2.3-0.3-3.8c1.7-5,4.8-11.4,12.6-8.9c2.5,0.8,3.5-1.6,4.9-5.7
			c1.5-4.4,3.4-9.8,8.9-10.9c5.9-1.1,9.8,3.2,12.7,6.4c2.2,2.5,3.7,4,5,3.1c2.5-1.6,8.1-3,12.5-1c3,1.4,4.9,4.2,5.4,8.1
			c0.3,2.1,0.9,3.4,1.8,4c1.5,0.9,3.7,0.3,6-0.4c3-0.9,6.1-1.9,8.3,0.4c1.7,1.7,3.2,3.8,2.4,5.8c-0.7,1.7-3,7-46.9,7
			C78.2,83.9,68.4,83.4,66,79.9z M135.5,70.9c-2.4,0.7-4.7,1.4-6.2,0.4c-1-0.7-1.7-2-2-4.2c-0.5-3.8-2.3-6.5-5.3-7.9
			c-4.3-2-9.8-0.6-12.2,1c-1.5,1-3-0.5-5.3-3.1c-2.8-3.1-6.6-7.4-12.4-6.3c-5.4,1-7.3,6.4-8.7,10.7c-1.5,4.2-2.5,6.8-5.2,5.9
			c-7.5-2.5-10.6,3.8-12.3,8.7c-0.5,1.5-0.4,2.6,0.3,3.6c2.4,3.4,12.1,3.9,33,3.9c18.7,0,32-0.9,39.6-2.8c6.1-1.5,6.8-3.2,7.1-4
			c0.8-1.9-0.7-3.9-2.3-5.6c-0.9-1-2.1-1.3-3.3-1.3C138.7,69.9,137.1,70.4,135.5,70.9z M66.5,79.5c-0.6-0.8-0.7-1.9-0.2-3.2
			c2.6-7.6,6.2-10.2,11.7-8.4c3.3,1.1,4.4-2.3,5.7-6.2c1.5-4.4,3.2-9.5,8.4-10.4c5.6-1,9.1,2.9,12,6.1c2.1,2.4,4,4.4,5.9,3.2
			c2.3-1.5,7.7-2.9,11.8-1c2.8,1.3,4.5,3.8,5,7.5c0.3,2.3,1,3.8,2.2,4.5c1.7,1.1,4.1,0.4,6.6-0.4c1.6-0.5,3.2-1,4.6-1
			c1.3,0,2.3,0.4,3,1.2c1.5,1.6,2.9,3.4,2.2,5.1c-1.9,4.4-17.4,6.6-46.3,6.6C78.9,83.2,68.8,82.7,66.5,79.5z M135.7,71.6
			c-2.6,0.8-5,1.5-6.8,0.3c-1.2-0.8-2-2.3-2.3-4.7c-0.5-3.6-2.1-6.1-4.9-7.3c-4-1.9-9.3-0.5-11.6,0.9c-2.1,1.4-4-0.8-6.2-3.2
			c-2.8-3.2-6.4-7.1-11.8-6.1c-5,0.9-6.7,5.9-8.2,10.3c-1.4,4-2.6,7.4-6,6.3c-5.4-1.8-8.9,0.8-11.4,8.3c-0.4,1.2-0.4,2.2,0.2,3
			c2.2,3.1,12.2,3.6,32.4,3.6c28.8,0,44.3-2.2,46.1-6.4c0.7-1.6-0.7-3.3-2.2-4.8c-0.7-0.7-1.6-1.1-2.8-1.1
			C138.8,70.7,137.2,71.1,135.7,71.6z"/>
	</g>
</g>
<g id="XMLID_120_">
	
		<linearGradient id="XMLID_337_" gradientUnits="userSpaceOnUse" x1="219.231" y1="195.2781" x2="54.4966" y2="38.6124" gradientTransform="matrix(-1 0 0 1 456.6667 0)">
		<stop  offset="0" style="stop-color:#5B2669"/>
		<stop  offset="0.6581" style="stop-color:#491E5A"/>
		<stop  offset="1" style="stop-color:#3F1851"/>
	</linearGradient>
	<path id="XMLID_140_" class="st9" d="M296.1,127.8c0,0,19.8-8.5,35.9-10.8c0,0-7.4-24.1-1.5-43.5l5.7,0c0,0,17.2,44.8,2.8,58.6
		c-14.4,13.8-51.9,21.6-51.9,21.6L296.1,127.8z"/>
	
		<linearGradient id="XMLID_338_" gradientUnits="userSpaceOnUse" x1="62.7095" y1="92.9473" x2="68.8473" y2="104.5472" gradientTransform="matrix(-0.9849 -0.1729 -0.1729 0.9849 416.4836 -16.7762)">
		<stop  offset="0" style="stop-color:#FEF8BE"/>
		<stop  offset="0.4909" style="stop-color:#DB6566"/>
		<stop  offset="0.9997" style="stop-color:#D63A39"/>
	</linearGradient>
	<path id="XMLID_139_" class="st10" d="M335.2,73.5c0,0,1.8-5.8,1-5.9c-0.8-0.1-1.1-0.6-2.4-0.4s-2.1,0.2-2.2,0.8
		c-0.1,0.6-0.3,1.6-0.9,1.7c-0.6,0.1,1.7,3.8,1.7,3.8L335.2,73.5z"/>
	
		<linearGradient id="XMLID_339_" gradientUnits="userSpaceOnUse" x1="146.7759" y1="177.8215" x2="167.2606" y2="181.459" gradientTransform="matrix(-1 0 0 1 456.6667 0)">
		<stop  offset="0" style="stop-color:#BF2025"/>
		<stop  offset="1" style="stop-color:#F47B29"/>
	</linearGradient>
	<path id="XMLID_138_" class="st11" d="M289.4,164.7c0,0-0.3,26.9,12.1,32.6l2.1,4.3l-7.1,2c0,0-9.3-2.9-9.3-30.5
		S289.4,164.7,289.4,164.7z"/>
	
		<linearGradient id="XMLID_340_" gradientUnits="userSpaceOnUse" x1="198.2871" y1="325.2341" x2="212.9005" y2="344.9621" gradientTransform="matrix(-1 0 0 1 456.6667 0)">
		<stop  offset="2.208890e-003" style="stop-color:#66CCE6"/>
		<stop  offset="0.4875" style="stop-color:#4365AF"/>
		<stop  offset="1" style="stop-color:#273983"/>
	</linearGradient>
	<path id="XMLID_137_" class="st12" d="M243.9,341.5l2.5,5.4c0,0,1.1,2.2,0,2.8c-1.1,0.6-7.3,0-7.3,0s0.1-2.4,0.5-4.7
		s0.4-3.5,0.4-3.5H243.9z"/>
	
		<linearGradient id="XMLID_341_" gradientUnits="userSpaceOnUse" x1="185.8164" y1="246.2587" x2="333.7416" y2="464.1121" gradientTransform="matrix(-1 0 0 1 456.6667 0)">
		<stop  offset="0" style="stop-color:#5B2669"/>
		<stop  offset="0.6581" style="stop-color:#491E5A"/>
		<stop  offset="1" style="stop-color:#3F1851"/>
	</linearGradient>
	<path id="XMLID_136_" class="st13" d="M259.2,205.8c0,0-6,53.6-6,69.5c0,0-16.7,19.1-13.7,67.9h6.2c0,0,35.9-68.1,38.8-117.3
		C287.3,176.7,260.4,194.1,259.2,205.8z"/>
	
		<linearGradient id="XMLID_342_" gradientUnits="userSpaceOnUse" x1="178.5248" y1="283.2621" x2="80.5809" y2="207.7053" gradientTransform="matrix(-1 0 0 1 456.6667 0)">
		<stop  offset="0" style="stop-color:#5B2669"/>
		<stop  offset="0.6581" style="stop-color:#491E5A"/>
		<stop  offset="1" style="stop-color:#3F1851"/>
	</linearGradient>
	<path id="XMLID_135_" class="st14" d="M287.3,182.1c0,0,32.3,95,37.1,161h-7.6c0,0-29.7-32.7-29.5-67.1c0,0-22.7-34.5-20.7-79.5
		L287.3,182.1z"/>
	<path id="XMLID_134_" class="st15" d="M290.2,190.9c0,0-2.6,41.2-34.7,51.9l2.3-20.9L290.2,190.9z"/>
	
		<linearGradient id="XMLID_343_" gradientUnits="userSpaceOnUse" x1="184.235" y1="119.6276" x2="193.4607" y2="122.2953" gradientTransform="matrix(-1 0 0 1 456.6667 0)">
		<stop  offset="0" style="stop-color:#FEF8BE"/>
		<stop  offset="0.4909" style="stop-color:#DB6566"/>
		<stop  offset="0.9997" style="stop-color:#D63A39"/>
	</linearGradient>
	<polygon id="XMLID_133_" class="st16" points="275.4,130.6 271,108.7 260.5,111.3 265.2,125.2 265.1,129.9 	"/>
	
		<linearGradient id="XMLID_344_" gradientUnits="userSpaceOnUse" x1="160.9165" y1="120.3814" x2="218.7169" y2="147.167" gradientTransform="matrix(-1 0 0 1 456.6667 0)">
		<stop  offset="2.208890e-003" style="stop-color:#66CCE6"/>
		<stop  offset="0.4875" style="stop-color:#4365AF"/>
		<stop  offset="1" style="stop-color:#273983"/>
	</linearGradient>
	<path id="XMLID_132_" class="st17" d="M283.2,132.8c0,0-4.8-6.3-13.8-5.5c-9,0.9-7.3,3.6-7.3,3.6L283.2,132.8z"/>
	
		<linearGradient id="XMLID_345_" gradientUnits="userSpaceOnUse" x1="163.3833" y1="118.9883" x2="259.1815" y2="300.0381" gradientTransform="matrix(-1 0 0 1 456.6667 0)">
		<stop  offset="0" style="stop-color:#5B2669"/>
		<stop  offset="0.6581" style="stop-color:#491E5A"/>
		<stop  offset="1" style="stop-color:#3F1851"/>
	</linearGradient>
	<path id="XMLID_131_" class="st18" d="M249.8,148.7c-0.7-8.2,0-15.9,0-15.9c14.3-5.3,48-5.6,48-5.6s-6.1,37.4-7.4,46.4
		c-1.3,9-0.2,17.3-0.2,17.3s-10.9,35.8-36.5,36.7l3.2-47l0,0C255.6,174.4,251.1,160.3,249.8,148.7
		C249.8,148.7,249.7,148.7,249.8,148.7z"/>
	<path id="XMLID_130_" class="st19" d="M297.8,127.3c0,0-6.8,45.2-42.4,73.8l1.9-17.9L297.8,127.3z"/>
	
		<linearGradient id="XMLID_346_" gradientUnits="userSpaceOnUse" x1="181.6578" y1="115.5419" x2="184.0945" y2="115.5419" gradientTransform="matrix(-1 0 0 1 456.6667 0)">
		<stop  offset="0" style="stop-color:#FEF8BE"/>
		<stop  offset="0.4909" style="stop-color:#DB6566"/>
		<stop  offset="0.9997" style="stop-color:#D63A39"/>
	</linearGradient>
	<path id="XMLID_129_" class="st20" d="M273.7,111.8c0,0,1.3,0,1.3,1.9c0,1.9-1.3,5.5-1.3,5.5S271.1,113.8,273.7,111.8z"/>
	<path id="XMLID_128_" class="st21" d="M273.6,121.6l-0.5,4.1c0,0-7.2,1.4-7.8-0.4c-0.6-1.8-6.5-11.2-6.5-14.4
		c0-3.2,4.6-8.9,4.6-8.9l0.8,2.2l5.2-2.9v2.6c0,0,4.2,1.1,4.2,4.9C273.6,112.5,273.9,118.8,273.6,121.6z"/>
	<g id="XMLID_125_">
		
			<linearGradient id="XMLID_347_" gradientUnits="userSpaceOnUse" x1="119.5804" y1="325.2341" x2="134.1938" y2="344.9621" gradientTransform="matrix(-1 0 0 1 456.6667 0)">
			<stop  offset="2.208890e-003" style="stop-color:#66CCE6"/>
			<stop  offset="0.4875" style="stop-color:#4365AF"/>
			<stop  offset="1" style="stop-color:#273983"/>
		</linearGradient>
		<path id="XMLID_127_" class="st22" d="M322.6,341.5l2.5,5.4c0,0,1.1,2.2,0,2.8c-1.1,0.6-7.3,0-7.3,0s0.1-2.4,0.5-4.7
			c0.4-2.3,0.4-3.5,0.4-3.5H322.6z"/>
		
			<linearGradient id="XMLID_348_" gradientUnits="userSpaceOnUse" x1="119.3085" y1="333.6948" x2="129.813" y2="347.8759" gradientTransform="matrix(-1 0 0 1 456.6667 0)">
			<stop  offset="2.208890e-003" style="stop-color:#66CCE6"/>
			<stop  offset="0.4875" style="stop-color:#4365AF"/>
			<stop  offset="1" style="stop-color:#273983"/>
		</linearGradient>
		<path id="XMLID_126_" class="st23" d="M321.8,350l10.4-0.1c0,0-0.6-2.2-3.8-2.6c-3.2-0.4-6.6-1.6-6.6-1.6L321.8,350z"/>
	</g>
	
		<linearGradient id="XMLID_349_" gradientUnits="userSpaceOnUse" x1="187.8035" y1="24.5374" x2="334.9403" y2="259.4814" gradientTransform="matrix(-1 0 0 1 456.6667 0)">
		<stop  offset="0" style="stop-color:#FEBB16"/>
		<stop  offset="0.2454" style="stop-color:#FEBB1A"/>
		<stop  offset="0.441" style="stop-color:#FEBE27"/>
		<stop  offset="0.6195" style="stop-color:#FFC33B"/>
		<stop  offset="0.7878" style="stop-color:#FFCA54"/>
		<stop  offset="0.9475" style="stop-color:#FFD370"/>
		<stop  offset="1" style="stop-color:#FFD67A"/>
	</linearGradient>
	<path id="XMLID_124_" class="st24" d="M31.7,231.2c2.1-0.9,4.4-2.1,7.1-3.6C59.9,216,47.2,243.7,53,268c1.4,6,5.2,8.5,9.8,9.2
		c14.2,2.2,36.7-12.1,27.9,6.5c-11.6,24.7,22.9,48.4,28.3,39.4c0.2-0.3,0.4-0.7,0.6-1c5.5-8.5,14.8-14.2,33.3-2.6
		c0.6,0.4,1.2,0.7,1.9,1.1c1.1,0.6,2.2,1.1,3.3,1.5c20.1,7.9,51.8-0.4,51.8-0.4c-32.7-7.2-55.6-80.1,1.8-103.4s85.9-91,85.9-91
		c-15,0.4-26.8,1.7-35,3c-0.3,0-0.6,0.1-0.9,0.1c0,0-0.1,0-0.1,0c-8.1,1.3-12.4,2.5-12.4,2.5c-9.4,20.1-92.8,43.6-151.8,44.6
		c-59,1-73.1,31.7-77.1,43.4C17,231,17.5,237.5,31.7,231.2z"/>
	
		<linearGradient id="XMLID_350_" gradientUnits="userSpaceOnUse" x1="249.7766" y1="233.3289" x2="373.4954" y2="146.8156" gradientTransform="matrix(-1 0 0 1 456.6667 0)">
		<stop  offset="0" style="stop-color:#FEBB16"/>
		<stop  offset="0.2454" style="stop-color:#FEBB1A"/>
		<stop  offset="0.441" style="stop-color:#FEBE27"/>
		<stop  offset="0.6195" style="stop-color:#FFC33B"/>
		<stop  offset="0.7878" style="stop-color:#FFCA54"/>
		<stop  offset="0.9475" style="stop-color:#FFD370"/>
		<stop  offset="1" style="stop-color:#FFD67A"/>
	</linearGradient>
	<path id="XMLID_123_" class="st25" d="M31.7,231.2c13.4-25.6,34-29.7,122.3-40.3s95.4-58,95.4-58c-9.4,20.1-92.8,43.6-151.8,44.6
		c-59,1-73.1,31.7-77.1,43.4C17,231,17.5,237.5,31.7,231.2z"/>
	
		<linearGradient id="XMLID_351_" gradientUnits="userSpaceOnUse" x1="138.194" y1="79.4142" x2="325.5652" y2="341.6446" gradientTransform="matrix(-1 0 0 1 456.6667 0)">
		<stop  offset="0" style="stop-color:#FEBB16"/>
		<stop  offset="0.2454" style="stop-color:#FEBB1A"/>
		<stop  offset="0.441" style="stop-color:#FEBE27"/>
		<stop  offset="0.6195" style="stop-color:#FFC33B"/>
		<stop  offset="0.7878" style="stop-color:#FFCA54"/>
		<stop  offset="0.9475" style="stop-color:#FFD370"/>
		<stop  offset="1" style="stop-color:#FFD67A"/>
	</linearGradient>
	<path id="XMLID_122_" class="st26" d="M154.9,320.5c1.1,0.6,2.2,1.1,3.3,1.5c20.1,7.9,51.8-0.4,51.8-0.4
		c-32.7-7.2-55.6-80.1,1.8-103.4s85.9-91,85.9-91c-15,0.4-26.8,1.7-35,3c-0.2,0.2-0.5,0.5-0.7,0.7c0,0-18.3,75.6-95,95.3
		C108.6,241.3,128.6,292.4,154.9,320.5z"/>
	
		<linearGradient id="XMLID_352_" gradientUnits="userSpaceOnUse" x1="264.2204" y1="237.2004" x2="328.3213" y2="165.4792" gradientTransform="matrix(-1 0 0 1 456.6667 0)">
		<stop  offset="0" style="stop-color:#FEBB16"/>
		<stop  offset="0.2454" style="stop-color:#FEBB1A"/>
		<stop  offset="0.441" style="stop-color:#FEBE27"/>
		<stop  offset="0.6195" style="stop-color:#FFC33B"/>
		<stop  offset="0.7878" style="stop-color:#FFCA54"/>
		<stop  offset="0.9475" style="stop-color:#FFD370"/>
		<stop  offset="1" style="stop-color:#FFD67A"/>
	</linearGradient>
	<path id="XMLID_121_" class="st27" d="M62.9,277.2c14.2,2.2,36.7-12.1,27.9,6.5c6.2-4.8,13.9-55.6,76.7-68.7
		c60.4-12.5,92.1-79.5,94.4-84.6c0.1-0.2,0.1-0.3,0.1-0.3c-0.1,0.1-0.1,0.2-0.2,0.3c-38.1,55.5-76.6,62.1-127.9,76.6
		C85.4,220.6,66,262.8,62.9,277.2z"/>
</g>
<linearGradient id="XMLID_353_" gradientUnits="userSpaceOnUse" x1="252.0595" y1="368.2413" x2="252.0595" y2="349.8978">
	<stop  offset="0" style="stop-color:#FFFFFF"/>
	<stop  offset="0.2204" style="stop-color:#FBFBFB;stop-opacity:0.8016"/>
	<stop  offset="0.3562" style="stop-color:#F3F3F3;stop-opacity:0.6794"/>
	<stop  offset="0.4692" style="stop-color:#E6E7E8;stop-opacity:0.5777"/>
	<stop  offset="0.5696" style="stop-color:#D5D7D8;stop-opacity:0.4873"/>
	<stop  offset="0.6618" style="stop-color:#BFC1C3;stop-opacity:0.4044"/>
	<stop  offset="0.7478" style="stop-color:#A4A6A9;stop-opacity:0.327"/>
	<stop  offset="0.8292" style="stop-color:#87898B;stop-opacity:0.2537"/>
	<stop  offset="0.9069" style="stop-color:#646668;stop-opacity:0.1838"/>
	<stop  offset="0.979" style="stop-color:#2F2F30;stop-opacity:0.1189"/>
	<stop  offset="1" style="stop-color:#000000;stop-opacity:0.1"/>
</linearGradient>
<polygon id="XMLID_119_" class="st28" points="332.2,349.9 314.5,368.2 171.9,368.2 239.1,349.9 247,349.9 228.4,364.7 317.9,349.9 
	"/>
<g id="XMLID_110_">
	<path id="XMLID_111_" class="st29" d="M311.3,71.2l0.6-0.5c1.4,1.6,2.1,2.6,2.1,2.6l-0.7,0.5C313.4,73.7,312.7,72.7,311.3,71.2z
		 M305.1,65.2l0.5-0.6c0.9,0.7,1.7,1.4,2.5,2.2l-0.6,0.6C306.7,66.6,305.9,65.9,305.1,65.2z M297.9,60.2l0.4-0.7
		c0.9,0.6,1.9,1.2,2.8,1.8l-0.5,0.7C299.8,61.3,298.9,60.7,297.9,60.2z M290.2,56.3l0.3-0.8c1,0.4,2,0.9,3,1.3l-0.4,0.7
		C292.2,57.2,291.2,56.7,290.2,56.3z M281.9,53.7l0.2-0.8c1.1,0.2,2.1,0.5,3.2,0.8l-0.2,0.8C284,54.2,282.9,54,281.9,53.7z
		 M273.3,52.4l0.1-0.8c1.1,0.1,2.2,0.2,3.3,0.3l-0.1,0.8C275.5,52.6,274.4,52.5,273.3,52.4z M264.5,51.6c1.1-0.1,2.2-0.1,3.3-0.1
		l0,0.8c-1.1,0-2.2,0.1-3.3,0.1L264.5,51.6z"/>
</g>
<g id="XMLID_100_">
	<path id="XMLID_101_" class="st29" d="M169.3,112.8l0.8-0.2c0.3,1,0.6,2.1,1,3.1l-0.8,0.3C169.9,114.9,169.6,113.9,169.3,112.8z
		 M167.5,104.2l0.8-0.1c0.1,1.1,0.3,2.1,0.5,3.2l-0.8,0.1C167.8,106.4,167.6,105.3,167.5,104.2z M167.2,98.7c0-1.1,0.1-2.2,0.2-3.3
		l0.8,0.1c-0.1,1.1-0.2,2.1-0.2,3.2L167.2,98.7z M168.4,89.9c0.3-1.1,0.6-2.1,1-3.2l0.8,0.3c-0.4,1-0.7,2-1,3.1L168.4,89.9z
		 M171.8,81.8c0.5-0.9,1.2-1.9,1.8-2.8l0.7,0.5c-0.6,0.9-1.2,1.8-1.8,2.7L171.8,81.8z M177.1,74.7c0.8-0.8,1.6-1.6,2.4-2.3l0.5,0.6
		c-0.8,0.7-1.6,1.5-2.4,2.2L177.1,74.7z M183.9,69.1c0.9-0.6,1.8-1.2,2.8-1.8l0.4,0.7c-0.9,0.6-1.9,1.1-2.8,1.7L183.9,69.1z
		 M191.6,64.8c1.9-0.8,3.1-1.2,3.1-1.2l0.2,0.8c0,0-1.2,0.4-3,1.2L191.6,64.8z"/>
</g>
<g id="XMLID_93_">
	<path id="XMLID_94_" class="st29" d="M121.1,160.4l0.7-0.4c0.6,1,1.1,2,1.5,3l-0.8,0.3C122.2,162.3,121.7,161.3,121.1,160.4z
		 M115.4,154l0.5-0.6c0.9,0.7,1.7,1.5,2.5,2.2l-0.6,0.6C117.1,155.4,116.3,154.6,115.4,154z M108.1,149.4l0.3-0.7c1,0.5,2,1,2.9,1.5
		l-0.4,0.7C110.1,150.4,109.1,149.9,108.1,149.4z M99.9,146.5l0.2-0.8c1.1,0.3,2.1,0.6,3.2,1l-0.3,0.8
		C102,147.1,101,146.7,99.9,146.5z M91.4,144.8l0.1-0.8c0.1,0,1.3,0.1,3.3,0.5l-0.1,0.8C92.6,144.9,91.4,144.8,91.4,144.8z"/>
</g>
</svg>
