<?xml version="1.0" encoding="utf-8"?>
<!-- Generator: Adobe Illustrator 19.0.0, SVG Export Plug-In . SVG Version: 6.00 Build 0)  -->
<svg version="1.1" id="Layer_1" xmlns="http://www.w3.org/2000/svg" xmlns:xlink="http://www.w3.org/1999/xlink" x="0px" y="0px"
	 viewBox="0 0 246 216" style="enable-background:new 0 0 246 216;" xml:space="preserve">
<style type="text/css">
	.st0{fill:#FDBA12;}
	.st1{display:none;fill:none;stroke:#EF4137;stroke-width:24;stroke-miterlimit:10;}
	.st2{fill:#5A2369;}
	.st3{fill:url(#XMLID_185_);}
	.st4{display:none;}
	.st5{display:inline;fill:#5A2369;}
	.st6{display:inline;fill:#FDBA12;}
</style>
<g id="XMLID_1_">
	<path id="XMLID_13_" class="st0" d="M180.1,44.9c-5.6,2.4-10.7,6-14.9,10.3c-0.9,1-2.5,0.8-3.2-0.3c-8.1-12.3-22.1-20.4-37.9-20.4
		c-15.2,0-28.6,7.5-36.9,18.9c-0.8,1-2.3,1.2-3.2,0.2c-4.2-4.3-9.3-7.7-15-10.1c-1.3-0.5-1.7-2.1-0.9-3.2c12.6-17.2,33-28.4,56-28.4
		c23.6,0,44.4,11.8,56.9,29.7C181.7,42.9,181.3,44.4,180.1,44.9z"/>
	<circle id="XMLID_2_" class="st1" cx="124.5" cy="85.4" r="61.4"/>
	<path id="XMLID_116_" class="st2" d="M120.4,114.7c-1.3,6.5-2.9,13.8-4.2,20.4c-0.4,2.1-2.1,3.8-4.2,4.3
		c-11.5,2.8-22.4,4.1-33.3,7.7c-7.3,2.4-14.5,6-18.5,13.4c-3.9,7-2.7,15.2,2.7,18.9c7.4,4.9,15.2,2.6,20.3-3.5
		c5.8-6.8,6.5-15.5,7.8-23.8c0.4-2.7,1.2-3.7,3.8-4c4.8-0.7,9.6-1.6,14.6-2.5c1.5-0.3,3-0.5,4.6-0.8c0.9-0.2,1.7,0.6,1.7,1.5
		c-0.8,19.2-3.9,36.7-18.7,50.1c-11.7,10.6-30.6,12.8-45.1,5.2c-12-6.3-19.7-22.2-17.8-37.3c2-16.5,11.6-27.4,25.8-35.3
		c14.6-8.1,28.5-10.9,48.1-14.3c4.2-0.7,7.9-1.2,10.7-1.6C119.8,112.9,120.6,113.7,120.4,114.7z"/>
	<path id="XMLID_3_" class="st2" d="M126.6,114.7c1.3,6.5,2.9,13.8,4.2,20.4c0.4,2.1,2.1,3.8,4.2,4.3c11.5,2.8,22.4,4.1,33.3,7.7
		c7.3,2.4,14.5,6,18.5,13.4c3.9,7,2.7,15.2-2.7,18.9c-7.4,4.9-15.2,2.6-20.3-3.5c-5.8-6.8-6.5-15.5-7.8-23.8c-0.4-2.7-1.2-3.7-3.8-4
		c-4.8-0.7-9.6-1.6-14.6-2.5c-1.5-0.3-3-0.5-4.6-0.8c-0.9-0.2-1.7,0.6-1.7,1.5c0.8,19.2,3.9,36.7,18.7,50.1
		c11.7,10.6,30.6,12.8,45.1,5.2c12-6.3,19.7-22.2,17.8-37.3c-2-16.5-11.6-27.4-25.8-35.3c-14.6-8.1-28.5-10.9-48.1-14.3
		c-4.2-0.7-7.9-1.2-10.7-1.6C127.2,112.9,126.4,113.7,126.6,114.7z"/>
	<linearGradient id="XMLID_185_" gradientUnits="userSpaceOnUse" x1="132.9518" y1="83.0997" x2="239.7421" y2="83.0997">
		<stop  offset="0" style="stop-color:#5A2669"/>
		<stop  offset="1" style="stop-color:#5A2669"/>
	</linearGradient>
	<path id="XMLID_4_" class="st3" d="M134.2,109.1c6.6,1,13.9,2.2,20.6,3.2c2.1,0.3,4.3-0.6,5.5-2.4c6.6-9.8,11.8-19.5,18.9-28.4
		c4.8-6,10.7-11.4,19-12.6c7.9-1.2,15.2,2.8,16.7,9.2c2,8.6-2.9,15.1-10.5,17.8c-8.4,3-16.8,0.6-25-1c-2.7-0.5-3.9-0.1-5.1,2.1
		c-2.4,4.3-4.9,8.4-7.5,12.8c-0.8,1.3-1.6,2.7-2.4,4c-0.5,0.8-0.1,1.8,0.8,2.1c18.2,6,35.7,9.3,53.5,0.1c14-7.2,22.7-24.1,20.8-40.4
		c-1.6-13.4-13.8-26.2-28.6-29.8c-16.2-3.9-29.7,1.2-42.2,11.7c-12.8,10.8-20.3,22.8-30.3,40c-2.2,3.7-3.9,7-5.3,9.5
		C132.7,107.9,133.2,108.9,134.2,109.1z"/>
	<path id="XMLID_5_" class="st2" d="M60.2,45.2c7,2.1,13.5,6,19.7,11.3c12.8,10.8,20.3,22.8,30.3,40c2.2,3.7,3.9,7,5.3,9.5
		c0.5,0.9-0.1,1.9-1,2.1c-6.6,1-13.9,2.2-20.6,3.2c-2.1,0.3-4.3-0.6-5.5-2.4c-6.6-9.8-11.8-19.5-18.9-28.4c-4.8-6-10.7-11.4-19-12.6
		c-7.9-1.2-15.2,2.8-16.7,9.2c-2,8.6,2.9,15.1,10.5,17.8c8.4,3,16.8,0.6,25-1c2.7-0.5,3.9-0.1,5.1,2.1c2.4,4.3,4.9,8.4,7.5,12.8
		c0.8,1.3,1.6,2.7,2.4,4c0.5,0.8,0.1,1.8-0.8,2.1c-18.2,6-35.7,9.3-53.5,0.1c-14-7.2-22.7-24.1-20.8-40.4
		c1.6-13.4,13.8-26.2,28.6-29.8C45.8,42.8,53.2,43.1,60.2,45.2"/>
</g>
<g id="XMLID_9_" class="st4">
	<path id="XMLID_10_" class="st5" d="M171.7,157.3c-2.1,1.2-4.1,1.7-6.1,1.7c-3.3,0-6.1-0.9-8.3-2.7c-2.3-1.9-3.5-4.3-3.5-7.3v-10
		c0-3,1-5.4,3.1-7.2c2.1-1.9,5-2.8,8.5-2.8c1,0,2.6,0.2,4.7,0.6c2.1,0.4,3.8,0.6,5,0.6c2.1,0,3.8-0.4,5.3-1.1v28.3
		c0,3.4-1.1,6.4-3.2,9.1c-2,2.4-4.7,4.3-8,5.5c-2.7,1-5.5,1.5-8.3,1.5c-0.6,0-1.2,0-1.8-0.1c-3.6-0.3-6.8-1.3-9.5-3.1
		c-3.6-2.4-6.1-5.3-7.6-8.8c-0.9-2.2-1.4-4.5-1.4-7c0-1.4,0.2-2.9,0.5-4.4c0.9-4.1,2.7-6.6,5.4-7.4c-0.5,1.6-0.8,3.3-0.8,5.1v1
		c0,4.1,0.7,7.7,2.1,10.7c1.6,3.5,4.1,5.8,7.3,7c1.7,0.6,3.3,0.9,5,0.9c1.9,0,3.8-0.4,5.7-1.1c4-1.6,6-4.2,6-8V157.3z M166.1,122.9
		c0,0.4-0.2,0.8-0.7,1.1c-0.5,0.4-1.1,0.6-1.9,0.6h-5.6v-5c0-0.3,0.2-0.7,0.7-1.1c0.6-0.5,1.2-0.7,1.9-0.7h5.7V122.9z M171.7,135.1
		c-1.3-0.3-2.6-0.4-3.9-0.4c-1.9,0-3.3,0.4-4.1,1.3c-0.8,0.8-1.2,2.1-1.2,3.8v8.4c0,3.3,1.3,5,3.9,5c1.4,0,2.6-0.4,3.7-1.2
		c1.1-0.9,1.7-1.9,1.7-3.2V135.1z M177.6,122.9c0,0.4-0.2,0.8-0.7,1.1c-0.5,0.4-1.2,0.6-1.9,0.6h-5.6v-5c0-0.3,0.2-0.7,0.7-1.1
		c0.6-0.5,1.2-0.7,1.9-0.7h5.7V122.9z"/>
	<path id="XMLID_65_" class="st6" d="M176.9,124c0.5-0.3,0.7-0.7,0.7-1.1v-5.1h-5.7c-0.7,0-1.3,0.2-1.9,0.7
		c-0.5,0.4-0.7,0.8-0.7,1.1v5h5.6C175.7,124.6,176.3,124.4,176.9,124z"/>
	<path id="XMLID_66_" class="st6" d="M165.4,124c0.5-0.3,0.7-0.7,0.7-1.1v-5.1h-5.7c-0.7,0-1.3,0.2-1.9,0.7
		c-0.5,0.4-0.7,0.8-0.7,1.1v5h5.6C164.2,124.6,164.9,124.4,165.4,124z"/>
	<path id="XMLID_25_" class="st5" d="M195.2,154.9c0,1.6-1.5,2.8-4.5,3.4c-1.6,0.4-3,0.6-4.4,0.6v-37.1c0-1.6,1.5-2.8,4.5-3.4
		c1.6-0.3,3.1-0.5,4.4-0.5V154.9z"/>
	<path id="XMLID_28_" class="st5" d="M227.6,162.9c0,2.3-0.9,4.2-2.8,5.9c-1.8,1.6-4,2.7-6.6,3.3c-1.1,0.2-2.1,0.3-3.2,0.3
		c-1.5,0-3-0.3-4.5-0.8c-2.6-0.9-4.5-2.3-5.6-4.2c1.2,0.5,2.7,0.7,4.6,0.7c1.2,0,2.3-0.1,3.5-0.4c3.9-0.9,5.9-3.1,5.9-6.7v-4
		c-2.1,1.2-4.1,1.8-6.2,1.8c-3.3,0-6.1-0.9-8.3-2.7c-2.3-1.9-3.5-4.3-3.5-7.3v-10c0-3,1-5.4,3.1-7.2c2.1-1.9,5-2.8,8.5-2.8
		c1,0,2.6,0.2,4.7,0.6c2.1,0.4,3.8,0.6,5,0.6c2.1,0,3.8-0.4,5.3-1.1V162.9z M218.9,135.1c-1.3-0.3-2.6-0.4-3.9-0.4
		c-1.9,0-3.3,0.4-4.1,1.3c-0.8,0.8-1.2,2.1-1.2,3.8v8.4c0,3.3,1.3,5,3.9,5c1.4,0,2.6-0.4,3.7-1.2c1.1-0.9,1.7-1.9,1.7-3.2V135.1z"/>
	<path id="XMLID_31_" class="st5" d="M249.6,162.9c0,2.3-0.9,4.2-2.8,5.9c-1.8,1.6-4,2.7-6.6,3.3c-1.1,0.2-2.1,0.3-3.2,0.3
		c-1.5,0-3-0.3-4.5-0.8c-2.6-0.9-4.5-2.3-5.6-4.2c1.2,0.5,2.7,0.7,4.6,0.7c1.2,0,2.3-0.1,3.5-0.4c3.9-0.9,5.9-3.1,5.9-6.7v-32.7
		c1.3,0,2.7,0.2,4.3,0.6c2.9,0.7,4.4,1.8,4.4,3.4V162.9z"/>
</g>
<g id="XMLID_40_" class="st4">
	<path id="XMLID_48_" class="st5" d="M-157,140.3c-5.4,0-9.9-1.5-13.4-4.4c-3-2.6-4.9-5.9-5.7-10c-0.2-1.2-0.3-2.3-0.3-3.4
		c0-2.7,0.6-5.2,1.8-7.6c1.8-3.6,4.3-5.9,7.4-6.9c-1.8,3.6-2.7,7.3-2.7,11.1c0,1.8,0.2,3.6,0.7,5.4c1.6,6,5.7,9.1,12.3,9.1
		c3.8,0,6.4-0.8,7.8-2.4c1.2-1.3,1.9-3.6,1.9-6.7v-22.7c0-1.7,1.7-3,5-3.8c1.7-0.4,3.3-0.6,4.8-0.7v28c0,4.9-1.6,8.6-4.7,11.1
		C-145.5,138.9-150.4,140.3-157,140.3z M-152.1,92.1c0,0.5-0.3,0.9-0.8,1.3c-0.6,0.4-1.3,0.7-2.2,0.7h-6.3v-5.7
		c0-0.4,0.2-0.8,0.7-1.2c0.6-0.5,1.4-0.8,2.1-0.8h6.4V92.1z"/>
	<path id="XMLID_130_" class="st6" d="M-152.9,93.4c0.5-0.4,0.8-0.8,0.8-1.3v-5.7h-6.4c-0.8,0-1.5,0.3-2.1,0.8
		c-0.5,0.4-0.7,0.8-0.7,1.2v5.7h6.3C-154.2,94.1-153.5,93.8-152.9,93.4z"/>
	<path id="XMLID_63_" class="st5" d="M-123,124.4c-4.3,0-7.8-3.5-7.8-7.9v-33c0-1.8,1.6-3.1,4.9-3.8c1.7-0.4,3.3-0.6,4.8-0.6v33.3
		c0,2.9,2.3,5.3,5.2,5.3c0,0,0,0,0,0l3.2,0v6.7C-116.1,124.4-119.6,124.4-123,124.4z"/>
	<path id="XMLID_67_" class="st5" d="M-114.6,117.8h16.2v6.7h-16.2V117.8z"/>
	<path id="XMLID_70_" class="st5" d="M-100.3,117.8h16.2v6.7h-16.2V117.8z"/>
	<path id="XMLID_73_" class="st5" d="M-76.6,117.8c3.5,0,5.3-1.7,5.3-5V95.5c0-1.7,1.7-3,5-3.8c1.7-0.4,3.3-0.6,4.8-0.7v22.7
		c0,3.8-1.5,6.6-4.4,8.4c-2.4,1.5-5.7,2.2-9.7,2.2H-86v-6.7H-76.6z M-75.5,135.1c0,0.5-0.3,0.9-0.8,1.3c-0.6,0.4-1.3,0.7-2.1,0.7
		h-6.3v-5.6c0-0.4,0.3-0.8,0.8-1.2c0.6-0.5,1.3-0.8,2.1-0.8h6.4V135.1z M-62.6,135.1c0,0.5-0.3,0.9-0.8,1.3
		c-0.6,0.4-1.3,0.7-2.2,0.7h-6.3v-5.6c0-0.4,0.3-0.8,0.8-1.2c0.6-0.5,1.3-0.8,2.1-0.8h6.4V135.1z"/>
	<path id="XMLID_114_" class="st6" d="M-71.1,130.2c-0.5,0.4-0.8,0.9-0.8,1.2v5.6h6.3c0.9,0,1.6-0.2,2.2-0.7
		c0.5-0.4,0.8-0.8,0.8-1.3v-5.7H-69C-69.8,129.4-70.5,129.6-71.1,130.2z"/>
	<path id="XMLID_115_" class="st6" d="M-84,130.2c-0.5,0.4-0.8,0.9-0.8,1.2v5.6h6.3c0.9,0,1.6-0.2,2.1-0.7c0.5-0.4,0.8-0.8,0.8-1.3
		v-5.7h-6.4C-82.6,129.4-83.3,129.6-84,130.2z"/>
	<path id="XMLID_77_" class="st5" d="M-37,129.6c0,2.5-1,4.8-3.1,6.7c-2,1.8-4.4,3.1-7.4,3.7c-1.2,0.3-2.4,0.4-3.6,0.4
		c-1.7,0-3.4-0.3-5-0.9c-3-1.1-5-2.6-6.2-4.7c1.3,0.5,3,0.8,5.2,0.8c1.3,0,2.6-0.1,3.9-0.4c4.4-1,6.6-3.5,6.6-7.5V91
		c1.4,0,3,0.2,4.8,0.6c3.3,0.7,4.9,2,4.9,3.8V129.6z M-37.5,83.7c0,0.5-0.3,0.9-0.8,1.3c-0.6,0.4-1.3,0.7-2.2,0.7h-6.3V80
		c0-0.4,0.2-0.8,0.7-1.2c0.6-0.5,1.4-0.8,2.1-0.8h6.4V83.7z"/>
	<path id="XMLID_125_" class="st6" d="M-38.3,85c0.5-0.4,0.8-0.8,0.8-1.3V78h-6.4c-0.8,0-1.5,0.3-2.1,0.8c-0.5,0.4-0.7,0.8-0.7,1.2
		v5.7h6.3C-39.6,85.6-38.8,85.4-38.3,85z"/>
	<path id="XMLID_89_" class="st5" d="M-17.3,85.5c0,0.4-0.1,0.9-0.2,1.3c-0.3,0.9-0.9,1.3-1.7,1.3h-7.6c-0.8,0-1.4-0.4-1.7-1.3
		c-0.2-0.4-0.2-0.8-0.2-1.3h3.1c-0.3-0.2-0.6-0.4-0.9-0.7c-0.9-0.7-1.4-1.6-1.4-2.5c0-0.1,0-0.2,0-0.3c0-1.2,0.5-2.2,1.4-2.9
		c1-0.7,2.3-1,4.1-1c1.3,0,2.4,0.3,3.2,0.8c0.8,0.5,1.2,1.2,1.2,1.9c0,0.6-0.2,1.2-0.7,1.9c0-0.6-0.3-1-1-1.4
		c-0.6-0.4-1.5-0.6-2.5-0.6c-1.3,0-2,0.6-2.1,1.7v0.2c0,1,0.5,1.8,1.4,2.3c0.7,0.4,1.6,0.6,2.9,0.7H-17.3z M-18,135.6
		c0,1.9-1.7,3.3-5.1,4.1c-1.8,0.4-3.4,0.7-4.9,0.7V96.2c0-1.9,1.7-3.3,5.1-4.1c1.8-0.4,3.4-0.6,4.9-0.6V135.6z"/>
</g>
<text id="XMLID_7_" transform="matrix(1 0 0 1 -160.5146 180.955)" style="display:none;fill:#565656; font-family:'STC-Bold'; font-size:40.5595px;">Azian</text>
</svg>
