<?xml version="1.0" encoding="utf-8"?>
<!-- Generator: Adobe Illustrator 19.0.0, SVG Export Plug-In . SVG Version: 6.00 Build 0)  -->
<svg version="1.1" id="Layer_1" xmlns="http://www.w3.org/2000/svg" xmlns:xlink="http://www.w3.org/1999/xlink" x="0px" y="0px"
	 viewBox="654 -244 1920 1281" style="enable-background:new 654 -244 1920 1281;" xml:space="preserve">
<style type="text/css">
	.st0{opacity:0.33;}
	.st1{fill:none;stroke:#FFFFFF;stroke-width:0.5;stroke-miterlimit:10;}
	.st2{display:none;opacity:7.000000e-002;fill:#FFFFFF;}
	.st3{opacity:2.000000e-002;fill:#FFFFFF;enable-background:new    ;}
</style>
<g id="XMLID_103_" class="st0">
	<g id="XMLID_213_">
		<path id="XMLID_485_" class="st1" d="M2251-195.8c2.4,2,5,4.2,7.4,6.2c0.8,0.6,1.1,1.7,0.8,2.6c-1.4,5.3-3.3,10.1-4.2,15.3
			c-0.6,3.5-0.7,7.2,1.4,10.5c2,3.1,5.6,4.5,8.3,3.1c3.6-1.9,4.4-5.6,3.1-9.1c-1.5-3.9-4.9-6.1-8-8.5c-1-0.8-1.2-1.3-0.8-2.4
			c0.8-2.1,1.5-4.3,2.2-6.5c0.2-0.7,0.5-1.4,0.7-2.1c0.1-0.4,0.6-0.6,1-0.4c7.7,4.6,14.1,9.7,16.3,18.7c1.7,7.1-1.5,15.3-7.9,19.6
			c-5.2,3.5-13.4,3.1-19.2-1c-6.3-4.5-8.6-10.8-8.7-18.4c-0.1-7.8,1.8-14.1,4.8-22.8c0.6-1.9,1.2-3.5,1.7-4.7
			C2250.1-196,2250.6-196.1,2251-195.8z"/>
		<path id="XMLID_478_" class="st1" d="M2272-183.9c-2.4-2-5-4.2-7.4-6.2c-0.8-0.6-1.1-1.7-0.8-2.6c1.4-5.3,3.3-10.1,4.2-15.3
			c0.6-3.5,0.7-7.2-1.4-10.5c-2-3.1-5.6-4.5-8.3-3.1c-3.6,1.9-4.4,5.6-3.1,9.1c1.5,3.9,4.9,6.1,8,8.5c1,0.8,1.2,1.3,0.8,2.4
			c-0.8,2.1-1.5,4.3-2.2,6.5c-0.2,0.7-0.5,1.4-0.7,2.1c-0.1,0.4-0.6,0.6-1,0.4c-7.7-4.6-14.1-9.7-16.3-18.7
			c-1.7-7.1,1.5-15.3,7.9-19.6c5.2-3.5,13.4-3.1,19.2,1c6.3,4.5,8.6,10.8,8.7,18.4c0.1,7.8-1.8,14.1-4.8,22.8
			c-0.6,1.9-1.2,3.5-1.7,4.7C2272.8-183.7,2272.3-183.6,2272-183.9z"/>
	</g>
	<g id="XMLID_205_">
		<path id="XMLID_472_" class="st1" d="M2251-105.1c2.4,2,5,4.2,7.4,6.2c0.8,0.6,1.1,1.7,0.8,2.6c-1.4,5.3-3.3,10.1-4.2,15.3
			c-0.6,3.5-0.7,7.2,1.4,10.5c2,3.1,5.6,4.5,8.3,3.1c3.6-1.9,4.4-5.6,3.1-9.1c-1.5-3.9-4.9-6.1-8-8.5c-1-0.8-1.2-1.3-0.8-2.4
			c0.8-2.1,1.5-4.3,2.2-6.5c0.2-0.7,0.5-1.4,0.7-2.1c0.1-0.4,0.6-0.6,1-0.4c7.7,4.6,14.1,9.7,16.3,18.7c1.7,7.1-1.5,15.3-7.9,19.6
			c-5.2,3.5-13.4,3.1-19.2-1c-6.3-4.5-8.6-10.8-8.7-18.4c-0.1-7.8,1.8-14.1,4.8-22.8c0.6-1.9,1.2-3.5,1.7-4.7
			C2250.1-105.3,2250.6-105.4,2251-105.1z"/>
		<path id="XMLID_467_" class="st1" d="M2272-93.2c-2.4-2-5-4.2-7.4-6.2c-0.8-0.6-1.1-1.7-0.8-2.6c1.4-5.3,3.3-10.1,4.2-15.3
			c0.6-3.5,0.7-7.2-1.4-10.5c-2-3.1-5.6-4.5-8.3-3.1c-3.6,1.9-4.4,5.6-3.1,9.1c1.5,3.9,4.9,6.1,8,8.5c1,0.8,1.2,1.3,0.8,2.4
			c-0.8,2.1-1.5,4.3-2.2,6.5c-0.2,0.7-0.5,1.4-0.7,2.1c-0.1,0.4-0.6,0.6-1,0.4c-7.7-4.6-14.1-9.7-16.3-18.7
			c-1.7-7.1,1.5-15.3,7.9-19.6c5.2-3.5,13.4-3.1,19.2,1c6.3,4.5,8.6,10.8,8.7,18.4c0.1,7.8-1.8,14.1-4.8,22.8
			c-0.6,1.9-1.2,3.5-1.7,4.7C2272.8-93,2272.3-92.9,2272-93.2z"/>
	</g>
	<g id="XMLID_197_">
		<path id="XMLID_463_" class="st1" d="M2251-13.3c2.4,2,5,4.2,7.4,6.2c0.8,0.6,1.1,1.7,0.8,2.6c-1.4,5.3-3.3,10.1-4.2,15.3
			c-0.6,3.5-0.7,7.2,1.4,10.5c2,3.1,5.6,4.5,8.3,3.1c3.6-1.9,4.4-5.6,3.1-9.1c-1.5-3.9-4.9-6.1-8-8.5c-1-0.8-1.2-1.3-0.8-2.4
			c0.8-2.1,1.5-4.3,2.2-6.5c0.2-0.7,0.5-1.4,0.7-2.1c0.1-0.4,0.6-0.6,1-0.4c7.7,4.6,14.1,9.7,16.3,18.7c1.7,7.1-1.5,15.3-7.9,19.6
			c-5.2,3.5-13.4,3.1-19.2-1c-6.3-4.5-8.6-10.8-8.7-18.4c-0.1-7.8,1.8-14.1,4.8-22.8c0.6-1.9,1.2-3.5,1.7-4.7
			C2250.1-13.4,2250.6-13.6,2251-13.3z"/>
		<path id="XMLID_458_" class="st1" d="M2272-1.3c-2.4-2-5-4.2-7.4-6.2c-0.8-0.6-1.1-1.7-0.8-2.6c1.4-5.3,3.3-10.1,4.2-15.3
			c0.6-3.5,0.7-7.2-1.4-10.5c-2-3.1-5.6-4.5-8.3-3.1c-3.6,1.9-4.4,5.6-3.1,9.1c1.5,3.9,4.9,6.1,8,8.5c1,0.8,1.2,1.3,0.8,2.4
			c-0.8,2.1-1.5,4.3-2.2,6.5c-0.2,0.7-0.5,1.4-0.7,2.1c-0.1,0.4-0.6,0.6-1,0.4c-7.7-4.6-14.1-9.7-16.3-18.7
			c-1.7-7.1,1.5-15.3,7.9-19.6c5.2-3.5,13.4-3.1,19.2,1c6.3,4.5,8.6,10.8,8.7,18.4c0.1,7.8-1.8,14.1-4.8,22.8
			c-0.6,1.9-1.2,3.5-1.7,4.7C2272.8-1.2,2272.3-1,2272-1.3z"/>
	</g>
	<g id="XMLID_188_">
		<path id="XMLID_454_" class="st1" d="M2251,77.4c2.4,2,5,4.2,7.4,6.2c0.8,0.6,1.1,1.7,0.8,2.6c-1.4,5.3-3.3,10.1-4.2,15.3
			c-0.6,3.5-0.7,7.2,1.4,10.5c2,3.1,5.6,4.5,8.3,3.1c3.6-1.9,4.4-5.6,3.1-9.1c-1.5-3.9-4.9-6.1-8-8.5c-1-0.8-1.2-1.3-0.8-2.4
			c0.8-2.1,1.5-4.3,2.2-6.5c0.2-0.7,0.5-1.4,0.7-2.1c0.1-0.4,0.6-0.6,1-0.4c7.7,4.6,14.1,9.7,16.3,18.7c1.7,7.1-1.5,15.3-7.9,19.6
			c-5.2,3.5-13.4,3.1-19.2-1c-6.3-4.5-8.6-10.8-8.7-18.4c-0.1-7.8,1.8-14.1,4.8-22.8c0.6-1.9,1.2-3.5,1.7-4.7
			C2250.1,77.3,2250.6,77.1,2251,77.4z"/>
		<path id="XMLID_441_" class="st1" d="M2272,89.4c-2.4-2-5-4.2-7.4-6.2c-0.8-0.6-1.1-1.7-0.8-2.6c1.4-5.3,3.3-10.1,4.2-15.3
			c0.6-3.5,0.7-7.2-1.4-10.5c-2-3.1-5.6-4.5-8.3-3.1c-3.6,1.9-4.4,5.6-3.1,9.1c1.5,3.9,4.9,6.1,8,8.5c1,0.8,1.2,1.3,0.8,2.4
			c-0.8,2.1-1.5,4.3-2.2,6.5c-0.2,0.7-0.5,1.4-0.7,2.1c-0.1,0.4-0.6,0.6-1,0.4c-7.7-4.6-14.1-9.7-16.3-18.7
			c-1.7-7.1,1.5-15.3,7.9-19.6c5.2-3.5,13.4-3.1,19.2,1c6.3,4.5,8.6,10.8,8.7,18.4c0.1,7.8-1.8,14.1-4.8,22.8
			c-0.6,1.9-1.2,3.5-1.7,4.7C2272.8,89.5,2272.3,89.7,2272,89.4z"/>
	</g>
	<g id="XMLID_178_">
		<path id="XMLID_427_" class="st1" d="M2251,168.1c2.4,2,5,4.2,7.4,6.2c0.8,0.6,1.1,1.7,0.8,2.6c-1.4,5.3-3.3,10.1-4.2,15.3
			c-0.6,3.5-0.7,7.2,1.4,10.5c2,3.1,5.6,4.5,8.3,3.1c3.6-1.9,4.4-5.6,3.1-9.1c-1.5-3.9-4.9-6.1-8-8.5c-1-0.8-1.2-1.3-0.8-2.4
			c0.8-2.1,1.5-4.3,2.2-6.5c0.2-0.7,0.5-1.4,0.7-2.1c0.1-0.4,0.6-0.6,1-0.4c7.7,4.6,14.1,9.7,16.3,18.7c1.7,7.1-1.5,15.3-7.9,19.6
			c-5.2,3.5-13.4,3.1-19.2-1c-6.3-4.5-8.6-10.8-8.7-18.4c-0.1-7.8,1.8-14.1,4.8-22.8c0.6-1.9,1.2-3.5,1.7-4.7
			C2250.1,168,2250.6,167.8,2251,168.1z"/>
		<path id="XMLID_413_" class="st1" d="M2272,180.1c-2.4-2-5-4.2-7.4-6.2c-0.8-0.6-1.1-1.7-0.8-2.6c1.4-5.3,3.3-10.1,4.2-15.3
			c0.6-3.5,0.7-7.2-1.4-10.5c-2-3.1-5.6-4.5-8.3-3.1c-3.6,1.9-4.4,5.6-3.1,9.1c1.5,3.9,4.9,6.1,8,8.5c1,0.8,1.2,1.3,0.8,2.4
			c-0.8,2.1-1.5,4.3-2.2,6.5c-0.2,0.7-0.5,1.4-0.7,2.1c-0.1,0.4-0.6,0.6-1,0.4c-7.7-4.6-14.1-9.7-16.3-18.7
			c-1.7-7.1,1.5-15.3,7.9-19.6c5.2-3.5,13.4-3.1,19.2,1c6.3,4.5,8.6,10.8,8.7,18.4c0.1,7.8-1.8,14.1-4.8,22.8
			c-0.6,1.9-1.2,3.5-1.7,4.7C2272.8,180.2,2272.3,180.4,2272,180.1z"/>
	</g>
	<g id="XMLID_170_">
		<path id="XMLID_397_" class="st1" d="M2251,258.8c2.4,2,5,4.2,7.4,6.2c0.8,0.6,1.1,1.7,0.8,2.6c-1.4,5.3-3.3,10.1-4.2,15.3
			c-0.6,3.5-0.7,7.2,1.4,10.5c2,3.1,5.6,4.5,8.3,3.1c3.6-1.9,4.4-5.6,3.1-9.1c-1.5-3.9-4.9-6.1-8-8.5c-1-0.8-1.2-1.3-0.8-2.4
			c0.8-2.1,1.5-4.3,2.2-6.5c0.2-0.7,0.5-1.4,0.7-2.1c0.1-0.4,0.6-0.6,1-0.4c7.7,4.6,14.1,9.7,16.3,18.7c1.7,7.1-1.5,15.3-7.9,19.6
			c-5.2,3.5-13.4,3.1-19.2-1c-6.3-4.5-8.6-10.8-8.7-18.4c-0.1-7.8,1.8-14.1,4.8-22.8c0.6-1.9,1.2-3.5,1.7-4.7
			C2250.1,258.7,2250.6,258.5,2251,258.8z"/>
		<path id="XMLID_375_" class="st1" d="M2272,270.8c-2.4-2-5-4.2-7.4-6.2c-0.8-0.6-1.1-1.7-0.8-2.6c1.4-5.3,3.3-10.1,4.2-15.3
			c0.6-3.5,0.7-7.2-1.4-10.5c-2-3.1-5.6-4.5-8.3-3.1c-3.6,1.9-4.4,5.6-3.1,9.1c1.5,3.9,4.9,6.1,8,8.5c1,0.8,1.2,1.3,0.8,2.4
			c-0.8,2.1-1.5,4.3-2.2,6.5c-0.2,0.7-0.5,1.4-0.7,2.1c-0.1,0.4-0.6,0.6-1,0.4c-7.7-4.6-14.1-9.7-16.3-18.7
			c-1.7-7.1,1.5-15.3,7.9-19.6c5.2-3.5,13.4-3.1,19.2,1c6.3,4.5,8.6,10.8,8.7,18.4c0.1,7.8-1.8,14.1-4.8,22.8
			c-0.6,1.9-1.2,3.5-1.7,4.7C2272.8,270.9,2272.3,271.1,2272,270.8z"/>
	</g>
	<g id="XMLID_160_">
		<path id="XMLID_348_" class="st1" d="M2251,350.7c2.4,2,5,4.2,7.4,6.2c0.8,0.6,1.1,1.7,0.8,2.6c-1.4,5.3-3.3,10.1-4.2,15.3
			c-0.6,3.5-0.7,7.2,1.4,10.5c2,3.1,5.6,4.5,8.3,3.1c3.6-1.9,4.4-5.6,3.1-9.1c-1.5-3.9-4.9-6.1-8-8.5c-1-0.8-1.2-1.3-0.8-2.4
			c0.8-2.1,1.5-4.3,2.2-6.5c0.2-0.7,0.5-1.4,0.7-2.1c0.1-0.4,0.6-0.6,1-0.4c7.7,4.6,14.1,9.7,16.3,18.7c1.7,7.1-1.5,15.3-7.9,19.6
			c-5.2,3.5-13.4,3.1-19.2-1c-6.3-4.5-8.6-10.8-8.7-18.4c-0.1-7.8,1.8-14.1,4.8-22.8c0.6-1.9,1.2-3.5,1.7-4.7
			C2250.1,350.5,2250.6,350.4,2251,350.7z"/>
		<path id="XMLID_340_" class="st1" d="M2272,362.6c-2.4-2-5-4.2-7.4-6.2c-0.8-0.6-1.1-1.7-0.8-2.6c1.4-5.3,3.3-10.1,4.2-15.3
			c0.6-3.5,0.7-7.2-1.4-10.5c-2-3.1-5.6-4.5-8.3-3.1c-3.6,1.9-4.4,5.6-3.1,9.1c1.5,3.9,4.9,6.1,8,8.5c1,0.8,1.2,1.3,0.8,2.4
			c-0.8,2.1-1.5,4.3-2.2,6.5c-0.2,0.7-0.5,1.4-0.7,2.1c-0.1,0.4-0.6,0.6-1,0.4c-7.7-4.6-14.1-9.7-16.3-18.7
			c-1.7-7.1,1.5-15.3,7.9-19.6c5.2-3.5,13.4-3.1,19.2,1c6.3,4.5,8.6,10.8,8.7,18.4c0.1,7.8-1.8,14.1-4.8,22.8
			c-0.6,1.9-1.2,3.5-1.7,4.7C2272.8,362.8,2272.3,362.9,2272,362.6z"/>
	</g>
	<g id="XMLID_151_">
		<path id="XMLID_333_" class="st1" d="M2251,441.4c2.4,2,5,4.2,7.4,6.2c0.8,0.6,1.1,1.7,0.8,2.6c-1.4,5.3-3.3,10.1-4.2,15.3
			c-0.6,3.5-0.7,7.2,1.4,10.5c2,3.1,5.6,4.5,8.3,3.1c3.6-1.9,4.4-5.6,3.1-9.1c-1.5-3.9-4.9-6.1-8-8.5c-1-0.8-1.2-1.3-0.8-2.4
			c0.8-2.1,1.5-4.3,2.2-6.5c0.2-0.7,0.5-1.4,0.7-2.1c0.1-0.4,0.6-0.6,1-0.4c7.7,4.6,14.1,9.7,16.3,18.7c1.7,7.1-1.5,15.3-7.9,19.6
			c-5.2,3.5-13.4,3.1-19.2-1c-6.3-4.5-8.6-10.8-8.7-18.4c-0.1-7.8,1.8-14.1,4.8-22.8c0.6-1.9,1.2-3.5,1.7-4.7
			C2250.1,441.2,2250.6,441.1,2251,441.4z"/>
		<path id="XMLID_326_" class="st1" d="M2272,453.3c-2.4-2-5-4.2-7.4-6.2c-0.8-0.6-1.1-1.7-0.8-2.6c1.4-5.3,3.3-10.1,4.2-15.3
			c0.6-3.5,0.7-7.2-1.4-10.5c-2-3.1-5.6-4.5-8.3-3.1c-3.6,1.9-4.4,5.6-3.1,9.1c1.5,3.9,4.9,6.1,8,8.5c1,0.8,1.2,1.3,0.8,2.4
			c-0.8,2.1-1.5,4.3-2.2,6.5c-0.2,0.7-0.5,1.4-0.7,2.1c-0.1,0.4-0.6,0.6-1,0.4c-7.7-4.6-14.1-9.7-16.3-18.7
			c-1.7-7.1,1.5-15.3,7.9-19.6c5.2-3.5,13.4-3.1,19.2,1c6.3,4.5,8.6,10.8,8.7,18.4c0.1,7.8-1.8,14.1-4.8,22.8
			c-0.6,1.9-1.2,3.5-1.7,4.7C2272.8,453.5,2272.3,453.6,2272,453.3z"/>
	</g>
	<g id="XMLID_143_">
		<path id="XMLID_318_" class="st1" d="M2251,532.1c2.4,2,5,4.2,7.4,6.2c0.8,0.6,1.1,1.7,0.8,2.6c-1.4,5.3-3.3,10.1-4.2,15.3
			c-0.6,3.5-0.7,7.2,1.4,10.5c2,3.1,5.6,4.5,8.3,3.1c3.6-1.9,4.4-5.6,3.1-9.1c-1.5-3.9-4.9-6.1-8-8.5c-1-0.8-1.2-1.3-0.8-2.4
			c0.8-2.1,1.5-4.3,2.2-6.5c0.2-0.7,0.5-1.4,0.7-2.1c0.1-0.4,0.6-0.6,1-0.4c7.7,4.6,14.1,9.7,16.3,18.7c1.7,7.1-1.5,15.3-7.9,19.6
			c-5.2,3.5-13.4,3.1-19.2-1c-6.3-4.5-8.6-10.8-8.7-18.4c-0.1-7.8,1.8-14.1,4.8-22.8c0.6-1.9,1.2-3.5,1.7-4.7
			C2250.1,531.9,2250.6,531.8,2251,532.1z"/>
		<path id="XMLID_312_" class="st1" d="M2272,544c-2.4-2-5-4.2-7.4-6.2c-0.8-0.6-1.1-1.7-0.8-2.6c1.4-5.3,3.3-10.1,4.2-15.3
			c0.6-3.5,0.7-7.2-1.4-10.5c-2-3.1-5.6-4.5-8.3-3.1c-3.6,1.9-4.4,5.6-3.1,9.1c1.5,3.9,4.9,6.1,8,8.5c1,0.8,1.2,1.3,0.8,2.4
			c-0.8,2.1-1.5,4.3-2.2,6.5c-0.2,0.7-0.5,1.4-0.7,2.1c-0.1,0.4-0.6,0.6-1,0.4c-7.7-4.6-14.1-9.7-16.3-18.7
			c-1.7-7.1,1.5-15.3,7.9-19.6c5.2-3.5,13.4-3.1,19.2,1c6.3,4.5,8.6,10.8,8.7,18.4c0.1,7.8-1.8,14.1-4.8,22.8
			c-0.6,1.9-1.2,3.5-1.7,4.7C2272.8,544.2,2272.3,544.3,2272,544z"/>
	</g>
	<g id="XMLID_135_">
		<path id="XMLID_306_" class="st1" d="M2251,622.8c2.4,2,5,4.2,7.4,6.2c0.8,0.6,1.1,1.7,0.8,2.6c-1.4,5.3-3.3,10.1-4.2,15.3
			c-0.6,3.5-0.7,7.2,1.4,10.5c2,3.1,5.6,4.5,8.3,3.1c3.6-1.9,4.4-5.6,3.1-9.1c-1.5-3.9-4.9-6.1-8-8.5c-1-0.8-1.2-1.3-0.8-2.4
			c0.8-2.1,1.5-4.3,2.2-6.5c0.2-0.7,0.5-1.4,0.7-2.1c0.1-0.4,0.6-0.6,1-0.4c7.7,4.6,14.1,9.7,16.3,18.7c1.7,7.1-1.5,15.3-7.9,19.6
			c-5.2,3.5-13.4,3.1-19.2-1c-6.3-4.5-8.6-10.8-8.7-18.4c-0.1-7.8,1.8-14.1,4.8-22.8c0.6-1.9,1.2-3.5,1.7-4.7
			C2250.1,622.6,2250.6,622.5,2251,622.8z"/>
		<path id="XMLID_300_" class="st1" d="M2272,634.7c-2.4-2-5-4.2-7.4-6.2c-0.8-0.6-1.1-1.7-0.8-2.6c1.4-5.3,3.3-10.1,4.2-15.3
			c0.6-3.5,0.7-7.2-1.4-10.5c-2-3.1-5.6-4.5-8.3-3.1c-3.6,1.9-4.4,5.6-3.1,9.1c1.5,3.9,4.9,6.1,8,8.5c1,0.8,1.2,1.3,0.8,2.4
			c-0.8,2.1-1.5,4.3-2.2,6.5c-0.2,0.7-0.5,1.4-0.7,2.1c-0.1,0.4-0.6,0.6-1,0.4c-7.7-4.6-14.1-9.7-16.3-18.7
			c-1.7-7.1,1.5-15.3,7.9-19.6c5.2-3.5,13.4-3.1,19.2,1c6.3,4.5,8.6,10.8,8.7,18.4c0.1,7.8-1.8,14.1-4.8,22.8
			c-0.6,1.9-1.2,3.5-1.7,4.7C2272.8,634.9,2272.3,635,2272,634.7z"/>
	</g>
	<g id="XMLID_127_">
		<path id="XMLID_292_" class="st1" d="M2251,714.6c2.4,2,5,4.2,7.4,6.2c0.8,0.6,1.1,1.7,0.8,2.6c-1.4,5.3-3.3,10.1-4.2,15.3
			c-0.6,3.5-0.7,7.2,1.4,10.5c2,3.1,5.6,4.5,8.3,3.1c3.6-1.9,4.4-5.6,3.1-9.1c-1.5-3.9-4.9-6.1-8-8.5c-1-0.8-1.2-1.3-0.8-2.4
			c0.8-2.1,1.5-4.3,2.2-6.5c0.2-0.7,0.5-1.4,0.7-2.1c0.1-0.4,0.6-0.6,1-0.4c7.7,4.6,14.1,9.7,16.3,18.7c1.7,7.1-1.5,15.3-7.9,19.6
			c-5.2,3.5-13.4,3.1-19.2-1c-6.3-4.5-8.6-10.8-8.7-18.4c-0.1-7.8,1.8-14.1,4.8-22.8c0.6-1.9,1.2-3.5,1.7-4.7
			C2250.1,714.5,2250.6,714.4,2251,714.6z"/>
		<path id="XMLID_288_" class="st1" d="M2272,726.6c-2.4-2-5-4.2-7.4-6.2c-0.8-0.6-1.1-1.7-0.8-2.6c1.4-5.3,3.3-10.1,4.2-15.3
			c0.6-3.5,0.7-7.2-1.4-10.5c-2-3.1-5.6-4.5-8.3-3.1c-3.6,1.9-4.4,5.6-3.1,9.1c1.5,3.9,4.9,6.1,8,8.5c1,0.8,1.2,1.3,0.8,2.4
			c-0.8,2.1-1.5,4.3-2.2,6.5c-0.2,0.7-0.5,1.4-0.7,2.1c-0.1,0.4-0.6,0.6-1,0.4c-7.7-4.6-14.1-9.7-16.3-18.7
			c-1.7-7.1,1.5-15.3,7.9-19.6c5.2-3.5,13.4-3.1,19.2,1c6.3,4.5,8.6,10.8,8.7,18.4c0.1,7.8-1.8,14.1-4.8,22.8
			c-0.6,1.9-1.2,3.5-1.7,4.7C2272.8,726.7,2272.3,726.9,2272,726.6z"/>
	</g>
	<g id="XMLID_119_">
		<path id="XMLID_284_" class="st1" d="M2251,806c2.4,2,5,4.2,7.4,6.2c0.8,0.6,1.1,1.7,0.8,2.6c-1.4,5.3-3.3,10.1-4.2,15.3
			c-0.6,3.5-0.7,7.2,1.4,10.5c2,3.1,5.6,4.5,8.3,3.1c3.6-1.9,4.4-5.6,3.1-9.1c-1.5-3.9-4.9-6.1-8-8.5c-1-0.8-1.2-1.3-0.8-2.4
			c0.8-2.1,1.5-4.3,2.2-6.5c0.2-0.7,0.5-1.4,0.7-2.1c0.1-0.4,0.6-0.6,1-0.4c7.7,4.6,14.1,9.7,16.3,18.7c1.7,7.1-1.5,15.3-7.9,19.6
			c-5.2,3.5-13.4,3.1-19.2-1c-6.3-4.5-8.6-10.8-8.7-18.4c-0.1-7.8,1.8-14.1,4.8-22.8c0.6-1.9,1.2-3.5,1.7-4.7
			C2250.1,805.8,2250.6,805.7,2251,806z"/>
		<path id="XMLID_276_" class="st1" d="M2272,818c-2.4-2-5-4.2-7.4-6.2c-0.8-0.6-1.1-1.7-0.8-2.6c1.4-5.3,3.3-10.1,4.2-15.3
			c0.6-3.5,0.7-7.2-1.4-10.5c-2-3.1-5.6-4.5-8.3-3.1c-3.6,1.9-4.4,5.6-3.1,9.1c1.5,3.9,4.9,6.1,8,8.5c1,0.8,1.2,1.3,0.8,2.4
			c-0.8,2.1-1.5,4.3-2.2,6.5c-0.2,0.7-0.5,1.4-0.7,2.1c-0.1,0.4-0.6,0.6-1,0.4c-7.7-4.6-14.1-9.7-16.3-18.7
			c-1.7-7.1,1.5-15.3,7.9-19.6c5.2-3.5,13.4-3.1,19.2,1c6.3,4.5,8.6,10.8,8.7,18.4c0.1,7.8-1.8,14.1-4.8,22.8
			c-0.6,1.9-1.2,3.5-1.7,4.7C2272.8,818.1,2272.3,818.2,2272,818z"/>
	</g>
	<g id="XMLID_112_">
		<path id="XMLID_272_" class="st1" d="M2251,896.7c2.4,2,5,4.2,7.4,6.2c0.8,0.6,1.1,1.7,0.8,2.6c-1.4,5.3-3.3,10.1-4.2,15.3
			c-0.6,3.5-0.7,7.2,1.4,10.5c2,3.1,5.6,4.5,8.3,3.1c3.6-1.9,4.4-5.6,3.1-9.1c-1.5-3.9-4.9-6.1-8-8.5c-1-0.8-1.2-1.3-0.8-2.4
			c0.8-2.1,1.5-4.3,2.2-6.5c0.2-0.7,0.5-1.4,0.7-2.1c0.1-0.4,0.6-0.6,1-0.4c7.7,4.6,14.1,9.7,16.3,18.7c1.7,7.1-1.5,15.3-7.9,19.6
			c-5.2,3.5-13.4,3.1-19.2-1c-6.3-4.5-8.6-10.8-8.7-18.4c-0.1-7.8,1.8-14.1,4.8-22.8c0.6-1.9,1.2-3.5,1.7-4.7
			C2250.1,896.5,2250.6,896.4,2251,896.7z"/>
		<path id="XMLID_268_" class="st1" d="M2272,908.6c-2.4-2-5-4.2-7.4-6.2c-0.8-0.6-1.1-1.7-0.8-2.6c1.4-5.3,3.3-10.1,4.2-15.3
			c0.6-3.5,0.7-7.2-1.4-10.5c-2-3.1-5.6-4.5-8.3-3.1c-3.6,1.9-4.4,5.6-3.1,9.1c1.5,3.9,4.9,6.1,8,8.5c1,0.8,1.2,1.3,0.8,2.4
			c-0.8,2.1-1.5,4.3-2.2,6.5c-0.2,0.7-0.5,1.4-0.7,2.1c-0.1,0.4-0.6,0.6-1,0.4c-7.7-4.6-14.1-9.7-16.3-18.7
			c-1.7-7.1,1.5-15.3,7.9-19.6c5.2-3.5,13.4-3.1,19.2,1c6.3,4.5,8.6,10.8,8.7,18.4c0.1,7.8-1.8,14.1-4.8,22.8
			c-0.6,1.9-1.2,3.5-1.7,4.7C2272.8,908.8,2272.3,908.9,2272,908.6z"/>
	</g>
	<g id="XMLID_104_">
		<path id="XMLID_260_" class="st1" d="M2251,988.6c2.4,2,5,4.2,7.4,6.2c0.8,0.6,1.1,1.7,0.8,2.6c-1.4,5.3-3.3,10.1-4.2,15.3
			c-0.6,3.5-0.7,7.2,1.4,10.5c2,3.1,5.6,4.5,8.3,3.1c3.6-1.9,4.4-5.6,3.1-9.1c-1.5-3.9-4.9-6.1-8-8.5c-1-0.8-1.2-1.3-0.8-2.4
			c0.8-2.1,1.5-4.3,2.2-6.5c0.2-0.7,0.5-1.4,0.7-2.1c0.1-0.4,0.6-0.6,1-0.4c7.7,4.6,14.1,9.7,16.3,18.7c1.7,7.1-1.5,15.3-7.9,19.6
			c-5.2,3.5-13.4,3.1-19.2-1c-6.3-4.5-8.6-10.8-8.7-18.4c-0.1-7.8,1.8-14.1,4.8-22.8c0.6-1.9,1.2-3.5,1.7-4.7
			C2250.1,988.4,2250.6,988.3,2251,988.6z"/>
		<path id="XMLID_256_" class="st1" d="M2272,1000.5c-2.4-2-5-4.2-7.4-6.2c-0.8-0.6-1.1-1.7-0.8-2.6c1.4-5.3,3.3-10.1,4.2-15.3
			c0.6-3.5,0.7-7.2-1.4-10.5c-2-3.1-5.6-4.5-8.3-3.1c-3.6,1.9-4.4,5.6-3.1,9.1c1.5,3.9,4.9,6.1,8,8.5c1,0.8,1.2,1.3,0.8,2.4
			c-0.8,2.1-1.5,4.3-2.2,6.5c-0.2,0.7-0.5,1.4-0.7,2.1c-0.1,0.4-0.6,0.6-1,0.4c-7.7-4.6-14.1-9.7-16.3-18.7
			c-1.7-7.1,1.5-15.3,7.9-19.6c5.2-3.5,13.4-3.1,19.2,1c6.3,4.5,8.6,10.8,8.7,18.4c0.1,7.8-1.8,14.1-4.8,22.8
			c-0.6,1.9-1.2,3.5-1.7,4.7C2272.8,1000.7,2272.3,1000.8,2272,1000.5z"/>
	</g>
</g>
<g id="XMLID_2_" class="st0">
	<g id="XMLID_96_">
		<path id="XMLID_252_" class="st1" d="M2344.6-199c2.4,2,5,4.2,7.4,6.3c0.8,0.6,1.1,1.7,0.8,2.7c-1.4,5.3-3.3,10.1-4.2,15.3
			c-0.6,3.5-0.7,7.3,1.4,10.6c2,3.1,5.6,4.5,8.3,3.1c3.6-1.9,4.4-5.6,3.1-9.1c-1.5-3.9-4.9-6.1-8-8.5c-1-0.8-1.2-1.3-0.8-2.5
			c0.8-2.1,1.5-4.3,2.2-6.5c0.2-0.7,0.5-1.4,0.7-2.1c0.1-0.4,0.6-0.6,1-0.4c7.7,4.6,14.1,9.7,16.3,18.8c1.7,7.1-1.5,15.4-7.9,19.6
			c-5.2,3.5-13.4,3.1-19.2-1c-6.3-4.5-8.6-10.8-8.7-18.4c-0.1-7.8,1.8-14.1,4.8-22.9c0.6-1.9,1.2-3.5,1.7-4.7
			C2343.7-199.2,2344.3-199.3,2344.6-199z"/>
		<path id="XMLID_248_" class="st1" d="M2365.6-187c-2.4-2-5-4.2-7.4-6.3c-0.8-0.6-1.1-1.7-0.8-2.7c1.4-5.3,3.3-10.1,4.2-15.3
			c0.6-3.5,0.7-7.3-1.4-10.6c-2-3.1-5.6-4.5-8.3-3.1c-3.6,1.9-4.4,5.6-3.1,9.1c1.5,3.9,4.9,6.1,8,8.5c1,0.8,1.2,1.3,0.8,2.5
			c-0.8,2.1-1.5,4.3-2.2,6.5c-0.2,0.7-0.5,1.4-0.7,2.1c-0.1,0.4-0.6,0.6-1,0.4c-7.7-4.6-14.1-9.7-16.3-18.8
			c-1.7-7.1,1.5-15.4,7.9-19.6c5.2-3.5,13.4-3.1,19.2,1c6.3,4.5,8.6,10.8,8.7,18.4c0.1,7.8-1.8,14.1-4.8,22.9
			c-0.6,1.9-1.2,3.5-1.7,4.7C2366.5-186.9,2365.9-186.7,2365.6-187z"/>
	</g>
	<g id="XMLID_89_">
		<path id="XMLID_246_" class="st1" d="M2344.6-108.1c2.4,2,5,4.2,7.4,6.3c0.8,0.6,1.1,1.7,0.8,2.7c-1.4,5.3-3.3,10.1-4.2,15.3
			c-0.6,3.5-0.7,7.3,1.4,10.6c2,3.1,5.6,4.5,8.3,3.1c3.6-1.9,4.4-5.6,3.1-9.1c-1.5-3.9-4.9-6.1-8-8.5c-1-0.8-1.2-1.3-0.8-2.5
			c0.8-2.1,1.5-4.3,2.2-6.5c0.2-0.7,0.5-1.4,0.7-2.1c0.1-0.4,0.6-0.6,1-0.4c7.7,4.6,14.1,9.7,16.3,18.8c1.7,7.1-1.5,15.4-7.9,19.6
			c-5.2,3.5-13.4,3.1-19.2-1c-6.3-4.5-8.6-10.8-8.7-18.4c-0.1-7.8,1.8-14.1,4.8-22.9c0.6-1.9,1.2-3.5,1.7-4.7
			C2343.7-108.2,2344.3-108.4,2344.6-108.1z"/>
		<path id="XMLID_243_" class="st1" d="M2365.6-96.1c-2.4-2-5-4.2-7.4-6.3c-0.8-0.6-1.1-1.7-0.8-2.7c1.4-5.3,3.3-10.1,4.2-15.3
			c0.6-3.5,0.7-7.3-1.4-10.6c-2-3.1-5.6-4.5-8.3-3.1c-3.6,1.9-4.4,5.6-3.1,9.1c1.5,3.9,4.9,6.1,8,8.5c1,0.8,1.2,1.3,0.8,2.5
			c-0.8,2.1-1.5,4.3-2.2,6.5c-0.2,0.7-0.5,1.4-0.7,2.1c-0.1,0.4-0.6,0.6-1,0.4c-7.7-4.6-14.1-9.7-16.3-18.8
			c-1.7-7.1,1.5-15.4,7.9-19.6c5.2-3.5,13.4-3.1,19.2,1c6.3,4.5,8.6,10.8,8.7,18.4c0.1,7.8-1.8,14.1-4.8,22.9
			c-0.6,1.9-1.2,3.5-1.7,4.7C2366.5-95.9,2365.9-95.8,2365.6-96.1z"/>
	</g>
	<g id="XMLID_82_">
		<path id="XMLID_238_" class="st1" d="M2344.6-16c2.4,2,5,4.2,7.4,6.3c0.8,0.6,1.1,1.7,0.8,2.7c-1.4,5.3-3.3,10.1-4.2,15.3
			c-0.6,3.5-0.7,7.3,1.4,10.6c2,3.1,5.6,4.5,8.3,3.1c3.6-1.9,4.4-5.6,3.1-9.1c-1.5-3.9-4.9-6.1-8-8.5c-1-0.8-1.2-1.3-0.8-2.5
			c0.8-2.1,1.5-4.3,2.2-6.5c0.2-0.7,0.5-1.4,0.7-2.1c0.1-0.4,0.6-0.6,1-0.4c7.7,4.6,14.1,9.7,16.3,18.8c1.7,7.1-1.5,15.4-7.9,19.6
			c-5.2,3.5-13.4,3.1-19.2-1c-6.3-4.5-8.6-10.8-8.7-18.4c-0.1-7.8,1.8-14.1,4.8-22.9c0.6-1.9,1.2-3.5,1.7-4.7
			C2343.7-16.1,2344.3-16.3,2344.6-16z"/>
		<path id="XMLID_227_" class="st1" d="M2365.6-4c-2.4-2-5-4.2-7.4-6.3c-0.8-0.6-1.1-1.7-0.8-2.7c1.4-5.3,3.3-10.1,4.2-15.3
			c0.6-3.5,0.7-7.3-1.4-10.6c-2-3.1-5.6-4.5-8.3-3.1c-3.6,1.9-4.4,5.6-3.1,9.1c1.5,3.9,4.9,6.1,8,8.5c1,0.8,1.2,1.3,0.8,2.5
			c-0.8,2.1-1.5,4.3-2.2,6.5c-0.2,0.7-0.5,1.4-0.7,2.1c-0.1,0.4-0.6,0.6-1,0.4c-7.7-4.6-14.1-9.7-16.3-18.8
			c-1.7-7.1,1.5-15.4,7.9-19.6c5.2-3.5,13.4-3.1,19.2,1c6.3,4.5,8.6,10.8,8.7,18.4c0.1,7.8-1.8,14.1-4.8,22.9
			c-0.6,1.9-1.2,3.5-1.7,4.7C2366.5-3.8,2365.9-3.7,2365.6-4z"/>
	</g>
	<g id="XMLID_74_">
		<path id="XMLID_222_" class="st1" d="M2344.6,75c2.4,2,5,4.2,7.4,6.3c0.8,0.6,1.1,1.7,0.8,2.7c-1.4,5.3-3.3,10.1-4.2,15.3
			c-0.6,3.5-0.7,7.3,1.4,10.6c2,3.1,5.6,4.5,8.3,3.1c3.6-1.9,4.4-5.6,3.1-9.1c-1.5-3.9-4.9-6.1-8-8.5c-1-0.8-1.2-1.3-0.8-2.5
			c0.8-2.1,1.5-4.3,2.2-6.5c0.2-0.7,0.5-1.4,0.7-2.1c0.1-0.4,0.6-0.6,1-0.4c7.7,4.6,14.1,9.7,16.3,18.8c1.7,7.1-1.5,15.4-7.9,19.6
			c-5.2,3.5-13.4,3.1-19.2-1c-6.3-4.5-8.6-10.8-8.7-18.4c-0.1-7.8,1.8-14.1,4.8-22.9c0.6-1.9,1.2-3.5,1.7-4.7
			C2343.7,74.8,2344.3,74.7,2344.6,75z"/>
		<path id="XMLID_216_" class="st1" d="M2365.6,86.9c-2.4-2-5-4.2-7.4-6.3c-0.8-0.6-1.1-1.7-0.8-2.7c1.4-5.3,3.3-10.1,4.2-15.3
			c0.6-3.5,0.7-7.3-1.4-10.6c-2-3.1-5.6-4.5-8.3-3.1c-3.6,1.9-4.4,5.6-3.1,9.1c1.5,3.9,4.9,6.1,8,8.5c1,0.8,1.2,1.3,0.8,2.5
			c-0.8,2.1-1.5,4.3-2.2,6.5c-0.2,0.7-0.5,1.4-0.7,2.1c-0.1,0.4-0.6,0.6-1,0.4c-7.7-4.6-14.1-9.7-16.3-18.8
			c-1.7-7.1,1.5-15.4,7.9-19.6c5.2-3.5,13.4-3.1,19.2,1c6.3,4.5,8.6,10.8,8.7,18.4c0.1,7.8-1.8,14.1-4.8,22.9
			c-0.6,1.9-1.2,3.5-1.7,4.7C2366.5,87.1,2365.9,87.2,2365.6,86.9z"/>
	</g>
	<g id="XMLID_67_">
		<path id="XMLID_206_" class="st1" d="M2344.6,165.9c2.4,2,5,4.2,7.4,6.3c0.8,0.6,1.1,1.7,0.8,2.7c-1.4,5.3-3.3,10.1-4.2,15.3
			c-0.6,3.5-0.7,7.3,1.4,10.6c2,3.1,5.6,4.5,8.3,3.1c3.6-1.9,4.4-5.6,3.1-9.1c-1.5-3.9-4.9-6.1-8-8.5c-1-0.8-1.2-1.3-0.8-2.5
			c0.8-2.1,1.5-4.3,2.2-6.5c0.2-0.7,0.5-1.4,0.7-2.1c0.1-0.4,0.6-0.6,1-0.4c7.7,4.6,14.1,9.7,16.3,18.8c1.7,7.1-1.5,15.4-7.9,19.6
			c-5.2,3.5-13.4,3.1-19.2-1c-6.3-4.5-8.6-10.8-8.7-18.4c-0.1-7.8,1.8-14.1,4.8-22.9c0.6-1.9,1.2-3.5,1.7-4.7
			C2343.7,165.7,2344.3,165.6,2344.6,165.9z"/>
		<path id="XMLID_202_" class="st1" d="M2365.6,177.9c-2.4-2-5-4.2-7.4-6.3c-0.8-0.6-1.1-1.7-0.8-2.7c1.4-5.3,3.3-10.1,4.2-15.3
			c0.6-3.5,0.7-7.3-1.4-10.6c-2-3.1-5.6-4.5-8.3-3.1c-3.6,1.9-4.4,5.6-3.1,9.1c1.5,3.9,4.9,6.1,8,8.5c1,0.8,1.2,1.3,0.8,2.5
			c-0.8,2.1-1.5,4.3-2.2,6.5c-0.2,0.7-0.5,1.4-0.7,2.1c-0.1,0.4-0.6,0.6-1,0.4c-7.7-4.6-14.1-9.7-16.3-18.8
			c-1.7-7.1,1.5-15.4,7.9-19.6c5.2-3.5,13.4-3.1,19.2,1c6.3,4.5,8.6,10.8,8.7,18.4c0.1,7.8-1.8,14.1-4.8,22.9
			c-0.6,1.9-1.2,3.5-1.7,4.7C2366.5,178,2365.9,178.2,2365.6,177.9z"/>
	</g>
	<g id="XMLID_60_">
		<path id="XMLID_195_" class="st1" d="M2344.6,256.8c2.4,2,5,4.2,7.4,6.3c0.8,0.6,1.1,1.7,0.8,2.7c-1.4,5.3-3.3,10.1-4.2,15.3
			c-0.6,3.5-0.7,7.3,1.4,10.6c2,3.1,5.6,4.5,8.3,3.1c3.6-1.9,4.4-5.6,3.1-9.1c-1.5-3.9-4.9-6.1-8-8.5c-1-0.8-1.2-1.3-0.8-2.5
			c0.8-2.1,1.5-4.3,2.2-6.5c0.2-0.7,0.5-1.4,0.7-2.1c0.1-0.4,0.6-0.6,1-0.4c7.7,4.6,14.1,9.7,16.3,18.8c1.7,7.1-1.5,15.4-7.9,19.6
			c-5.2,3.5-13.4,3.1-19.2-1c-6.3-4.5-8.6-10.8-8.7-18.4c-0.1-7.8,1.8-14.1,4.8-22.9c0.6-1.9,1.2-3.5,1.7-4.7
			C2343.7,256.7,2344.3,256.5,2344.6,256.8z"/>
		<path id="XMLID_190_" class="st1" d="M2365.6,268.8c-2.4-2-5-4.2-7.4-6.3c-0.8-0.6-1.1-1.7-0.8-2.7c1.4-5.3,3.3-10.1,4.2-15.3
			c0.6-3.5,0.7-7.3-1.4-10.6c-2-3.1-5.6-4.5-8.3-3.1c-3.6,1.9-4.4,5.6-3.1,9.1c1.5,3.9,4.9,6.1,8,8.5c1,0.8,1.2,1.3,0.8,2.5
			c-0.8,2.1-1.5,4.3-2.2,6.5c-0.2,0.7-0.5,1.4-0.7,2.1c-0.1,0.4-0.6,0.6-1,0.4c-7.7-4.6-14.1-9.7-16.3-18.8
			c-1.7-7.1,1.5-15.4,7.9-19.6c5.2-3.5,13.4-3.1,19.2,1c6.3,4.5,8.6,10.8,8.7,18.4c0.1,7.8-1.8,14.1-4.8,22.9
			c-0.6,1.9-1.2,3.5-1.7,4.7C2366.5,269,2365.9,269.1,2365.6,268.8z"/>
	</g>
	<g id="XMLID_53_">
		<path id="XMLID_186_" class="st1" d="M2344.6,348.9c2.4,2,5,4.2,7.4,6.3c0.8,0.6,1.1,1.7,0.8,2.7c-1.4,5.3-3.3,10.1-4.2,15.3
			c-0.6,3.5-0.7,7.3,1.4,10.6c2,3.1,5.6,4.5,8.3,3.1c3.6-1.9,4.4-5.6,3.1-9.1c-1.5-3.9-4.9-6.1-8-8.5c-1-0.8-1.2-1.3-0.8-2.5
			c0.8-2.1,1.5-4.3,2.2-6.5c0.2-0.7,0.5-1.4,0.7-2.1c0.1-0.4,0.6-0.6,1-0.4c7.7,4.6,14.1,9.7,16.3,18.8c1.7,7.1-1.5,15.4-7.9,19.6
			c-5.2,3.5-13.4,3.1-19.2-1c-6.3-4.5-8.6-10.8-8.7-18.4c-0.1-7.8,1.8-14.1,4.8-22.9c0.6-1.9,1.2-3.5,1.7-4.7
			C2343.7,348.8,2344.3,348.6,2344.6,348.9z"/>
		<path id="XMLID_183_" class="st1" d="M2365.6,360.9c-2.4-2-5-4.2-7.4-6.3c-0.8-0.6-1.1-1.7-0.8-2.7c1.4-5.3,3.3-10.1,4.2-15.3
			c0.6-3.5,0.7-7.3-1.4-10.6c-2-3.1-5.6-4.5-8.3-3.1c-3.6,1.9-4.4,5.6-3.1,9.1c1.5,3.9,4.9,6.1,8,8.5c1,0.8,1.2,1.3,0.8,2.5
			c-0.8,2.1-1.5,4.3-2.2,6.5c-0.2,0.7-0.5,1.4-0.7,2.1c-0.1,0.4-0.6,0.6-1,0.4c-7.7-4.6-14.1-9.7-16.3-18.8
			c-1.7-7.1,1.5-15.4,7.9-19.6c5.2-3.5,13.4-3.1,19.2,1c6.3,4.5,8.6,10.8,8.7,18.4c0.1,7.8-1.8,14.1-4.8,22.9
			c-0.6,1.9-1.2,3.5-1.7,4.7C2366.5,361.1,2365.9,361.2,2365.6,360.9z"/>
	</g>
	<g id="XMLID_46_">
		<path id="XMLID_179_" class="st1" d="M2344.6,439.9c2.4,2,5,4.2,7.4,6.3c0.8,0.6,1.1,1.7,0.8,2.7c-1.4,5.3-3.3,10.1-4.2,15.3
			c-0.6,3.5-0.7,7.3,1.4,10.6c2,3.1,5.6,4.5,8.3,3.1c3.6-1.9,4.4-5.6,3.1-9.1c-1.5-3.9-4.9-6.1-8-8.5c-1-0.8-1.2-1.3-0.8-2.5
			c0.8-2.1,1.5-4.3,2.2-6.5c0.2-0.7,0.5-1.4,0.7-2.1c0.1-0.4,0.6-0.6,1-0.4c7.7,4.6,14.1,9.7,16.3,18.8c1.7,7.1-1.5,15.4-7.9,19.6
			c-5.2,3.5-13.4,3.1-19.2-1c-6.3-4.5-8.6-10.8-8.7-18.4c-0.1-7.8,1.8-14.1,4.8-22.9c0.6-1.9,1.2-3.5,1.7-4.7
			C2343.7,439.7,2344.3,439.6,2344.6,439.9z"/>
		<path id="XMLID_174_" class="st1" d="M2365.6,451.8c-2.4-2-5-4.2-7.4-6.3c-0.8-0.6-1.1-1.7-0.8-2.7c1.4-5.3,3.3-10.1,4.2-15.3
			c0.6-3.5,0.7-7.3-1.4-10.6c-2-3.1-5.6-4.5-8.3-3.1c-3.6,1.9-4.4,5.6-3.1,9.1c1.5,3.9,4.9,6.1,8,8.5c1,0.8,1.2,1.3,0.8,2.5
			c-0.8,2.1-1.5,4.3-2.2,6.5c-0.2,0.7-0.5,1.4-0.7,2.1c-0.1,0.4-0.6,0.6-1,0.4c-7.7-4.6-14.1-9.7-16.3-18.8
			c-1.7-7.1,1.5-15.4,7.9-19.6c5.2-3.5,13.4-3.1,19.2,1c6.3,4.5,8.6,10.8,8.7,18.4c0.1,7.8-1.8,14.1-4.8,22.9
			c-0.6,1.9-1.2,3.5-1.7,4.7C2366.5,452,2365.9,452.1,2365.6,451.8z"/>
	</g>
	<g id="XMLID_39_">
		<path id="XMLID_168_" class="st1" d="M2344.6,530.8c2.4,2,5,4.2,7.4,6.3c0.8,0.6,1.1,1.7,0.8,2.7c-1.4,5.3-3.3,10.1-4.2,15.3
			c-0.6,3.5-0.7,7.3,1.4,10.6c2,3.1,5.6,4.5,8.3,3.1c3.6-1.9,4.4-5.6,3.1-9.1c-1.5-3.9-4.9-6.1-8-8.5c-1-0.8-1.2-1.3-0.8-2.5
			c0.8-2.1,1.5-4.3,2.2-6.5c0.2-0.7,0.5-1.4,0.7-2.1c0.1-0.4,0.6-0.6,1-0.4c7.7,4.6,14.1,9.7,16.3,18.8c1.7,7.1-1.5,15.4-7.9,19.6
			c-5.2,3.5-13.4,3.1-19.2-1c-6.3-4.5-8.6-10.8-8.7-18.4c-0.1-7.8,1.8-14.1,4.8-22.9c0.6-1.9,1.2-3.5,1.7-4.7
			C2343.7,530.6,2344.3,530.5,2344.6,530.8z"/>
		<path id="XMLID_164_" class="st1" d="M2365.6,542.8c-2.4-2-5-4.2-7.4-6.3c-0.8-0.6-1.1-1.7-0.8-2.7c1.4-5.3,3.3-10.1,4.2-15.3
			c0.6-3.5,0.7-7.3-1.4-10.6c-2-3.1-5.6-4.5-8.3-3.1c-3.6,1.9-4.4,5.6-3.1,9.1c1.5,3.9,4.9,6.1,8,8.5c1,0.8,1.2,1.3,0.8,2.5
			c-0.8,2.1-1.5,4.3-2.2,6.5c-0.2,0.7-0.5,1.4-0.7,2.1c-0.1,0.4-0.6,0.6-1,0.4c-7.7-4.6-14.1-9.7-16.3-18.8
			c-1.7-7.1,1.5-15.4,7.9-19.6c5.2-3.5,13.4-3.1,19.2,1c6.3,4.5,8.6,10.8,8.7,18.4c0.1,7.8-1.8,14.1-4.8,22.9
			c-0.6,1.9-1.2,3.5-1.7,4.7C2366.5,542.9,2365.9,543.1,2365.6,542.8z"/>
	</g>
	<g id="XMLID_32_">
		<path id="XMLID_162_" class="st1" d="M2344.6,621.7c2.4,2,5,4.2,7.4,6.3c0.8,0.6,1.1,1.7,0.8,2.7c-1.4,5.3-3.3,10.1-4.2,15.3
			c-0.6,3.5-0.7,7.3,1.4,10.6c2,3.1,5.6,4.5,8.3,3.1c3.6-1.9,4.4-5.6,3.1-9.1c-1.5-3.9-4.9-6.1-8-8.5c-1-0.8-1.2-1.3-0.8-2.5
			c0.8-2.1,1.5-4.3,2.2-6.5c0.2-0.7,0.5-1.4,0.7-2.1c0.1-0.4,0.6-0.6,1-0.4c7.7,4.6,14.1,9.7,16.3,18.8c1.7,7.1-1.5,15.4-7.9,19.6
			c-5.2,3.5-13.4,3.1-19.2-1c-6.3-4.5-8.6-10.8-8.7-18.4c-0.1-7.8,1.8-14.1,4.8-22.9c0.6-1.9,1.2-3.5,1.7-4.7
			C2343.7,621.6,2344.3,621.4,2344.6,621.7z"/>
		<path id="XMLID_158_" class="st1" d="M2365.6,633.7c-2.4-2-5-4.2-7.4-6.3c-0.8-0.6-1.1-1.7-0.8-2.7c1.4-5.3,3.3-10.1,4.2-15.3
			c0.6-3.5,0.7-7.3-1.4-10.6c-2-3.1-5.6-4.5-8.3-3.1c-3.6,1.9-4.4,5.6-3.1,9.1c1.5,3.9,4.9,6.1,8,8.5c1,0.8,1.2,1.3,0.8,2.5
			c-0.8,2.1-1.5,4.3-2.2,6.5c-0.2,0.7-0.5,1.4-0.7,2.1c-0.1,0.4-0.6,0.6-1,0.4c-7.7-4.6-14.1-9.7-16.3-18.8
			c-1.7-7.1,1.5-15.4,7.9-19.6c5.2-3.5,13.4-3.1,19.2,1c6.3,4.5,8.6,10.8,8.7,18.4c0.1,7.8-1.8,14.1-4.8,22.9
			c-0.6,1.9-1.2,3.5-1.7,4.7C2366.5,633.9,2365.9,634,2365.6,633.7z"/>
	</g>
	<g id="XMLID_24_">
		<path id="XMLID_152_" class="st1" d="M2344.6,713.8c2.4,2,5,4.2,7.4,6.3c0.8,0.6,1.1,1.7,0.8,2.7c-1.4,5.3-3.3,10.1-4.2,15.3
			c-0.6,3.5-0.7,7.3,1.4,10.6c2,3.1,5.6,4.5,8.3,3.1c3.6-1.9,4.4-5.6,3.1-9.1c-1.5-3.9-4.9-6.1-8-8.5c-1-0.8-1.2-1.3-0.8-2.5
			c0.8-2.1,1.5-4.3,2.2-6.5c0.2-0.7,0.5-1.4,0.7-2.1c0.1-0.4,0.6-0.6,1-0.4c7.7,4.6,14.1,9.7,16.3,18.8c1.7,7.1-1.5,15.4-7.9,19.6
			c-5.2,3.5-13.4,3.1-19.2-1c-6.3-4.5-8.6-10.8-8.7-18.4c-0.1-7.8,1.8-14.1,4.8-22.9c0.6-1.9,1.2-3.5,1.7-4.7
			C2343.7,713.7,2344.3,713.5,2344.6,713.8z"/>
		<path id="XMLID_147_" class="st1" d="M2365.6,725.8c-2.4-2-5-4.2-7.4-6.3c-0.8-0.6-1.1-1.7-0.8-2.7c1.4-5.3,3.3-10.1,4.2-15.3
			c0.6-3.5,0.7-7.3-1.4-10.6c-2-3.1-5.6-4.5-8.3-3.1c-3.6,1.9-4.4,5.6-3.1,9.1c1.5,3.9,4.9,6.1,8,8.5c1,0.8,1.2,1.3,0.8,2.5
			c-0.8,2.1-1.5,4.3-2.2,6.5c-0.2,0.7-0.5,1.4-0.7,2.1c-0.1,0.4-0.6,0.6-1,0.4c-7.7-4.6-14.1-9.7-16.3-18.8
			c-1.7-7.1,1.5-15.4,7.9-19.6c5.2-3.5,13.4-3.1,19.2,1c6.3,4.5,8.6,10.8,8.7,18.4c0.1,7.8-1.8,14.1-4.8,22.9
			c-0.6,1.9-1.2,3.5-1.7,4.7C2366.5,726,2365.9,726.1,2365.6,725.8z"/>
	</g>
	<g id="XMLID_17_">
		<path id="XMLID_142_" class="st1" d="M2344.6,805.4c2.4,2,5,4.2,7.4,6.3c0.8,0.6,1.1,1.7,0.8,2.7c-1.4,5.3-3.3,10.1-4.2,15.3
			c-0.6,3.5-0.7,7.3,1.4,10.6c2,3.1,5.6,4.5,8.3,3.1c3.6-1.9,4.4-5.6,3.1-9.1c-1.5-3.9-4.9-6.1-8-8.5c-1-0.8-1.2-1.3-0.8-2.5
			c0.8-2.1,1.5-4.3,2.2-6.5c0.2-0.7,0.5-1.4,0.7-2.1c0.1-0.4,0.6-0.6,1-0.4c7.7,4.6,14.1,9.7,16.3,18.8c1.7,7.1-1.5,15.4-7.9,19.6
			c-5.2,3.5-13.4,3.1-19.2-1c-6.3-4.5-8.6-10.8-8.7-18.4c-0.1-7.8,1.8-14.1,4.8-22.9c0.6-1.9,1.2-3.5,1.7-4.7
			C2343.7,805.3,2344.3,805.1,2344.6,805.4z"/>
		<path id="XMLID_134_" class="st1" d="M2365.6,817.4c-2.4-2-5-4.2-7.4-6.3c-0.8-0.6-1.1-1.7-0.8-2.7c1.4-5.3,3.3-10.1,4.2-15.3
			c0.6-3.5,0.7-7.3-1.4-10.6c-2-3.1-5.6-4.5-8.3-3.1c-3.6,1.9-4.4,5.6-3.1,9.1c1.5,3.9,4.9,6.1,8,8.5c1,0.8,1.2,1.3,0.8,2.5
			c-0.8,2.1-1.5,4.3-2.2,6.5c-0.2,0.7-0.5,1.4-0.7,2.1c-0.1,0.4-0.6,0.6-1,0.4c-7.7-4.6-14.1-9.7-16.3-18.8
			c-1.7-7.1,1.5-15.4,7.9-19.6c5.2-3.5,13.4-3.1,19.2,1c6.3,4.5,8.6,10.8,8.7,18.4c0.1,7.8-1.8,14.1-4.8,22.9
			c-0.6,1.9-1.2,3.5-1.7,4.7C2366.5,817.5,2365.9,817.7,2365.6,817.4z"/>
	</g>
	<g id="XMLID_10_">
		<path id="XMLID_121_" class="st1" d="M2344.6,896.3c2.4,2,5,4.2,7.4,6.3c0.8,0.6,1.1,1.7,0.8,2.7c-1.4,5.3-3.3,10.1-4.2,15.3
			c-0.6,3.5-0.7,7.3,1.4,10.6c2,3.1,5.6,4.5,8.3,3.1c3.6-1.9,4.4-5.6,3.1-9.1c-1.5-3.9-4.9-6.1-8-8.5c-1-0.8-1.2-1.3-0.8-2.5
			c0.8-2.1,1.5-4.3,2.2-6.5c0.2-0.7,0.5-1.4,0.7-2.1c0.1-0.4,0.6-0.6,1-0.4c7.7,4.6,14.1,9.7,16.3,18.8c1.7,7.1-1.5,15.4-7.9,19.6
			c-5.2,3.5-13.4,3.2-19.2-1c-6.3-4.5-8.6-10.8-8.7-18.4c-0.1-7.8,1.8-14.1,4.8-22.9c0.6-1.9,1.2-3.5,1.7-4.7
			C2343.7,896.2,2344.3,896,2344.6,896.3z"/>
		<path id="XMLID_105_" class="st1" d="M2365.6,908.3c-2.4-2-5-4.2-7.4-6.3c-0.8-0.6-1.1-1.7-0.8-2.7c1.4-5.3,3.3-10.1,4.2-15.3
			c0.6-3.5,0.7-7.3-1.4-10.6c-2-3.1-5.6-4.5-8.3-3.1c-3.6,1.9-4.4,5.6-3.1,9.1c1.5,3.9,4.9,6.1,8,8.5c1,0.8,1.2,1.3,0.8,2.5
			c-0.8,2.1-1.5,4.3-2.2,6.5c-0.2,0.7-0.5,1.4-0.7,2.1c-0.1,0.4-0.6,0.6-1,0.4c-7.7-4.6-14.1-9.7-16.3-18.8
			c-1.7-7.1,1.5-15.4,7.9-19.6c5.2-3.5,13.4-3.2,19.2,1c6.3,4.5,8.6,10.8,8.7,18.4c0.1,7.8-1.8,14.1-4.8,22.9
			c-0.6,1.9-1.2,3.5-1.7,4.7C2366.5,908.5,2365.9,908.6,2365.6,908.3z"/>
	</g>
	<g id="XMLID_3_">
		<path id="XMLID_80_" class="st1" d="M2344.6,988.4c2.4,2,5,4.2,7.4,6.3c0.8,0.6,1.1,1.7,0.8,2.7c-1.4,5.3-3.3,10.1-4.2,15.3
			c-0.6,3.5-0.7,7.3,1.4,10.6c2,3.1,5.6,4.5,8.3,3.1c3.6-1.9,4.4-5.6,3.1-9.1c-1.5-3.9-4.9-6.1-8-8.5c-1-0.8-1.2-1.3-0.8-2.5
			c0.8-2.1,1.5-4.3,2.2-6.5c0.2-0.7,0.5-1.4,0.7-2.1c0.1-0.4,0.6-0.6,1-0.4c7.7,4.6,14.1,9.7,16.3,18.8c1.7,7.1-1.5,15.4-7.9,19.6
			c-5.2,3.5-13.4,3.2-19.2-1c-6.3-4.5-8.6-10.8-8.7-18.4c-0.1-7.8,1.8-14.1,4.8-22.9c0.6-1.9,1.2-3.5,1.7-4.7
			C2343.7,988.3,2344.3,988.1,2344.6,988.4z"/>
		<path id="XMLID_26_" class="st1" d="M2365.6,1000.4c-2.4-2-5-4.2-7.4-6.3c-0.8-0.6-1.1-1.7-0.8-2.7c1.4-5.3,3.3-10.1,4.2-15.3
			c0.6-3.5,0.7-7.3-1.4-10.6c-2-3.1-5.6-4.5-8.3-3.1c-3.6,1.9-4.4,5.6-3.1,9.1c1.5,3.9,4.9,6.1,8,8.5c1,0.8,1.2,1.3,0.8,2.5
			c-0.8,2.1-1.5,4.3-2.2,6.5c-0.2,0.7-0.5,1.4-0.7,2.1c-0.1,0.4-0.6,0.6-1,0.4c-7.7-4.6-14.1-9.7-16.3-18.8
			c-1.7-7.1,1.5-15.4,7.9-19.6c5.2-3.5,13.4-3.1,19.2,1c6.3,4.5,8.6,10.8,8.7,18.4c0.1,7.8-1.8,14.1-4.8,22.9
			c-0.6,1.9-1.2,3.5-1.7,4.7C2366.5,1000.6,2365.9,1000.7,2365.6,1000.4z"/>
	</g>
</g>
<path class="st2" d="M2893,1036.1V395c-109.8,14.4-205,81.1-264.8,176.9c-31.7-17.8-67.6-28-105.6-28
	c-88.3,0-165.2,54.3-204.8,134.2c-28.8-32.2-68.8-52.1-113-52.1c-18.5,0-36.3,3.5-52.9,10c4.5-20,6.9-40.8,6.9-62.3
	c0-142.3-104.4-257.6-233.2-257.6c-104.8,0-193.5,76.4-222.9,181.5c-27.7-26-63.6-41.7-102.8-41.7c-62.9,0-117.2,40.4-143,98.9
	c-42.7-60.2-109.1-98.9-183.6-98.9c-121.3,0-221,102.3-232.2,233.1c-68.9-89.2-171.3-145.8-285.7-145.8
	c-82.2,0-158.2,29.3-220.1,78.8C513.6,504.7,419.6,416.5,307,416.5v619.6H2893z"/>
<path class="st3" d="M2861,1123.5V482.4c-109.8,14.4-205,81.1-264.8,176.9c-31.7-17.8-67.6-28-105.6-28
	c-88.3,0-165.2,54.3-204.8,134.2c-28.8-32.2-68.8-52.1-113-52.1c-18.5,0-36.3,3.5-52.9,10c4.5-20,6.9-40.8,6.9-62.3
	c0-142.3-104.4-257.6-233.2-257.6c-104.8,0-193.5,76.4-222.9,181.5c-27.7-26-63.6-41.7-102.8-41.7c-62.9,0-117.2,40.4-143,98.9
	c-42.7-60.2-109.1-98.9-183.6-98.9c-121.3,0-221,102.3-232.2,233.1c-68.9-89.2-171.3-145.8-285.7-145.8
	c-82.2,0-158.2,29.3-220.1,78.8C481.6,592.1,387.6,503.9,275,503.9v619.6H2861z"/>
</svg>
