<?xml version="1.0" encoding="utf-8"?>
<!-- Generator: Adobe Illustrator 19.0.0, SVG Export Plug-In . SVG Version: 6.00 Build 0)  -->
<svg version="1.1" id="Layer_1" xmlns="http://www.w3.org/2000/svg" xmlns:xlink="http://www.w3.org/1999/xlink" x="0px" y="0px"
	 viewBox="-79 222.7 451.1 349.3" style="enable-background:new -79 222.7 451.1 349.3;" xml:space="preserve">
<style type="text/css">
	.st0{display:none;}
	.st1{display:inline;fill:#632C8F;stroke:#FFFFFF;stroke-linejoin:bevel;stroke-miterlimit:5;stroke-dasharray:12,12,5,10;}
	.st2{fill:#393E46;}
	.st3{fill:#FBBE13;}
	.st4{fill:url(#SVGID_1_);}
	.st5{fill:url(#SVGID_2_);}
	.st6{fill:url(#SVGID_3_);}
	.st7{fill:url(#SVGID_4_);}
	.st8{fill:#FFFFFF;}
	.st9{fill:#FCB913;}
	.st10{fill:#E5E5E4;}
	.st11{fill:url(#SVGID_5_);}
	.st12{opacity:0.2;fill:url(#SVGID_6_);}
	.st13{fill:url(#SVGID_7_);}
	.st14{fill:url(#SVGID_8_);}
	.st15{fill:#CBCBCA;}
	.st16{fill:#333333;}
	.st17{fill:url(#SVGID_9_);}
	.st18{fill:url(#SVGID_10_);}
	.st19{fill:url(#SVGID_11_);}
	.st20{fill:url(#SVGID_12_);}
	.st21{fill:url(#SVGID_13_);}
	.st22{fill:url(#SVGID_14_);}
	.st23{fill:url(#SVGID_15_);}
	.st24{fill:url(#SVGID_16_);}
	.st25{fill:url(#SVGID_17_);}
	.st26{fill:url(#SVGID_18_);}
	.st27{fill:#284A9E;}
	.st28{fill:url(#SVGID_19_);}
	.st29{fill:url(#SVGID_20_);}
	.st30{opacity:0.2;fill:url(#SVGID_21_);}
	.st31{fill:url(#SVGID_22_);}
	.st32{fill:url(#SVGID_23_);}
	.st33{fill:#F6904B;}
	.st34{fill:#FFC849;}
	.st35{fill:#7EC247;}
	.st36{opacity:0.2;fill:url(#SVGID_24_);}
	.st37{fill:url(#SVGID_25_);}
	.st38{fill:url(#SVGID_26_);}
	.st39{fill:url(#SVGID_27_);}
	.st40{fill:url(#SVGID_28_);}
	.st41{fill:url(#SVGID_29_);}
	.st42{fill:url(#SVGID_30_);}
	.st43{fill:url(#SVGID_31_);}
	.st44{opacity:0.4;fill:url(#SVGID_32_);}
	.st45{fill:url(#SVGID_33_);}
	.st46{fill:url(#SVGID_34_);}
	.st47{fill:url(#SVGID_35_);}
	.st48{fill:#D1783B;}
	.st49{fill:url(#SVGID_36_);}
	.st50{fill:url(#SVGID_37_);}
	.st51{fill:url(#SVGID_38_);}
	.st52{fill:url(#SVGID_39_);}
	.st53{fill:#222831;}
	.st54{fill:url(#SVGID_42_);}
	.st55{fill:url(#SVGID_43_);}
	.st56{fill:url(#SVGID_44_);}
	.st57{fill:#018189;}
	.st58{fill:#AD832D;}
	.st59{fill-rule:evenodd;clip-rule:evenodd;fill:#222831;}
	.st60{fill:url(#SVGID_45_);}
</style>
<g id="Layer_2" class="st0">
	<rect id="XMLID_53_" x="-44.4" y="242.9" class="st1" width="544.4" height="399.3"/>
</g>
<g>
	<g>
		<path class="st2" d="M215.1,298.6c-1,0.8-2,1.5-2.9,2.3c-1,0.8-1.9,1.5-2.9,2.3c-1,0.7-1.9,1.4-3,2.1c-1,0.6-2.1,1.2-3.2,1.8
			c1.3,0,2.5-0.4,3.7-0.9c1.2-0.5,2.2-1.2,3.2-1.9c1-0.8,1.9-1.6,2.8-2.6C213.7,300.8,214.5,299.8,215.1,298.6z"/>
	</g>
	<g>
		<path class="st3" d="M74.9,263.1c-0.3,2.9-0.4,5.7-0.5,8.5"/>
		<path class="st3" d="M75.2,283.9l0.1,1c0,0.3,0.1,0.7,0.1,1l0.3,1.9c0.1,0.6,0.2,1.3,0.4,1.9l0.4,1.9l0.4,1.8l0.2,0.9
			c0,0.2,0.1,0.3,0.1,0.5l0.1,0.5c1.3,4.8,3,9.4,4.9,13.7l0.7,1.6c0.1,0.3,0.2,0.5,0.4,0.8l0.4,0.8l1.6,3.1l3.2,6.2l1.5,3.2l0.8,1.6
			c0.2,0.5,0.5,1.1,0.7,1.6l1.4,3.3l0.7,1.6c0.2,0.6,0.4,1.1,0.7,1.7l1.3,3.4c0.4,1.2,0.8,2.3,1.2,3.5l0.3,0.9
			c0,0.1,0.1,0.3,0.2,0.4l0.1,0.4l0.5,1.8l0.5,1.8l0.5,1.9c0.2,0.6,0.3,1.2,0.5,1.9l0.4,1.9l0.2,1c0,0.2,0.1,0.3,0.1,0.5l0.1,0.5
			l0.3,2l0.2,2.1l-1.3,2.7l0-1c0-0.3,0-0.7-0.1-1l-0.2-2l-0.3-1.9l-0.1-0.5c0-0.2,0-0.3-0.1-0.5l-0.2-0.9l-0.4-1.9
			c-0.1-0.6-0.3-1.2-0.4-1.8l-0.4-1.8l-0.5-1.8l-0.5-1.8l-0.1-0.4c0-0.1-0.1-0.3-0.1-0.4l-0.3-0.9c-0.4-1.2-0.8-2.3-1.2-3.5
			l-1.3-3.4c-0.2-0.6-0.4-1.1-0.7-1.7l-0.7-1.6l-1.4-3.3c-0.2-0.6-0.5-1.1-0.7-1.6l-0.7-1.6l-1.5-3.2l-3.1-6.3L83,313l-0.4-0.8
			c-0.1-0.3-0.2-0.5-0.4-0.8l-0.7-1.6c-1.9-4.4-3.6-9-4.8-13.9l-0.1-0.5c0-0.2-0.1-0.3-0.1-0.5l-0.2-0.9l-0.4-1.9l-0.4-1.9
			c-0.1-0.6-0.3-1.3-0.4-1.9l-0.3-2c-0.1-0.3-0.1-0.7-0.1-1l-0.1-1c-0.2-1.3-0.3-2.7-0.4-4c-0.2-2.7-0.3-5.5-0.3-8.3
			c0-2.8,0.2-5.7,0.5-8.6"/>
	</g>
	<g>
		<path class="st2" d="M171.1,286.4c-0.7,0.6-1.5,1.2-2.2,1.7c-0.7,0.6-1.4,1.2-2.1,1.7c-0.7,0.5-1.4,1.1-2.2,1.6
			c-0.8,0.5-1.5,0.9-2.4,1.4c1,0,1.9-0.3,2.7-0.7c0.9-0.4,1.7-0.9,2.4-1.5c0.7-0.6,1.4-1.2,2-1.9C170.1,288,170.6,287.3,171.1,286.4
			z"/>
	</g>
	<g>
		
			<linearGradient id="SVGID_1_" gradientUnits="userSpaceOnUse" x1="198.0571" y1="539.1201" x2="200.0664" y2="435.3069" gradientTransform="matrix(-1 0 0 1 315.7194 0)">
			<stop  offset="0" style="stop-color:#333333"/>
			<stop  offset="1" style="stop-color:#000000"/>
		</linearGradient>
		<polygon class="st4" points="62.8,539.5 117.7,431.3 172.5,539.5 164.7,539.5 120.9,453.2 120.9,520 113.9,520 113.9,454.1 
			70.7,539.5 		"/>
		<linearGradient id="SVGID_2_" gradientUnits="userSpaceOnUse" x1="92.4155" y1="435.6885" x2="142.4431" y2="435.6885">
			<stop  offset="0" style="stop-color:#FCB915"/>
			<stop  offset="0.24" style="stop-color:#FCBA18"/>
			<stop  offset="0.4312" style="stop-color:#FCBD22"/>
			<stop  offset="0.6057" style="stop-color:#FDC133"/>
			<stop  offset="0.7701" style="stop-color:#FEC84B"/>
			<stop  offset="0.9262" style="stop-color:#FED069"/>
			<stop  offset="1" style="stop-color:#FFD57A"/>
		</linearGradient>
		<rect x="92.4" y="421.5" class="st5" width="50" height="28.5"/>
		<linearGradient id="SVGID_3_" gradientUnits="userSpaceOnUse" x1="72.9924" y1="425.977" x2="161.8662" y2="425.977">
			<stop  offset="0" style="stop-color:#FCB915"/>
			<stop  offset="0.24" style="stop-color:#FCBA18"/>
			<stop  offset="0.4312" style="stop-color:#FCBD22"/>
			<stop  offset="0.6057" style="stop-color:#FDC133"/>
			<stop  offset="0.7701" style="stop-color:#FEC84B"/>
			<stop  offset="0.9262" style="stop-color:#FED069"/>
			<stop  offset="1" style="stop-color:#FFD57A"/>
		</linearGradient>
		<rect x="73" y="411.7" class="st6" width="88.9" height="28.5"/>
		<linearGradient id="SVGID_4_" gradientUnits="userSpaceOnUse" x1="-0.1797" y1="358.2472" x2="235.0383" y2="358.2472">
			<stop  offset="0" style="stop-color:#FCB915"/>
			<stop  offset="0.24" style="stop-color:#FCBA18"/>
			<stop  offset="0.4312" style="stop-color:#FCBD22"/>
			<stop  offset="0.6057" style="stop-color:#FDC133"/>
			<stop  offset="0.7701" style="stop-color:#FEC84B"/>
			<stop  offset="0.9262" style="stop-color:#FED069"/>
			<stop  offset="1" style="stop-color:#FFD57A"/>
		</linearGradient>
		<rect x="-0.2" y="284.7" class="st7" width="235.2" height="147.2"/>
		<rect x="5.8" y="290.4" class="st8" width="223.3" height="135.6"/>
		<rect x="-7.5" y="422.7" class="st9" width="250" height="9.1"/>
	</g>
	<g>
		<rect x="118.6" y="312" class="st10" width="45.7" height="4.2"/>
		<rect x="124.3" y="321" class="st10" width="40" height="4.2"/>
		<rect x="131.3" y="330.1" class="st10" width="33" height="4.2"/>
		<rect x="140.9" y="339.1" class="st10" width="23.4" height="4.2"/>
	</g>
	<g>
		<rect x="148.1" y="384.8" class="st10" width="33.2" height="4.2"/>
	</g>
	<g>
		<rect x="148.1" y="406.3" class="st10" width="33.2" height="4.2"/>
	</g>
	<linearGradient id="SVGID_5_" gradientUnits="userSpaceOnUse" x1="-7.5466" y1="289.2303" x2="242.4052" y2="289.2303">
		<stop  offset="0" style="stop-color:#FCB915"/>
		<stop  offset="0.24" style="stop-color:#FCBA18"/>
		<stop  offset="0.4312" style="stop-color:#FCBD22"/>
		<stop  offset="0.6057" style="stop-color:#FDC133"/>
		<stop  offset="0.7701" style="stop-color:#FEC84B"/>
		<stop  offset="0.9262" style="stop-color:#FED069"/>
		<stop  offset="1" style="stop-color:#FFD57A"/>
	</linearGradient>
	<rect x="-7.5" y="284.7" class="st11" width="250" height="9.1"/>
	<g>
		
			<linearGradient id="SVGID_6_" gradientUnits="userSpaceOnUse" x1="77.8165" y1="288.7127" x2="124.8864" y2="335.7826" gradientTransform="matrix(-1 0 0 1 315.7194 0)">
			<stop  offset="0" style="stop-color:#333333"/>
			<stop  offset="1" style="stop-color:#000000"/>
		</linearGradient>
		<path class="st12" d="M181.1,289.2h51.6c2.6,0,4.7,2.1,4.7,4.7v51.6c0,2.6-2.1,4.7-4.7,4.7h-51.6c-2.6,0-4.7-2.1-4.7-4.7v-51.6
			C176.5,291.3,178.5,289.2,181.1,289.2z"/>
		
			<linearGradient id="SVGID_7_" gradientUnits="userSpaceOnUse" x1="57.6483" y1="265.5708" x2="127.9733" y2="343.1793" gradientTransform="matrix(-1 0 0 1 315.7194 0)">
			<stop  offset="0" style="stop-color:#FFFFFF"/>
			<stop  offset="0.3811" style="stop-color:#FBFBFB"/>
			<stop  offset="0.7829" style="stop-color:#EFEFEE"/>
			<stop  offset="1" style="stop-color:#E5E5E4"/>
		</linearGradient>
		<path class="st13" d="M194,277.3h51.6c2.6,0,4.7,2.1,4.7,4.7v51.6c0,2.6-2.1,4.7-4.7,4.7H194c-2.6,0-4.7-2.1-4.7-4.7v-51.6
			C189.4,279.4,191.4,277.3,194,277.3z"/>
		
			<linearGradient id="SVGID_8_" gradientUnits="userSpaceOnUse" x1="76.2954" y1="266.768" x2="106.0571" y2="296.5297" gradientTransform="matrix(-1 0 0 1 315.7194 0)">
			<stop  offset="0" style="stop-color:#FFC849"/>
			<stop  offset="1" style="stop-color:#F6904B"/>
		</linearGradient>
		<path class="st14" d="M194,277.3h51.6c2.6,0,4.7,2.1,4.7,4.7v10.8h-60.9v-10.8C189.4,279.4,191.4,277.3,194,277.3z"/>
		<g>
			<rect x="237.2" y="297" class="st15" width="6.9" height="6.9"/>
			<rect x="227.3" y="297" class="st15" width="6.9" height="6.9"/>
			<rect x="217.3" y="297" class="st15" width="6.9" height="6.9"/>
			<rect x="207.4" y="297" class="st15" width="6.9" height="6.9"/>
			<rect x="197.5" y="297" class="st15" width="6.9" height="6.9"/>
			<rect x="237.2" y="306.6" class="st15" width="6.9" height="6.9"/>
			<rect x="227.3" y="306.6" class="st15" width="6.9" height="6.9"/>
			<rect x="217.3" y="306.6" class="st15" width="6.9" height="6.9"/>
			<rect x="207.4" y="306.6" class="st15" width="6.9" height="6.9"/>
			<rect x="197.5" y="306.6" class="st15" width="6.9" height="6.9"/>
			<rect x="237.2" y="316.2" class="st15" width="6.9" height="6.9"/>
			<rect x="227.3" y="316.2" class="st15" width="6.9" height="6.9"/>
			<rect x="217.3" y="316.2" class="st15" width="6.9" height="6.9"/>
			<rect x="207.4" y="316.2" class="st15" width="6.9" height="6.9"/>
			<rect x="197.5" y="316.2" class="st15" width="6.9" height="6.9"/>
			<rect x="237.2" y="325.8" class="st15" width="6.9" height="6.9"/>
			<rect x="227.3" y="325.8" class="st15" width="6.9" height="6.9"/>
			<rect x="217.3" y="325.8" class="st15" width="6.9" height="6.9"/>
			<rect x="207.4" y="325.8" class="st15" width="6.9" height="6.9"/>
			<rect x="197.5" y="325.8" class="st15" width="6.9" height="6.9"/>
		</g>
		<g>
			<path class="st16" d="M237.1,281c0.3-1.1,0.5-2.4,0.5-3.7c0-3.6-1.3-7.3-3.7-7.3s-3.7,3.7-3.7,7.3h2.1c0-3.4,1.2-5.2,1.6-5.2
				s1.6,1.8,1.6,5.2c0,1.1-0.1,2.2-0.4,3.1L237.1,281z"/>
		</g>
		<g>
			<path class="st16" d="M209,281c0.3-1.1,0.5-2.4,0.5-3.7c0-3.6-1.3-7.3-3.7-7.3c-2.4,0-3.7,3.7-3.7,7.3h2.1c0-3.4,1.2-5.2,1.6-5.2
				c0.5,0,1.6,1.8,1.6,5.2c0,1.1-0.1,2.2-0.4,3.1L209,281z"/>
		</g>
	</g>
	<g>
		<g>
			
				<linearGradient id="SVGID_9_" gradientUnits="userSpaceOnUse" x1="189.8254" y1="354.8255" x2="194.3463" y2="426.4065" gradientTransform="matrix(-1 0 0 1 315.7194 0)">
				<stop  offset="0" style="stop-color:#497FC0"/>
				<stop  offset="1" style="stop-color:#284A9E"/>
			</linearGradient>
			<rect x="115.2" y="381.3" class="st17" width="16.1" height="31.2"/>
			
				<linearGradient id="SVGID_10_" gradientUnits="userSpaceOnUse" x1="190.5661" y1="371.0463" x2="193.826" y2="422.6607" gradientTransform="matrix(-1 0 0 1 315.7194 0)">
				<stop  offset="0" style="stop-color:#497FC0"/>
				<stop  offset="1" style="stop-color:#284A9E"/>
			</linearGradient>
			<rect x="115.2" y="390.3" class="st18" width="16.1" height="22.2"/>
			
				<linearGradient id="SVGID_11_" gradientUnits="userSpaceOnUse" x1="211.7005" y1="353.4438" x2="216.2214" y2="425.0247" gradientTransform="matrix(-1 0 0 1 315.7194 0)">
				<stop  offset="0" style="stop-color:#497FC0"/>
				<stop  offset="1" style="stop-color:#284A9E"/>
			</linearGradient>
			<rect x="93.5" y="371.6" class="st19" width="16.1" height="40.9"/>
			
				<linearGradient id="SVGID_12_" gradientUnits="userSpaceOnUse" x1="212.2647" y1="367.2338" x2="215.7385" y2="422.2342" gradientTransform="matrix(-1 0 0 1 315.7194 0)">
				<stop  offset="0" style="stop-color:#497FC0"/>
				<stop  offset="1" style="stop-color:#284A9E"/>
			</linearGradient>
			<rect x="93.5" y="381.3" class="st20" width="16.1" height="31.2"/>
			
				<linearGradient id="SVGID_13_" gradientUnits="userSpaceOnUse" x1="233.5703" y1="352.0626" x2="238.0912" y2="423.6436" gradientTransform="matrix(-1 0 0 1 315.7194 0)">
				<stop  offset="0" style="stop-color:#497FC0"/>
				<stop  offset="1" style="stop-color:#284A9E"/>
			</linearGradient>
			<rect x="71.9" y="362" class="st21" width="16.1" height="50.5"/>
			
				<linearGradient id="SVGID_14_" gradientUnits="userSpaceOnUse" x1="234.0763" y1="365.9341" x2="237.5677" y2="421.2148" gradientTransform="matrix(-1 0 0 1 315.7194 0)">
				<stop  offset="0" style="stop-color:#497FC0"/>
				<stop  offset="1" style="stop-color:#284A9E"/>
			</linearGradient>
			<rect x="71.9" y="373.7" class="st22" width="16.1" height="38.7"/>
			
				<linearGradient id="SVGID_15_" gradientUnits="userSpaceOnUse" x1="254.666" y1="350.7303" x2="259.1869" y2="422.3113" gradientTransform="matrix(-1 0 0 1 315.7194 0)">
				<stop  offset="0" style="stop-color:#497FC0"/>
				<stop  offset="1" style="stop-color:#284A9E"/>
			</linearGradient>
			<rect x="50.2" y="377.1" class="st23" width="16.1" height="35.4"/>
			
				<linearGradient id="SVGID_16_" gradientUnits="userSpaceOnUse" x1="254.9859" y1="357.8885" x2="258.9869" y2="421.238" gradientTransform="matrix(-1 0 0 1 315.7194 0)">
				<stop  offset="0" style="stop-color:#497FC0"/>
				<stop  offset="1" style="stop-color:#284A9E"/>
			</linearGradient>
			<rect x="50.2" y="381.3" class="st24" width="16.1" height="31.2"/>
			
				<linearGradient id="SVGID_17_" gradientUnits="userSpaceOnUse" x1="276.52" y1="349.35" x2="281.0409" y2="420.9309" gradientTransform="matrix(-1 0 0 1 315.7194 0)">
				<stop  offset="0" style="stop-color:#497FC0"/>
				<stop  offset="1" style="stop-color:#284A9E"/>
			</linearGradient>
			<rect x="28.6" y="368" class="st25" width="16.1" height="44.4"/>
			
				<linearGradient id="SVGID_18_" gradientUnits="userSpaceOnUse" x1="277.4196" y1="371.5051" x2="280.3663" y2="418.1616" gradientTransform="matrix(-1 0 0 1 315.7194 0)">
				<stop  offset="0" style="stop-color:#497FC0"/>
				<stop  offset="1" style="stop-color:#284A9E"/>
			</linearGradient>
			<rect x="28.6" y="383.9" class="st26" width="16.1" height="28.6"/>
		</g>
		<rect x="18.4" y="411.7" class="st27" width="123.1" height="1.5"/>
		<g>
			
				<linearGradient id="SVGID_19_" gradientUnits="userSpaceOnUse" x1="233.9555" y1="341.3252" x2="235.8381" y2="371.133" gradientTransform="matrix(-1 0 0 1 315.7194 0)">
				<stop  offset="0" style="stop-color:#FFC849"/>
				<stop  offset="1" style="stop-color:#F6904B"/>
			</linearGradient>
			<path class="st28" d="M124.9,374c0.4,0,0.9-0.2,1.2-0.5c0.7-0.7,0.7-1.8,0-2.5l-13.8-13.8c-1.3-1.3-3-2-4.8-2
				c-1.8,0-3.5,0.7-4.8,2c-1.3,1.3-3.4,1.3-4.6,0l-14.1-14.1c-2.6-2.6-6.9-2.6-9.6,0l-14.2,14.2c-1.3,1.3-3.4,1.3-4.6,0l-17.8-17.8
				c-0.7-0.7-1.8-0.7-2.5,0c-0.7,0.7-0.7,1.8,0,2.5l17.8,17.8c2.6,2.6,6.9,2.6,9.6,0L77,345.6c1.3-1.3,3.4-1.3,4.6,0l14.1,14.1
				c2.6,2.6,6.9,2.6,9.6,0c0.6-0.6,1.4-1,2.3-1c0.9,0,1.7,0.3,2.3,1l13.8,13.8C124,373.8,124.5,374,124.9,374z"/>
		</g>
	</g>
	<rect x="188.5" y="379.8" class="st10" width="13.2" height="13.2"/>
	<rect x="188.5" y="401.8" class="st10" width="13.2" height="13.2"/>
	<g>
		
			<linearGradient id="SVGID_20_" gradientUnits="userSpaceOnUse" x1="115.1214" y1="384.7136" x2="129.6337" y2="384.7136" gradientTransform="matrix(-1 0 0 1 315.7194 0)">
			<stop  offset="0" style="stop-color:#497FC0"/>
			<stop  offset="1" style="stop-color:#284A9E"/>
		</linearGradient>
		<polygon class="st29" points="195.2,390.1 200.6,384.7 199,383.1 195.2,386.8 187.7,379.3 186.1,381 		"/>
	</g>
	<g>
		
			<linearGradient id="SVGID_21_" gradientUnits="userSpaceOnUse" x1="341.2098" y1="270.3868" x2="231.8011" y2="338.2075" gradientTransform="matrix(-1 0 0 1 315.7194 0)">
			<stop  offset="0" style="stop-color:#333333"/>
			<stop  offset="1" style="stop-color:#000000"/>
		</linearGradient>
		<path class="st30" d="M-29.9,276.1H85.4c2.6,0,4.7,2.1,4.7,4.7v45.3c0,2.6-2.1,4.7-4.7,4.7H-29.9c-2.6,0-4.7-2.1-4.7-4.7v-45.3
			C-34.5,278.2-32.4,276.1-29.9,276.1z"/>
		
			<linearGradient id="SVGID_22_" gradientUnits="userSpaceOnUse" x1="235.761" y1="327.1303" x2="361.3411" y2="251.7822" gradientTransform="matrix(-1 0 0 1 315.7194 0)">
			<stop  offset="0" style="stop-color:#FFFFFF"/>
			<stop  offset="0.3811" style="stop-color:#FBFBFB"/>
			<stop  offset="0.7829" style="stop-color:#EFEFEE"/>
			<stop  offset="1" style="stop-color:#E5E5E4"/>
		</linearGradient>
		<path class="st31" d="M-43.6,260.3H71.7c2.6,0,4.7,2.1,4.7,4.7v45.3c0,2.6-2.1,4.7-4.7,4.7H-43.6c-2.6,0-4.7-2.1-4.7-4.7v-45.3
			C-48.2,262.4-46.2,260.3-43.6,260.3z"/>
		
			<linearGradient id="SVGID_23_" gradientUnits="userSpaceOnUse" x1="301.6662" y1="250.499" x2="301.6662" y2="291.9407" gradientTransform="matrix(-1 0 0 1 315.7194 0)">
			<stop  offset="0" style="stop-color:#333333"/>
			<stop  offset="1" style="stop-color:#000000"/>
		</linearGradient>
		<path class="st32" d="M-43.6,260.3H71.7c2.6,0,4.7,2.1,4.7,4.7v11.2H-48.2v-11.2C-48.2,262.4-46.2,260.3-43.6,260.3z"/>
		<circle class="st33" cx="65.3" cy="268.2" r="2.8"/>
		<circle class="st34" cx="56.9" cy="268.2" r="2.8"/>
		<circle class="st35" cx="48.5" cy="268.2" r="2.8"/>
		<g>
			<g>
				<rect x="34" y="282.9" class="st15" width="33.2" height="4.2"/>
			</g>
			<g>
				<rect x="-2.7" y="282.9" class="st15" width="33.2" height="4.2"/>
			</g>
			<g>
				<rect x="-39.3" y="282.9" class="st15" width="33.2" height="4.2"/>
			</g>
			<g>
				<rect x="34" y="289.6" class="st15" width="33.2" height="4.2"/>
			</g>
			<g>
				<rect x="-2.7" y="289.6" class="st15" width="41.4" height="4.2"/>
			</g>
			<g>
				<rect x="-39.3" y="289.6" class="st15" width="33.2" height="4.2"/>
			</g>
			<g>
				<rect x="34" y="296.4" class="st15" width="33.2" height="4.2"/>
			</g>
			<g>
				<rect x="-7.5" y="296.4" class="st15" width="38.1" height="4.2"/>
			</g>
			<g>
				<rect x="-39.3" y="296.4" class="st15" width="33.2" height="4.2"/>
			</g>
			<g>
				<rect x="34" y="303.1" class="st15" width="33.2" height="4.2"/>
			</g>
			<g>
				<rect x="10.9" y="303.1" class="st15" width="19.6" height="4.2"/>
			</g>
			<g>
				<rect x="-39.3" y="303.1" class="st15" width="46.8" height="4.2"/>
			</g>
		</g>
	</g>
	<rect x="8.6" y="439.8" class="st10" width="7" height="7"/>
	<g>
		<g>
			
				<linearGradient id="SVGID_24_" gradientUnits="userSpaceOnUse" x1="262.2767" y1="427.9168" x2="363.9612" y2="366.906" gradientTransform="matrix(-1 0 0 1 315.7194 0)">
				<stop  offset="0" style="stop-color:#333333"/>
				<stop  offset="1" style="stop-color:#000000"/>
			</linearGradient>
			<path class="st36" d="M-32,349.7h64.2c2.2,0,4,1.8,4,4V438c0,2.2-1.8,4-4,4H-32c-2.2,0-4-1.8-4-4v-84.3
				C-36,351.5-34.2,349.7-32,349.7z"/>
			
				<linearGradient id="SVGID_25_" gradientUnits="userSpaceOnUse" x1="302.1352" y1="366.6637" x2="352.3675" y2="450.5515" gradientTransform="matrix(-1 0 0 1 315.7194 0)">
				<stop  offset="0" style="stop-color:#FFFFFF"/>
				<stop  offset="0.3811" style="stop-color:#FBFBFB"/>
				<stop  offset="0.7829" style="stop-color:#EFEFEE"/>
				<stop  offset="1" style="stop-color:#E5E5E4"/>
			</linearGradient>
			<path class="st37" d="M-43.1,361.5h64.2c2.2,0,4,1.8,4,4v84.3c0,2.2-1.8,4-4,4h-64.2c-2.2,0-4-1.8-4-4v-84.3
				C-47.1,363.3-45.3,361.5-43.1,361.5z"/>
			
				<linearGradient id="SVGID_26_" gradientUnits="userSpaceOnUse" x1="326.6924" y1="353.0775" x2="326.6924" y2="388.7887" gradientTransform="matrix(-1 0 0 1 315.7194 0)">
				<stop  offset="0" style="stop-color:#333333"/>
				<stop  offset="1" style="stop-color:#000000"/>
			</linearGradient>
			<path class="st38" d="M-43.1,361.5h64.2c2.2,0,4,1.8,4,4v9.6h-72.2v-9.6C-47.1,363.3-45.3,361.5-43.1,361.5z"/>
		</g>
		<g>
			<g>
				<circle class="st33" cx="17" cy="368.3" r="2.8"/>
				<circle class="st34" cx="8.6" cy="368.3" r="2.8"/>
				<circle class="st35" cx="0.2" cy="368.3" r="2.8"/>
			</g>
			<g>
				<path class="st34" d="M-19.2,395.3l-7.8-4.5c3.2-4.6,8.4-7.7,14.2-8.2v9.1C-15.4,392-17.6,393.4-19.2,395.3z"/>
				<path class="st33" d="M-21,405.8l-7.8,4.5c-1.2-2.5-1.8-5.3-1.8-8.2c0-2.9,0.6-5.7,1.8-8.2l7.8,4.5c-0.4,1.2-0.7,2.4-0.7,3.7
					C-21.7,403.4-21.4,404.7-21,405.8z"/>
				<g>
					
						<linearGradient id="SVGID_27_" gradientUnits="userSpaceOnUse" x1="346.9865" y1="391.7005" x2="310.5961" y2="397.3935" gradientTransform="matrix(-1 0 0 1 315.7194 0)">
						<stop  offset="0" style="stop-color:#497FC0"/>
						<stop  offset="1" style="stop-color:#284A9E"/>
					</linearGradient>
					<path class="st39" d="M-0.9,405.8c0.4-1.2,0.7-2.4,0.7-3.7c0-5.3-3.8-9.7-8.9-10.5v-9.1c10,0.9,17.9,9.3,17.9,19.6
						c0,2.9-0.6,5.7-1.8,8.2L-0.9,405.8z"/>
					
						<linearGradient id="SVGID_28_" gradientUnits="userSpaceOnUse" x1="318.0042" y1="406.9183" x2="355.5109" y2="437.3925" gradientTransform="matrix(-1 0 0 1 315.7194 0)">
						<stop  offset="0" style="stop-color:#497FC0"/>
						<stop  offset="1" style="stop-color:#284A9E"/>
					</linearGradient>
					<path class="st40" d="M-19.2,409c2,2.4,4.9,3.8,8.2,3.8c3.3,0,6.3-1.5,8.2-3.8l7.8,4.5c-3.6,5-9.4,8.3-16.1,8.3
						c-6.6,0-12.5-3.3-16.1-8.3L-19.2,409z"/>
				</g>
			</g>
			<g>
				<rect x="-38.5" y="430.8" class="st10" width="43.3" height="2.2"/>
			</g>
			<g>
				<rect x="-38.5" y="442.2" class="st10" width="43.3" height="2.2"/>
			</g>
			<rect x="8.6" y="428.1" class="st10" width="7" height="7"/>
			<g>
				
					<linearGradient id="SVGID_29_" gradientUnits="userSpaceOnUse" x1="300.7899" y1="430.7481" x2="308.4593" y2="430.7481" gradientTransform="matrix(-1 0 0 1 315.7194 0)">
					<stop  offset="0" style="stop-color:#497FC0"/>
					<stop  offset="1" style="stop-color:#284A9E"/>
				</linearGradient>
				<polygon class="st41" points="12.1,433.6 14.9,430.7 14.1,429.9 12.1,431.9 8.1,427.9 7.3,428.8 				"/>
			</g>
		</g>
	</g>
	<g>
		
			<linearGradient id="SVGID_30_" gradientUnits="userSpaceOnUse" x1="1182.0037" y1="-116.2395" x2="1188.0819" y2="-116.2395" gradientTransform="matrix(-0.7071 -0.7071 -0.7071 0.7071 707.5495 1245.2986)">
			<stop  offset="0" style="stop-color:#FFC849"/>
			<stop  offset="1" style="stop-color:#F6904B"/>
		</linearGradient>
		<polygon class="st42" points="-56.5,329.2 -52.2,333.5 -39.9,321.2 -44.2,316.9 		"/>
		
			<linearGradient id="SVGID_31_" gradientUnits="userSpaceOnUse" x1="1111.3226" y1="624.1748" x2="1168.2891" y2="624.7407" gradientTransform="matrix(4.489700e-011 -1 -1 -4.489700e-011 596.835 1449.4766)">
			<stop  offset="0" style="stop-color:#497FC0"/>
			<stop  offset="1" style="stop-color:#284A9E"/>
		</linearGradient>
		<path class="st43" d="M-43.5,288.6c-8.7,8.7-8.7,22.9,0,31.7c8.7,8.7,22.9,8.7,31.7,0s8.7-22.9,0-31.7
			C-20.6,279.8-34.8,279.8-43.5,288.6z M-14.5,291.3c7.3,7.3,7.3,19.1,0,26.3s-19.1,7.3-26.3,0c-7.3-7.3-7.3-19.1,0-26.3
			C-33.6,284-21.8,284-14.5,291.3z"/>
		
			<linearGradient id="SVGID_32_" gradientUnits="userSpaceOnUse" x1="1197.4626" y1="-159.639" x2="1161.6501" y2="-118.129" gradientTransform="matrix(-0.7071 -0.7071 -0.7071 0.7071 707.5495 1245.2986)">
			<stop  offset="0" style="stop-color:#FFFFFF"/>
			<stop  offset="0.1163" style="stop-color:#F8FBFE"/>
			<stop  offset="0.282" style="stop-color:#E6F1F9"/>
			<stop  offset="0.4773" style="stop-color:#C7E1F3"/>
			<stop  offset="0.6952" style="stop-color:#9CCAEA"/>
			<stop  offset="0.929" style="stop-color:#66ADDE"/>
			<stop  offset="1" style="stop-color:#54A3DA"/>
		</linearGradient>
		<path class="st44" d="M-40.8,317.6c7.3,7.3,19.1,7.3,26.3,0s7.3-19.1,0-26.3c-7.3-7.3-19.1-7.3-26.3,0
			C-48.1,298.5-48.1,310.3-40.8,317.6z"/>
		
			<linearGradient id="SVGID_33_" gradientUnits="userSpaceOnUse" x1="1174.2867" y1="-103.4759" x2="1192.6534" y2="-103.2935" gradientTransform="matrix(-0.7071 -0.7071 -0.7071 0.7071 707.5495 1245.2986)">
			<stop  offset="0" style="stop-color:#497FC0"/>
			<stop  offset="1" style="stop-color:#284A9E"/>
		</linearGradient>
		<path class="st45" d="M-43.6,330.5l-12.5,12.5c-2.8,2.8-7.3,2.8-10.1,0h0c-2.8-2.8-2.8-7.3,0-10.1l12.5-12.5L-43.6,330.5z"/>
	</g>
	<g>
		<path class="st33" d="M255.6,410.4c0,0-25,15.9-46.9,5.5c0,0-1,0.5-4.5-6.1c-5-3.5,0.1,4.5-1.7,4.8c-1.7,0.4-8.1-1.5-9.9-6.6
			c-2.5-3.2-3,2.3-0.8,5.7c2.2,3.4,5.9,8.5,11.3,8.3c5.5-0.2,23,13.1,39.5,11.9c16.5-1.3,25.8-8,25.8-8L255.6,410.4z"/>
		<polygon class="st33" points="223.7,523.6 220,536.7 226.7,537.1 231.6,524.6 		"/>
		<polygon class="st33" points="281.6,516.7 286.5,529.4 292.1,525.8 288.6,512.8 		"/>
		
			<linearGradient id="SVGID_34_" gradientUnits="userSpaceOnUse" x1="2314.9685" y1="515.6363" x2="2328.7402" y2="515.6363" gradientTransform="matrix(1 0 0 1 -2036.0077 0)">
			<stop  offset="0" style="stop-color:#333333"/>
			<stop  offset="1" style="stop-color:#1A1A1A"/>
		</linearGradient>
		<path class="st46" d="M279.3,515c0,0-0.4,0.7-0.3,1c0.2,0.4,1.1,4.9,3.5,4.5c2.4-0.4,9.7-3,10.2-4.1c0.5-1.1-1.4-6.9-3.3-5.5
			C287.5,512.4,279.3,515,279.3,515z"/>
		
			<linearGradient id="SVGID_35_" gradientUnits="userSpaceOnUse" x1="2256.0229" y1="522.6768" x2="2272.782" y2="522.6768" gradientTransform="matrix(1 0 0 1 -2036.0077 0)">
			<stop  offset="0" style="stop-color:#333333"/>
			<stop  offset="1" style="stop-color:#1A1A1A"/>
		</linearGradient>
		<path class="st47" d="M221.9,517.2c0,0-0.9,0.4-1,0.9c-0.1,0.5-2.3,5.9,0.5,7.1c2.8,1.3,12.2,3.6,13.5,2.8c1.2-0.8,3.4-8.2,0.4-8
			C232.3,520.2,221.9,517.2,221.9,517.2z"/>
		<path class="st33" d="M308.6,381.3h-24.1V377c5.5-11.5-1.2-19.7-3.1-19.2c-6.9,1.4-8.5-0.9-9.2-7.2c0-0.4-0.1-0.9-0.1-1.4
			c-0.1-1.4-0.2-3-0.3-4.7c-1.5-0.7-3.4-0.4-3.4-1.3c0-0.9,1.9-4.5,2.9-6.3c-0.2-13.5,8.2-20.4,8.2-20.4H302v32.4h-7.8
			C309.3,361.3,308.6,381.3,308.6,381.3z"/>
		<path class="st48" d="M308.6,381.3c0,0,0.8-20-14.4-32.4c0,0,9.8,10,8.3,32.4H308.6z"/>
		<path class="st48" d="M290.5,356c-2.9,1.4-8.9,1.7-8.9,1.7v0c0.7,0.1,1.7,1,2.7,2.4C288.2,359.2,290.5,356,290.5,356z"/>
		
			<linearGradient id="SVGID_36_" gradientUnits="userSpaceOnUse" x1="2290.9399" y1="492.193" x2="2326.4446" y2="492.193" gradientTransform="matrix(1 0 0 1 -2036.0077 0)">
			<stop  offset="0" style="stop-color:#333333"/>
			<stop  offset="1" style="stop-color:#1A1A1A"/>
		</linearGradient>
		<path class="st49" d="M254.9,474.2c0,0,19.7,27.4,25.2,41.4c0,0,9.2-2.1,10.3-3.9c1-1.9-7.9-37.3-5.1-43L254.9,474.2z"/>
		<g>
			<polygon class="st48" points="302.9,468.4 311.4,470.2 311.7,471.1 329.2,523.4 324.6,523.7 301.6,477 298.9,471.3 			"/>
			<polygon class="st33" points="326.4,523.4 308.8,471.1 308.6,470.2 302.2,468.9 298.9,471.3 301.6,477 324.5,523.5 			"/>
			<path class="st48" d="M365.9,383.1l-12.7,4.9c-0.7,10.7-3.4,21.5-8,31.9c-16.7,37.3-54.7,58.5-93.3,55.5l-1.4,3.5
				c6.2,1.4,12.5,2.2,18.7,2.4l-24.8,63.6l4.7,0.4l33.2-64.6c32.1-3.6,61.5-23.6,75.6-55.2C363.9,411.8,366.5,397.3,365.9,383.1z"/>
			
				<linearGradient id="SVGID_37_" gradientUnits="userSpaceOnUse" x1="-48.3576" y1="463.3239" x2="70.5505" y2="463.3239" gradientTransform="matrix(-1 0 0 1 315.7194 0)">
				<stop  offset="0" style="stop-color:#FFC849"/>
				<stop  offset="1" style="stop-color:#F6904B"/>
			</linearGradient>
			<path class="st50" d="M269.1,481.3l-23.9,61.3l1.9,0.2l33.2-64.6c32.1-3.6,61.5-23.6,75.6-55.2c5.7-12.7,8.3-26.1,8.2-39.2
				l-10.9,4.2c-0.7,10.7-3.4,21.5-8,31.9c-16.7,37.3-54.7,58.5-93.3,55.5l-0.6,1.5c5.3,1.1,10.6,1.7,16,1.8l-0.9,2.4
				C267.2,481.2,268.2,481.3,269.1,481.3z"/>
		</g>
		
			<linearGradient id="SVGID_38_" gradientUnits="userSpaceOnUse" x1="2257.9141" y1="474.198" x2="2367.2537" y2="474.198" gradientTransform="matrix(1 0 0 1 -2036.0077 0)">
			<stop  offset="0" style="stop-color:#333333"/>
			<stop  offset="1" style="stop-color:#1A1A1A"/>
		</linearGradient>
		<path class="st51" d="M278.9,429.5c0,0,2.1,8.1-18.2,15.1s-25.1,4.1-31.3,39.7c-6.2,35.6-7.5,32.9-7.5,32.9s3.7,3.9,13.3,2.9
			c1.9-4.2,2.7-5.4,2.5-6.5c-0.2-1.1,3-5.2,3.6-7.6c0.5-2.4,8.4-25.4,21.4-30.2c13-4.8,28.6-1.9,39.2-7.5
			c10.6-5.6,31.3-15.1,29.1-40L278.9,429.5z"/>
		
			<linearGradient id="SVGID_39_" gradientUnits="userSpaceOnUse" x1="2276.4631" y1="489.5158" x2="2345.7427" y2="447.7062" gradientTransform="matrix(1 0 0 1 -2036.0077 0)">
			<stop  offset="0" style="stop-color:#333333"/>
			<stop  offset="1" style="stop-color:#1A1A1A"/>
		</linearGradient>
		<path class="st52" d="M331.1,428.2l-16.8,0.4c-2.3,2.1-4.7,5.1-3.4,7.5c2.3,4.1,5.7,10-2.7,14.9c-8.3,4.9-10.4,1.1-13.9,6.2
			c-3.5,5-7.3,6-12,8.4c-2.4,1.2-4.9,4.4-4.9,7.2c8.9-0.9,17.8-1,24.6-4.6C312.6,462.6,333.3,453.2,331.1,428.2z"/>
		<path class="st53" d="M327.8,432.7l3.4-1.5c0-1-0.1-2-0.2-3l-52.1,1.3c0,0,0.8,3-3.3,7C284.1,439.3,303.4,443.3,327.8,432.7z"/>
		<g>
			<path class="st53" d="M278.7,348.8c-1.7,1.6-3.4,2-4.8,2c-0.6,0-1.2-0.1-1.6-0.2c0-0.4-0.1-0.9-0.1-1.4c0.9,0.3,3.4,0.9,5.7-1.4
				L278.7,348.8z"/>
		</g>
		<path class="st9" d="M284.4,363.9c0,0,7.8,5,20-5.4c0,0,20.7,10.7,28.1,39.4c7.4,28.7,3.8,29.9-1,32c-4.8,2.1-39,9.6-52,2.7
			C277.2,417.9,272.7,383.8,284.4,363.9z"/>
		<path class="st9" d="M331.4,429.9c4.8-2.1,8.4-3.3,1-32c-7.4-28.7-28.1-39.4-28.1-39.4c-0.2,0.1-0.3,0.3-0.5,0.4
			c2.7,2.3,5.5,5.2,6.3,7.9c1.7,5.9,2.8,11.4,8.1,18.9c5.2,7.5,11.1,28,3.7,34.8c-7.4,6.8-13,8.2-19.2,8.9s-10.3-0.5-15,5.2
			c-0.1,0.1-0.2,0.2-0.2,0.3C303,437.1,327.4,431.6,331.4,429.9z"/>
		<g>
			<defs>
				<path id="SVGID_40_" d="M284.4,363.9c0,0,7.8,5,20-5.4c0,0,20.7,10.7,28.1,39.4c7.4,28.7,3.8,29.9-1,32c-4.8,2.1-39,9.6-52,2.7
					C277.2,417.9,272.7,383.8,284.4,363.9z"/>
			</defs>
			<use xlink:href="#SVGID_40_"  style="overflow:visible;fill:#FCB913;"/>
			<clipPath id="SVGID_41_">
				<use xlink:href="#SVGID_40_"  style="overflow:visible;"/>
			</clipPath>
		</g>
		<path class="st48" d="M255.6,410.4c0,0-1,0.7-2.9,1.6c0.6,1.3,2.1,3.2,6.1,6.3c4,3.1,4.5,5.7,4.9,7.8c0.1,0.7,0.3,1.5,0.6,2.3
			c2.7-1.3,4.2-2.4,4.2-2.4L255.6,410.4z"/>
		<path class="st9" d="M254.4,410.1c0,0,4.8-7.9,13-13.1c8.2-5.2,20.9-20.7,24.6-20.9c3.8-0.1,12-4,15.9,6.8
			c2.4,7.9-9.6,19.5-10.6,22.5c-1,3-6,10.5-8.6,11.6c-2.6,1.1-17.4,13.8-21.3,12.2c-3.9-1.6,0.1-6.4-7.6-12.3
			C252,411.1,254.4,410.1,254.4,410.1z"/>
		<path class="st9" d="M303.3,383c-1.8-5-4.5-6.9-7.3-7.4c-1.6,0.2-2.9,0.5-4,0.6c-3.8,0.1-16.4,15.6-24.6,20.9
			c-8.2,5.2-13,13.1-13,13.1s-2.4,1,5.4,6.9c6.9,5.3,4.5,9.7,6.7,11.7c5.9-2.5,15.6-10.7,17.7-11.6c2.6-1.1,7.6-8.7,8.6-11.6
			C293.8,402.5,305.7,390.9,303.3,383z"/>
		<g>
			<path class="st9" d="M278.3,424.6l-0.1-0.3c4-3.1,13.8-7.6,19-18.9c0.4-0.8,1.4-2.3,2.8-4.2c3.8-5,9.5-12.5,7.8-18.2
				c-3.1-8.8-9.3-7.7-13.3-7c-0.9,0.2-1.7,0.3-2.4,0.3c-1.9,0.1-6.5,4.5-11.4,9.3c-1.1,1.1-2.2,2.1-3.3,3.2l-0.2-0.2
				c1.1-1.1,2.2-2.2,3.3-3.2c5.1-5,9.6-9.3,11.6-9.4c0.7,0,1.4-0.2,2.3-0.3c4.2-0.7,10.4-1.8,13.7,7.3c1.8,5.8-4,13.4-7.8,18.4
				c-1.4,1.9-2.4,3.4-2.8,4.1C291.3,417.6,281.2,422.9,278.3,424.6z"/>
		</g>
		<g>
			
				<linearGradient id="SVGID_42_" gradientUnits="userSpaceOnUse" x1="2235.6594" y1="539.8121" x2="2267.6255" y2="539.8121" gradientTransform="matrix(1 0 0 1 -2036.0077 0)">
				<stop  offset="0" style="stop-color:#FFF278"/>
				<stop  offset="1" style="stop-color:#F57F20"/>
			</linearGradient>
			<path class="st54" d="M231.2,542.7c-0.9-1.3-0.1-7.6-1.2-9.7c-0.1-0.2-0.2-0.3-0.4-0.5c-1.1,0.9-2.8,1.3-4.7,1
				c-1.6-0.3-3-1-3.8-2c-0.2-0.2-0.4-0.2-0.6,0c-5.8,7.8-10.3,7.7-15.1,6.8c-2.9-0.5-4.6,1.6-5.5,3.4c-0.6,1.2,0.2,2.6,1.5,2.8
				c5.1,0.6,17,2.2,23,3.2C232.1,549.3,232.1,544,231.2,542.7z"/>
			<path class="st16" d="M230.8,546.5c-9-0.4-25-2.8-31.2-3.7c0,0.9,0.7,1.7,1.7,1.9c5.1,0.6,17,2.2,23,3.2
				C227.9,548.6,229.9,547.7,230.8,546.5z"/>
		</g>
		<g>
			
				<linearGradient id="SVGID_43_" gradientUnits="userSpaceOnUse" x1="2305.6726" y1="533.2589" x2="2335.5645" y2="533.2589" gradientTransform="matrix(1 0 0 1 -2036.0077 0)">
				<stop  offset="0" style="stop-color:#FFF278"/>
				<stop  offset="1" style="stop-color:#F57F20"/>
			</linearGradient>
			<path class="st55" d="M298.1,529.8c-1.4-0.7-3.5-6.7-5.4-8.1c-0.2-0.1-0.4-0.2-0.6-0.2c-0.6,1.3-2,2.4-3.8,3
				c-1.6,0.5-3.1,0.4-4.3,0c-0.2-0.1-0.5,0-0.5,0.3c-1.7,9.5-5.8,11.4-10.5,12.8c-2.8,0.8-3.4,3.5-3.4,5.5c0,1.3,1.3,2.3,2.6,1.8
				c4.8-1.7,16.2-5.6,22-7.3C301.8,535.4,299.5,530.6,298.1,529.8z"/>
			<path class="st16" d="M299.5,533.5c-8.2,3.7-23.6,8.7-29.6,10.5c0.4,0.8,1.4,1.2,2.4,0.9c4.8-1.7,16.2-5.6,22-7.3
				C297.8,536.6,299.2,535,299.5,533.5z"/>
		</g>
		
			<linearGradient id="SVGID_44_" gradientUnits="userSpaceOnUse" x1="2267.3799" y1="497.0499" x2="2305.6726" y2="497.0499" gradientTransform="matrix(1 0 0 1 -2036.0077 0)">
			<stop  offset="0" style="stop-color:#333333"/>
			<stop  offset="1" style="stop-color:#1A1A1A"/>
		</linearGradient>
		<path class="st56" d="M247,488.7c-7.6,15.2-5.8,16.3-7.4,16.8c-1.6,0.6-3.1,6.1-3.9,7.2c-0.6,1-2.5,5.1-4.3,7.4
			c1.2,0,2.5,0,3.9-0.2c1.9-4.2,2.7-5.4,2.5-6.5c-0.2-1.1,3-5.2,3.6-7.6c0.5-2.4,8.4-25.4,21.4-30.2c2.2-0.8,4.5-1.4,6.9-1.9v0
			C269.7,473.9,254.6,473.5,247,488.7z"/>
		<g>
			<path class="st57" d="M289.4,367.8c-0.5,0-1,0-1.4-0.1c-4.3-0.5-6.2-3-6.3-3.1l0.3-0.2c0,0,1.9,2.5,6.1,3
				c3.7,0.4,10-0.7,19.1-8.5l0.2,0.2C300.5,364.9,294.5,367.8,289.4,367.8z"/>
		</g>
		<g>
			<path class="st58" d="M336.8,432.7l-0.3-0.2c7.3-13.1,10.5-26.3,12-35c1.6-9.5,1.4-16,1.4-16.1l0.3,0c0,0.1,0.2,6.6-1.4,16.1
				C347.4,406.4,344.1,419.6,336.8,432.7z"/>
		</g>
		<path id="Hair_2_" class="st59" d="M266.6,306.4c5.4,5.3,40.6-2.9,41.7,22.2c4.3,13.3-3.3,24.7-11.1,27.5
			c-1.4-2.6-2.6-5.1-3.7-7.5c1.4-0.9,2.4-2.4,2.8-4.2c0.7-3.5-1.6-7-5-7.7c-0.8-0.2-1.6-0.2-2.4,0c-2-5.4-3.7-9.5-6.7-12.1
			C266.5,322.7,263.5,314.8,266.6,306.4z"/>
	</g>
	
		<linearGradient id="SVGID_45_" gradientUnits="userSpaceOnUse" x1="285.5548" y1="443.2642" x2="385.7194" y2="443.2642" gradientTransform="matrix(-1 0 0 1 315.7194 0)">
		<stop  offset="0" style="stop-color:#FFC849"/>
		<stop  offset="1" style="stop-color:#F6904B"/>
	</linearGradient>
	<polygon class="st60" points="-53.4,418.4 -57,421.7 -39.9,438.4 -30.8,428.7 -5.5,452.3 2.5,443.8 30.2,471.7 28.8,473.4 
		2.9,454.1 -5.1,462.6 -30.5,439.1 -39.7,448.9 -62.5,426.7 -66.2,430.1 -70,413.1 	"/>
</g>
</svg>
