<?xml version="1.0" encoding="utf-8"?>
<!-- Generator: Adobe Illustrator 19.0.0, SVG Export Plug-In . SVG Version: 6.00 Build 0)  -->
<svg version="1.1" id="Layer_1" xmlns="http://www.w3.org/2000/svg" xmlns:xlink="http://www.w3.org/1999/xlink" x="0px" y="0px"
	 viewBox="14 35.7 451.1 349.3" style="enable-background:new 14 35.7 451.1 349.3;" xml:space="preserve">
<style type="text/css">
	.st0{display:none;}
	.st1{display:inline;fill:#632C8F;stroke:#FFFFFF;stroke-linejoin:bevel;stroke-miterlimit:5;stroke-dasharray:12,12,5,10;}
	.st2{fill:#EBEBEB;}
	.st3{opacity:0.2;}
	.st4{fill:#F1F0F0;}
	.st5{fill:#F5F5F5;}
	.st6{opacity:0.2;fill:#F5F5F5;}
	.st7{opacity:0.2;fill:#D4D4D4;}
	.st8{fill:#FDBA16;}
	.st9{opacity:0.2;enable-background:new    ;}
	.st10{fill:#E47C62;}
	.st11{fill:#5274B8;}
	.st12{opacity:0.1;fill:url(#XMLID_2_);enable-background:new    ;}
	.st13{fill:#263238;}
	.st14{opacity:0.2;fill:#FFFFFF;enable-background:new    ;}
	.st15{opacity:0.4;fill:#FFFFFF;enable-background:new    ;}
	.st16{opacity:0.3;}
	.st17{fill:#FFFFFF;}
	.st18{fill:#D14D38;}
	.st19{opacity:0.3;fill:#FFFFFF;enable-background:new    ;}
	.st20{opacity:0.1;fill:#FDBA16;enable-background:new    ;}
	.st21{fill:#FDBA12;}
	.st22{opacity:0.4;}
	.st23{opacity:0.3;enable-background:new    ;}
	.st24{fill:#E77B62;}
	.st25{opacity:0.6;}
	.st26{fill:none;stroke:#FDBA12;stroke-miterlimit:10;stroke-dasharray:12,12,5,10;}
</style>
<g id="Layer_2" class="st0">
	<rect id="XMLID_53_" x="34.6" y="20.2" class="st1" width="544.4" height="399.3"/>
</g>
<g id="Layer_1_1_">
	<rect id="XMLID_271_" x="123.3" y="348.9" class="st2" width="93.7" height="0.3"/>
	<g id="XMLID_265_" class="st3">
		<path id="XMLID_270_" class="st4" d="M146.2,112.5c12.3,0,46.8,5,46.8-13.5c0-15.7-16.8-14.6-16.8-14.6s0.5-13.6-14.5-15.4
			C146.3,67.1,144,81.9,144,81.9s-26.7-9.4-22.7,14.2c0,0-14.8-2.6-14.8,8C106.4,115.8,134.3,112.4,146.2,112.5z"/>
		<g id="XMLID_267_">
			<path id="XMLID_269_" class="st5" d="M130.7,252.5c25,0.1,94.9,11.5,94.9-30.9c0-36-34.2-33.4-34.2-33.4s1-31.2-29.5-35.4
				c-31.2-4.3-36,29.5-36,29.5S71.7,160.8,80,214.7c0,0-30.1-6-30.1,18.3C49.9,260.2,106.5,252.4,130.7,252.5z"/>
			<path id="XMLID_268_" class="st4" d="M223.9,256.2c-13.8,0-52.5,6.4-52.5-17.1c0-19.9,18.9-18.5,18.9-18.5s-0.5-17.3,16.3-19.6
				c17.3-2.4,19.9,16.3,19.9,16.3s30-11.9,25.4,17.9c0,0,16.6-3.3,16.6,10.1C268.6,260.5,237.3,256.2,223.9,256.2z"/>
		</g>
		<path id="XMLID_266_" class="st4" d="M301,157.9c13.8,0,52.4,5.3,52.4-14.2c0-16.6-18.9-15.4-18.9-15.4s0.5-14.4-16.3-16.3
			c-17.2-2-19.8,13.6-19.8,13.6s-30-9.9-25.4,15c0,0-16.6-2.8-16.6,8.4C256.4,161.5,287.6,157.9,301,157.9z"/>
	</g>
	<path id="XMLID_264_" class="st6" d="M295.2,326.8c21.9,0.1,83.2,10.1,83.2-27.1c0-31.6-30-29.3-30-29.3s0.9-27.4-25.8-31
		c-27.4-3.7-31.5,25.8-31.5,25.8s-47.5-18.8-40.3,28.4c0,0-26.4-5.3-26.4,16C224.4,333.6,274,326.8,295.2,326.8z"/>
	<rect id="XMLID_263_" x="96.4" y="344.7" class="st2" width="6.3" height="0.3"/>
	<ellipse id="_x3C_Path_x3E__359_" class="st7" cx="244" cy="369.5" rx="193.9" ry="11.3"/>
	<g id="XMLID_250_">
		<g id="XMLID_260_">
			<rect id="XMLID_262_" x="231.5" y="209.5" class="st8" width="59.2" height="160"/>
			<rect id="XMLID_261_" x="231.5" y="209.3" class="st9" width="16.7" height="160.2"/>
		</g>
		<g id="XMLID_257_">
			<rect id="XMLID_259_" x="172.3" y="273.5" class="st8" width="59.2" height="96"/>
			<rect id="XMLID_258_" x="172.3" y="273.5" class="st9" width="17.8" height="95.9"/>
		</g>
		<g id="XMLID_254_">
			<rect id="XMLID_256_" x="113" y="293.9" class="st8" width="59.2" height="75.6"/>
			<rect id="XMLID_255_" x="113" y="293.9" class="st9" width="17.6" height="75.5"/>
		</g>
		<g id="XMLID_251_">
			<rect id="XMLID_253_" x="53.9" y="314.3" class="st8" width="59.2" height="55.2"/>
			<rect id="XMLID_252_" x="53.9" y="314.2" class="st9" width="16.7" height="55.2"/>
		</g>
	</g>
	<g id="XMLID_140_">
		<g id="XMLID_142_">
			<g id="XMLID_241_">
				<path id="XMLID_249_" class="st8" d="M214.7,85.9c-2.8,3.4-5.7,6.7-8.6,10l-2.2,2.5l-2,2.2c-0.8,1-1.3,2.1-1.5,3.5l-0.7,6.5
					c-0.2,2.2-0.4,4.4-0.7,6.6c-0.5,4.4-1,8.8-1.6,13.1c-0.2,1.5-1.6,2.6-3.1,2.4c-1.4-0.2-2.3-1.3-2.4-2.6
					c-0.3-4.4-0.4-8.8-0.6-13.2c-0.1-2.2-0.1-4.4-0.2-6.6l-0.1-6.7c0-3.1,1.1-6.2,2.8-8.8l2.2-2.9l2-2.6c2.7-3.5,5.3-7,8-10.4
					c1.9-2.4,5.5-2.8,7.9-0.9C216.3,79.9,216.7,83.4,214.7,85.9C214.8,85.8,214.7,85.8,214.7,85.9z"/>
				<g id="XMLID_246_">
					<path id="XMLID_248_" class="st10" d="M191.3,130.5l-3.7,6.2l8.4,0.9l1.5-6.3c0.2-0.7-0.3-1.5-1.1-1.6
						C195.1,129.4,192.9,129.3,191.3,130.5z"/>
					<path id="XMLID_247_" class="st10" d="M187.6,136.7l0.4,2.2c0.2,1.1,1.1,1.9,2.2,1.9h2.7c0.8,0,1.6-0.5,2-1.2l1.1-2
						L187.6,136.7z"/>
				</g>
				<g id="XMLID_242_">
					<g id="XMLID_244_">
						<polygon id="XMLID_245_" class="st11" points="190.7,125.8 198.8,126.1 198.2,130.9 191.4,130.4 						"/>
					</g>
					
						<linearGradient id="XMLID_2_" gradientUnits="userSpaceOnUse" x1="190.6729" y1="295.05" x2="198.7729" y2="295.05" gradientTransform="matrix(1 0 0 -1 0 423.4)">
						<stop  offset="0" style="stop-color:#5B2669"/>
						<stop  offset="0.6581" style="stop-color:#491E5A"/>
						<stop  offset="1" style="stop-color:#3F1851"/>
					</linearGradient>
					<polygon id="XMLID_243_" class="st12" points="190.7,125.8 198.8,126.1 198.2,130.9 191.4,130.4 					"/>
				</g>
			</g>
			<g id="XMLID_222_">
				<g id="XMLID_239_">
					<path id="XMLID_240_" class="st13" d="M198.8,176.6l-1.3,2l-1-2.1l2.4-31.4c0.4-5-1.3-9.1-7.5-9.2c-5.8-0.1-9.3,3.8-9.7,8.8
						l-2.5,31.3l-1.4,2l-0.9-2.1l2.6-31.3c0.5-5.8,3-10.4,12.2-10.2c9.2,0.2,10.2,5,9.7,10.8L198.8,176.6z"/>
				</g>
				<g id="XMLID_223_">
					<g id="XMLID_236_">
						<path id="XMLID_238_" class="st13" d="M173.1,155.4h-1.6c-3.3,0-6.2,2.5-6.6,5.8l-3,22.6l10.4,0.4L173.1,155.4z"/>
						<path id="XMLID_237_" class="st14" d="M173.1,155.4h-1.6c-3.3,0-6.2,2.5-6.6,5.8l-3,22.6l10.4,0.4L173.1,155.4z"/>
					</g>
					<g id="XMLID_224_">
						<g id="XMLID_234_">
							<path id="XMLID_235_" class="st13" d="M202.5,176.9l-2.4-0.1l0.2-31.4c0-5-1.9-9.1-8.2-9.2c-5.8-0.1-9.1,3.8-9.1,8.8
								l-0.4,31.3l-2.3-0.1l0.4-31.3c0.1-5.8,2.3-10.4,11.5-10.2s10.5,5,10.5,10.8L202.5,176.9z"/>
						</g>
						<path id="XMLID_233_" class="st13" d="M213.6,185.4l-46.3-1.4l0.4-23.3c0-3,2.5-5.3,5.4-5.3l33.7,0.9c3.8,0.1,6.9,3.3,6.9,7.2
							L213.6,185.4z"/>
						<path id="XMLID_232_" class="st15" d="M208.4,185.3l-36.1-1.1c-2.8-0.1-5.1-2.5-5-5.4l0.4-18.1c0-3,2.5-5.3,5.4-5.3l33.7,0.9
							c3.8,0.1,6.9,3.3,6.9,7.2l-0.1,16.7C213.6,183.1,211.3,185.4,208.4,185.3z"/>
						<g id="XMLID_230_" class="st16">
							<path id="XMLID_231_" class="st17" d="M202.5,176.9l-1.2,2l-1.2-2.1l0.2-31.4c0-5-1.9-9.1-8.2-9.2c-5.8-0.1-9.1,3.8-9.1,8.8
								l-0.4,31.3l-1.3,2l-1.1-2.1l0.4-31.3c0.1-5.8,2.3-10.4,11.5-10.2s10.5,5,10.5,10.8L202.5,176.9z"/>
						</g>
						<polygon id="XMLID_229_" class="st13" points="183.6,164.2 179.7,164.1 179.7,162.7 183.6,162.8 						"/>
						<polygon id="XMLID_228_" class="st13" points="183.5,173.6 179.6,173.5 179.6,172.1 183.5,172.2 						"/>
						<polygon id="XMLID_227_" class="st13" points="203.4,164.7 199.5,164.6 199.5,163.2 203.4,163.3 						"/>
						<polygon id="XMLID_226_" class="st13" points="203.3,174.2 199.4,174.1 199.5,172.6 203.3,172.7 						"/>
						<polygon id="XMLID_225_" class="st17" points="196,165.4 187.7,165.2 187.8,162 196,162.3 						"/>
					</g>
				</g>
			</g>
			<g id="XMLID_143_">
				<g id="XMLID_156_">
					<g id="XMLID_207_">
						<path id="XMLID_221_" class="st13" d="M231.8,50.8c0.3-0.1,0.7,0.3,0.8,0.8s-0.1,0.9-0.4,1c-0.3,0.1-0.7-0.3-0.8-0.8
							C231.2,51.3,231.4,50.8,231.8,50.8z"/>
						<path id="XMLID_220_" class="st13" d="M231.8,51.2c0.3-0.2,0.6-0.5,0.8-0.8c-0.3,0.3-0.7,0.4-1,0.4
							C231.7,50.8,231.8,51,231.8,51.2z"/>
						<path id="XMLID_219_" class="st18" d="M232.5,56.1c0.8,0,1.7-0.3,2.2-0.9c-1.2-1.1-2.3-2.3-3.2-3.6L232.5,56.1z"/>
						<path id="XMLID_218_" class="st13" d="M229.1,50c0.5-0.6,1.2-0.9,1.9-0.9l0,0h0.1c0.2,0,0.3-0.1,0.3-0.3
							c0-0.2-0.1-0.3-0.3-0.3c-0.9-0.1-1.8,0.3-2.4,1c0,0.1-0.1,0.1-0.1,0.2c0,0.2,0.1,0.3,0.3,0.3C229,50,229,50,229.1,50z"/>
						<path id="XMLID_217_" class="st10" d="M226,78.9c-8.3,0.1-9.6-4.4-9.6-4.4c2.5-2.4,2.6-6.9,2.1-10.8c0.6,0.9,1.4,1.7,2.5,2.4
							c2,1.3,6.3-0.8,6.3-0.8s0,0.7,0.1,1.8c0.1,2.6,0.7,7.1,3.1,7.8C230.4,74.8,235.2,78.8,226,78.9z"/>
						<path id="XMLID_216_" class="st10" d="M227.4,65.9c-0.1,0.4-0.2,0.8-0.2,1.2h-0.1c-1.9,0.5-4.1,0.2-6.1-1.1
							c-1-0.7-1.8-1.5-2.5-2.4c-0.1-1-0.3-2-0.5-2.9l9.1,5L227.4,65.9z"/>
						<g id="XMLID_213_">
							<path id="XMLID_215_" class="st10" d="M233.4,59.1c-0.1,3.1-1.7,5.7-4.1,7.1l0,0l0,0c-0.6,0.4-1.3,0.7-2,0.9h-0.1
								c-1.9,0.5-4.1,0.2-6.1-1.1c-1-0.7-1.8-1.5-2.5-2.4c-1.6-2.2-2.3-5.2-3.5-9.4c-0.4-1.2-0.4-2.5-0.2-3.8
								c0.8-4.5,5.1-7.5,9.6-6.7C230.8,44.8,233.5,53.5,233.4,59.1z"/>
							<path id="XMLID_214_" class="st9" d="M228.8,66.3c-0.6,0.4-0.9,0.5-1.5,0.7c-0.1-1.1,0-1.8-0.1-1.8c0.1-0.9,0.1-1.9,0.1-1.9
								C227.4,63.4,228.4,66.3,228.8,66.3z"/>
						</g>
						<path id="XMLID_212_" class="st13" d="M231.2,47.7c-0.7,1.1-2.8,2-2.7,1.7c0.4-0.9,0.3-2.6-0.8-2.2c0.3,0.7,1.2,5.8,0.8,6.4
							c-0.2,0.3-0.4,4.4-2.2,8.1c-1.4,2.9-1.4,3.8-1.4,3.8l-5.7,1.1c-2.1-0.3-4.1-3-4.3-3.3c-0.7-1.3-3-3-4.2-3.8
							c-0.5-0.4-0.9-0.9-1.1-1.6c-0.4-1.1,0.4-5,0.6-6.9c0.2-2.7,1.6-5.1,5.5-6.7c2.4-1,4.4-3.1,6.8-4c2.4-0.8,5.3-0.8,7.4,0.7
							C230.9,42,232.9,45,231.2,47.7z"/>
						<path id="XMLID_211_" class="st10" d="M228.2,51.5c1.8,0.5,2.7,3.1,2.7,4.7c0.1,1.8-1.1,3-2.7,1.7c-1.2-0.9-2-2.2-2.4-3.7
							C225.4,52.5,226.5,51,228.2,51.5z"/>
						<g id="XMLID_208_">
							<circle id="XMLID_210_" class="st11" cx="229.6" cy="57.5" r="0.8"/>
							<circle id="XMLID_209_" class="st19" cx="229.6" cy="57.5" r="0.8"/>
						</g>
					</g>
					<g id="_x3C_Group_x3E_">
						<g id="XMLID_195_">
							<path id="XMLID_206_" class="st8" d="M214.1,77.4c0,0,1.3-4,3.2-5.2c1.9-1.3,10.5,0,11.9,0.6c1.3,0.5,2.7,3.6,2.7,3.6
								L214.1,77.4z"/>
							<path id="XMLID_205_" class="st8" d="M214.1,77.4c0,0,1.3-4,3.2-5.2c1.9-1.3,10.5,0,11.9,0.6c1.3,0.5,2.7,3.6,2.7,3.6
								L214.1,77.4z"/>
							<g id="XMLID_196_">
								<g id="XMLID_201_">
									<path id="XMLID_204_" class="st8" d="M233.6,75.7c-1.3-0.2-1.7-0.4-3.2-0.5c-4.6-0.2-9.2-0.2-13.8,0.1
										c-1.7,0.1-3.3,0.4-4.9,0.8c-3.3,0.8-5.5,3.8-5.3,7.2c0.7,9.4,3.4,14.9,3.9,21c0.8,12.3-1.1,20.9-1.5,23.8l6.3,1
										c11.2-0.3,18.7-2.7,24.9-5.3l0,0c0,0-1.6-14.8-0.1-20.2c4.3-14.6,1.5-16.9,0.7-21.1C239.9,79,237.1,76.3,233.6,75.7z"/>
									<g id="XMLID_202_">
										<path id="XMLID_203_" class="st20" d="M240,103.6c-0.5,1.7-0.7,4.5-0.7,7.4c0,6,0.7,12.8,0.7,12.8
											c-6.2,2.6-13.7,5.1-24.9,5.3l-6.3-1c0.3-2.9,2.3-11.5,1.5-23.7c-0.4-6.2-3.2-11.7-3.9-21c-0.2-3.3,2-6.4,5.3-7.2
											c1.6-0.4,3.2-0.7,4.9-0.8c4.6-0.3,9.2-0.4,13.8-0.2c1.5,0.1,1.9,0.3,3.2,0.5c3.5,0.6,6.3,3.3,7,6.7
											c0.3,1.5,0.9,2.8,1.2,4.4c0.5,2,0.7,4.7-0.1,9.1C241.4,98.1,240.8,100.6,240,103.6z"/>
									</g>
								</g>
								<g id="XMLID_199_">
									<path id="XMLID_200_" class="st8" d="M235.4,75.3c2.3,0.3,4.6,0.8,6.9,1.2c2.3,0.4,4.6,0.9,6.8,1.4l-0.8-0.1
										c1,0,1.9,0.1,2.5,0.2c0.3,0,0.5,0,0.4,0.1c0,0-0.1,0.1-0.3,0.2c-0.2,0.1-0.4,0.3-0.7,0.5c-0.5,0.5-0.7,1.2-0.7,1.4
										c0,0.2,0.1,0.2,0.1,0c0-0.4,0-1.1-0.2-1.8l0.1,0.3c-1.2-3.3-2.2-6.7-3.3-10.1c-1-3.4-1.9-6.8-2.6-10.3
										c-0.3-1.4,0.6-2.7,2-2.9c1-0.2,2,0.3,2.6,1.1c1.9,3,3.5,6.2,5.1,9.3c1.6,3.2,3,6.4,4.5,9.6l0.1,0.3c0.4,1,0.8,2.1,1,3.5
										c0.1,0.7,0.2,1.6,0,2.7c-0.2,1.1-0.8,2.7-1.9,3.8c-0.6,0.6-1.2,1-1.8,1.3s-1.1,0.5-1.6,0.6c-1,0.3-1.7,0.3-2.3,0.4
										c-1.2,0.1-2.2,0.1-3,0.2h-0.1l-0.7-0.1c-2.3-0.2-4.6-0.5-6.9-0.8c-2.3-0.3-4.6-0.6-6.9-1c-3-0.5-5.1-3.4-4.5-6.5
										C229.7,76.9,232.4,74.9,235.4,75.3z"/>
								</g>
								<g id="XMLID_197_">
									<path id="XMLID_198_" class="st8" d="M235.4,75.3c2.3,0.3,4.6,0.8,6.9,1.2c2.3,0.4,4.6,0.9,6.8,1.4l-0.8-0.1
										c1,0,1.9,0.1,2.5,0.2c0.3,0,0.5,0,0.4,0.1c0,0-0.1,0.1-0.3,0.2c-0.2,0.1-0.4,0.3-0.7,0.5c-0.5,0.5-0.7,1.2-0.7,1.4
										c0,0.2,0.1,0.2,0.1,0c0-0.4,0-1.1-0.2-1.8l0.1,0.3c-1.2-3.3-2.2-6.7-3.3-10.1c-1-3.4-1.9-6.8-2.6-10.3
										c-0.3-1.4,0.6-2.7,2-2.9c1-0.2,2,0.3,2.6,1.1c1.9,3,3.5,6.2,5.1,9.3c1.6,3.2,3,6.4,4.5,9.6l0.1,0.3c0.4,1,0.8,2.1,1,3.5
										c0.1,0.7,0.2,1.6,0,2.7c-0.2,1.1-0.8,2.7-1.9,3.8c-0.6,0.6-1.2,1-1.8,1.3s-1.1,0.5-1.6,0.6c-1,0.3-1.7,0.3-2.3,0.4
										c-1.2,0.1-2.2,0.1-3,0.2h-0.1l-0.7-0.1c-2.3-0.2-4.6-0.5-6.9-0.8c-2.3-0.3-4.6-0.6-6.9-1c-3-0.5-5.1-3.4-4.5-6.5
										C229.7,76.9,232.4,74.9,235.4,75.3z"/>
								</g>
							</g>
						</g>
					</g>
					<g id="XMLID_158_">
						<g id="XMLID_163_">
							<g id="XMLID_166_">
								<g id="XMLID_171_">
									<polygon id="XMLID_194_" class="st21" points="276.8,53.8 306.7,52.8 306.3,43.4 276.4,45.4 									"/>
									<polygon id="XMLID_193_" class="st21" points="254.1,54.1 278.3,53.3 278,45.6 253.8,47.2 									"/>
									<polygon id="XMLID_192_" class="st13" points="275.1,53.5 276.7,53.7 276.3,45.5 274.8,45.8 									"/>
									<polygon id="XMLID_191_" class="st9" points="275.1,53.5 276.7,53.7 276.3,45.5 274.8,45.8 									"/>
									<polygon id="XMLID_190_" class="st13" points="276.7,53.8 278.4,53.7 278,45.3 276.3,45.4 									"/>
									<polygon id="XMLID_189_" class="st13" points="250.3,53 252.7,54.1 252.4,47.3 250.1,48.7 									"/>
									<g id="XMLID_186_">
										<polygon id="XMLID_188_" class="st13" points="238,52.9 245.1,52.5 245,49.4 237.9,49.8 										"/>
										<polygon id="XMLID_187_" class="st9" points="238,52.9 245.1,52.5 245,49.4 237.9,49.8 										"/>
									</g>
									<polygon id="XMLID_185_" class="st13" points="244.2,53.2 252.1,52.9 251.9,48.4 244,48.9 									"/>
									<polygon id="XMLID_184_" class="st9" points="250.3,53 252.7,54.1 252.4,47.3 250.1,48.7 									"/>
									<polygon id="XMLID_183_" class="st13" points="252.8,54.2 254.1,54.1 253.8,47.2 252.5,47.3 									"/>
									<polygon id="XMLID_182_" class="st13" points="305.7,52.9 310.4,52.7 310,43.3 305.3,43.5 									"/>
									<g id="XMLID_180_">
										<path id="XMLID_181_" class="st21" d="M307.8,53.5l6-0.2l0.1-0.4c1.3-3.6,1-7.5-0.7-10.8l0,0l-6,0.4l0.1,0.3
											C308.8,46.2,309,50,307.8,53.5L307.8,53.5z"/>
									</g>
									<g id="XMLID_172_">
										<g id="XMLID_177_" class="st22">
											<path id="XMLID_179_" class="st17" d="M301.4,44.5l2.4-0.1v1l-2.5,0.1C301.4,45.2,301.4,44.8,301.4,44.5z"/>
											<path id="XMLID_178_" class="st17" d="M299.9,44.6c0,0.3,0,0.7,0,1l-21,1.2l-0.1-0.9L299.9,44.6z"/>
										</g>
										<g id="XMLID_175_" class="st22">
											<polygon id="XMLID_176_" class="st17" points="254.3,47.7 254.3,48.6 274.1,47.4 274.1,46.5 											"/>
										</g>
										<g id="XMLID_173_" class="st22">
											<polygon id="XMLID_174_" class="st17" points="307.8,42.8 307.9,43.9 312.5,43.6 312.5,42.5 											"/>
										</g>
									</g>
								</g>
								<g id="XMLID_167_">
									<path id="XMLID_170_" class="st23" d="M313.2,52c0,0.4,0,0.7,0,1.1l-4.9,0.2l-0.1-1L313.2,52z"/>
									<path id="XMLID_169_" class="st23" d="M304.5,51.4c0,0.3,0,0.7,0,1l-25.7,0.9l-0.1-0.9L304.5,51.4z"/>
									<path id="XMLID_168_" class="st23" d="M273.9,52.3c0,0.3,0,0.6,0,0.9l-19.1,0.7v-0.8L273.9,52.3z"/>
								</g>
							</g>
							<g id="XMLID_164_">
								<path id="XMLID_165_" class="st21" d="M236.4,49.9l0.1,3c0,0.5,0.5,0.9,1,0.9h2.5l-0.1-4.9l-2.4,0.1
									C236.9,49,236.4,49.4,236.4,49.9z"/>
							</g>
						</g>
						<path id="XMLID_162_" class="st24" d="M249.1,58.3l0.9-5.6c0-0.2,0-0.5,0-0.7l-0.3-3c0-0.4-0.3-0.8-0.7-0.9l-4.5-0.1
							c-0.6-0.2-1.2,0.1-1.4,0.6l-0.8,3.7c-0.1,0.3-0.1,0.6,0,0.8l1.3,5.1c0.1,0.4,0.5,0.8,1,0.8h2.9
							C248.3,59.3,248.9,58.9,249.1,58.3z"/>
						<g id="XMLID_159_">
							<polygon id="XMLID_161_" class="st11" points="251.7,60.7 244.1,63.3 242.8,58.7 249.4,56.7 							"/>
							<polygon id="XMLID_160_" class="st19" points="251.7,60.7 244.1,63.3 242.8,58.7 249.4,56.7 							"/>
						</g>
					</g>
					<path id="XMLID_157_" class="st9" d="M241.8,96l-5.9-11.1l5.9,1.9C242.3,89,242.6,91.6,241.8,96z"/>
				</g>
				<g id="XMLID_144_">
					<polygon id="XMLID_155_" class="st24" points="272,187.9 270.8,202.9 277.6,203 279.5,187.5 					"/>
					<g id="XMLID_153_">
						<path id="XMLID_154_" class="st13" d="M278.7,201l-7.8,0.2c-0.3,0-0.5,0.2-0.6,0.5l-1.3,6.8c-0.1,0.6,0.2,1.2,0.8,1.3
							c0.1,0,0.1,0,0.2,0c2.8-0.1,5.3-0.3,8.8-0.4c4.1-0.1,3.1,0.5,7.9,0.4c2.9,0,3.4-3.6,2.2-3.7c-5.7-0.7-6.3-2.5-8.5-4.6
							C279.9,201.1,279.3,200.9,278.7,201z"/>
					</g>
					<g id="XMLID_145_">
						<polygon id="XMLID_152_" class="st24" points="197.3,252.2 194.6,266 201.9,268.3 205.5,254.2 						"/>
						<path id="XMLID_151_" class="st13" d="M236.7,124.4c0,0-10.5,61.1-16.1,79c-4,12.8-14.9,54.7-14.9,54.7l-9.8-2.2
							c0,0-1.1-28.5,4.4-43.2c1.9-5,4.3-9.5,5-12.7c2.8-13.3-3-37.4-0.4-55.4c1.4-9.7,4.4-16.7,4.4-16.7L236.7,124.4z"/>
						<path id="XMLID_150_" class="st13" d="M220.5,203.4c-4,12.8-14.9,54.7-14.9,54.7l-9.8-2.2c0,0-1.1-28.5,4.4-43.2
							c1.9-5,4.3-9.5,5-12.7c2.8-13.3-3-37.4-0.4-55.4c1.4-9.7,4.4-16.7,4.4-16.7"/>
						<polygon id="XMLID_149_" class="st9" points="223.8,143.3 229.1,163.9 233,144.2 						"/>
						<path id="XMLID_148_" class="st13" d="M280,195.1l-9.6,0.3c0,0,0.7-12.6,0.7-30.9c0-2.8,0.4-5.6,1.1-8.1
							c1.4-5.6,3.6-9.8,3.6-9.8s-1,0.1-2.8,0.1c-5.4,0.3-39.2,2-39.8,2c-0.5,0-3.6,0.4-9.1-2.3c-10.2-5-10.3-18.9-10.3-18.9
							l26.3-3.6c0,0,0.4,0.1,6.8,0.2c19.2,0.3,42.8,1.1,46.9,7.7C299.5,140.9,280,195.1,280,195.1z"/>
						<g id="XMLID_146_">
							<path id="XMLID_147_" class="st13" d="M202.3,264.7l-8.1,0.1c-0.3,0-0.6,0.2-0.6,0.5l-1,6.9c-0.1,0.6,0.3,1.2,0.9,1.3
								c0.1,0,0.2,0,0.2,0c2.9-0.1,5.5-0.3,9.1-0.3c4.3-0.1,3.2,0.5,8.3,0.5c3,0,3.3-3.6,2.1-3.8c-5.9-0.7-6.7-2.5-9.1-4.7
								C203.6,264.9,202.9,264.7,202.3,264.7z"/>
						</g>
					</g>
				</g>
			</g>
		</g>
		<path id="XMLID_141_" class="st9" d="M272.1,156.3c1.4-5.6,3.6-9.8,3.6-9.8s-1,0.1-2.8,0.1c-0.1,0-0.2-0.1-0.3-0.1l7-0.6
			L272.1,156.3z"/>
	</g>
	<g id="XMLID_93_">
		<g id="XMLID_136_">
			<g id="XMLID_137_">
				<circle id="XMLID_139_" class="st11" cx="88.4" cy="69.3" r="12.3"/>
				<circle id="XMLID_138_" class="st21" cx="88.4" cy="69.3" r="12.3"/>
			</g>
		</g>
		<g id="XMLID_115_">
			<g id="XMLID_131_">
				<g id="XMLID_134_">
					<path id="XMLID_135_" class="st11" d="M88.4,52.3c-1,0-1.8-0.8-1.8-1.8v-8.1c0-1,0.8-1.8,1.8-1.8s1.8,0.8,1.8,1.8v8.1
						C90.2,51.5,89.4,52.3,88.4,52.3z"/>
				</g>
				<g id="XMLID_132_">
					<path id="XMLID_133_" class="st11" d="M88.4,97.7c-1,0-1.8-0.8-1.8-1.8v-8.1c0-1,0.8-1.8,1.8-1.8s1.8,0.8,1.8,1.8v8.1
						C90.2,96.9,89.4,97.7,88.4,97.7z"/>
				</g>
			</g>
			<g id="XMLID_126_">
				<g id="XMLID_129_">
					<path id="XMLID_130_" class="st11" d="M75.2,57.8c-0.5,0-0.9-0.2-1.3-0.5l-3.5-3.5c-0.7-0.7-0.7-1.9,0-2.6s1.9-0.7,2.6,0
						l3.5,3.5c0.7,0.7,0.7,1.9,0,2.6C76.1,57.6,75.6,57.8,75.2,57.8z"/>
				</g>
				<g id="XMLID_127_">
					<path id="XMLID_128_" class="st11" d="M104.8,87.4c-0.5,0-0.9-0.2-1.3-0.5l-3.2-3.2c-0.7-0.7-0.7-1.9,0-2.6
						c0.7-0.7,1.9-0.7,2.6,0l3.2,3.2c0.7,0.7,0.7,1.9,0,2.6C105.8,87.3,105.3,87.4,104.8,87.4z"/>
				</g>
			</g>
			<g id="XMLID_121_">
				<g id="XMLID_124_">
					<path id="XMLID_125_" class="st11" d="M69.7,71h-8.1c-1,0-1.8-0.8-1.8-1.8s0.8-1.8,1.8-1.8h8.1c1,0,1.8,0.8,1.8,1.8
						S70.7,71,69.7,71z"/>
				</g>
				<g id="XMLID_122_">
					<path id="XMLID_123_" class="st11" d="M115.1,71H107c-1,0-1.8-0.8-1.8-1.8s0.8-1.8,1.8-1.8h8.1c1,0,1.8,0.8,1.8,1.8
						S116.1,71,115.1,71z"/>
				</g>
			</g>
			<g id="XMLID_116_">
				<g id="XMLID_119_">
					<path id="XMLID_120_" class="st11" d="M72.1,87.3c-0.5,0-0.9-0.2-1.3-0.5c-0.7-0.7-0.7-1.9,0-2.6l3.1-3.1
						c0.7-0.7,1.9-0.7,2.6,0s0.7,1.9,0,2.6l-3.1,3C73,87.1,72.6,87.3,72.1,87.3z"/>
				</g>
				<g id="XMLID_117_">
					<path id="XMLID_118_" class="st11" d="M101.6,57.8c-0.5,0-0.9-0.2-1.3-0.5c-0.7-0.7-0.7-1.9,0-2.6l3.3-3.3
						c0.7-0.7,1.9-0.7,2.6,0s0.7,1.9,0,2.6l-3.3,3.3C102.5,57.6,102.1,57.8,101.6,57.8z"/>
				</g>
			</g>
		</g>
		<g id="XMLID_94_" class="st25">
			<g id="XMLID_110_">
				<g id="XMLID_113_">
					<path id="XMLID_114_" class="st21" d="M88.4,52.3c-1,0-1.8-0.8-1.8-1.8v-8.1c0-1,0.8-1.8,1.8-1.8s1.8,0.8,1.8,1.8v8.1
						C90.2,51.5,89.4,52.3,88.4,52.3z"/>
				</g>
				<g id="XMLID_111_">
					<path id="XMLID_112_" class="st21" d="M88.4,97.7c-1,0-1.8-0.8-1.8-1.8v-8.1c0-1,0.8-1.8,1.8-1.8s1.8,0.8,1.8,1.8v8.1
						C90.2,96.9,89.4,97.7,88.4,97.7z"/>
				</g>
			</g>
			<g id="XMLID_105_">
				<g id="XMLID_108_">
					<path id="XMLID_109_" class="st21" d="M75.2,57.8c-0.5,0-0.9-0.2-1.3-0.5l-3.5-3.5c-0.7-0.7-0.7-1.9,0-2.6s1.9-0.7,2.6,0
						l3.5,3.5c0.7,0.7,0.7,1.9,0,2.6C76.1,57.6,75.6,57.8,75.2,57.8z"/>
				</g>
				<g id="XMLID_106_">
					<path id="XMLID_107_" class="st21" d="M104.8,87.4c-0.5,0-0.9-0.2-1.3-0.5l-3.2-3.2c-0.7-0.7-0.7-1.9,0-2.6
						c0.7-0.7,1.9-0.7,2.6,0l3.2,3.2c0.7,0.7,0.7,1.9,0,2.6C105.8,87.3,105.3,87.4,104.8,87.4z"/>
				</g>
			</g>
			<g id="XMLID_100_">
				<g id="XMLID_103_">
					<path id="XMLID_104_" class="st21" d="M69.7,71h-8.1c-1,0-1.8-0.8-1.8-1.8s0.8-1.8,1.8-1.8h8.1c1,0,1.8,0.8,1.8,1.8
						S70.7,71,69.7,71z"/>
				</g>
				<g id="XMLID_101_">
					<path id="XMLID_102_" class="st21" d="M115.1,71H107c-1,0-1.8-0.8-1.8-1.8s0.8-1.8,1.8-1.8h8.1c1,0,1.8,0.8,1.8,1.8
						S116.1,71,115.1,71z"/>
				</g>
			</g>
			<g id="XMLID_95_">
				<g id="XMLID_98_">
					<path id="XMLID_99_" class="st21" d="M72.1,87.3c-0.5,0-0.9-0.2-1.3-0.5c-0.7-0.7-0.7-1.9,0-2.6l3.1-3.1c0.7-0.7,1.9-0.7,2.6,0
						s0.7,1.9,0,2.6l-3.1,3C73,87.1,72.6,87.3,72.1,87.3z"/>
				</g>
				<g id="XMLID_96_">
					<path id="XMLID_97_" class="st21" d="M101.6,57.8c-0.5,0-0.9-0.2-1.3-0.5c-0.7-0.7-0.7-1.9,0-2.6l3.3-3.3
						c0.7-0.7,1.9-0.7,2.6,0s0.7,1.9,0,2.6l-3.3,3.3C102.5,57.6,102.1,57.8,101.6,57.8z"/>
				</g>
			</g>
		</g>
	</g>
	<g id="XMLID_273_">
		<g id="XMLID_301_">
			<path id="XMLID_304_" class="st26" d="M264.7,212.6c41.3,36.8,209.1,31,172.1-84.2"/>
			<g id="XMLID_302_">
				<path id="XMLID_303_" class="st21" d="M436.8,128.8c-0.7,1.3-2.5,2.4-3.8,2.9c1.4-2,2.4-4.2,2.6-6.7c1.6,1.9,3.8,3,6,3.9
					C440.1,129.2,438.3,129.5,436.8,128.8z"/>
			</g>
		</g>
	</g>
</g>
</svg>
