<?xml version="1.0" encoding="utf-8"?>
<!-- Generator: Adobe Illustrator 19.0.0, SVG Export Plug-In . SVG Version: 6.00 Build 0)  -->
<svg version="1.1" id="Layer_1" xmlns="http://www.w3.org/2000/svg" xmlns:xlink="http://www.w3.org/1999/xlink" x="0px" y="0px"
	 viewBox="-123 199.7 468 422" style="enable-background:new -123 199.7 468 422;" xml:space="preserve">
<style type="text/css">
	.st0{display:none;}
	.st1{display:inline;fill:#632C8F;stroke:#FFFFFF;stroke-linejoin:bevel;stroke-miterlimit:5;stroke-dasharray:12,12,5,10;}
	.st2{display:inline;fill:url(#SVGID_1_);}
	.st3{display:inline;fill:url(#SVGID_2_);}
	.st4{fill:#F6901E;}
	.st5{fill:#FBB116;}
	.st6{opacity:0.2827;fill:#FBB116;}
	.st7{fill:#FCB913;}
	.st8{opacity:0.2827;}
	.st9{fill:#4A4A4A;}
	.st10{fill:#FFFFFF;}
	.st11{fill:#782B8B;}
	.st12{fill:url(#SVGID_3_);}
	.st13{fill:#EF4D58;}
	.st14{fill:#F2BD8E;}
	.st15{fill:#434A6D;}
	.st16{opacity:0.3565;}
	.st17{fill:#152339;}
	.st18{opacity:0.2774;}
	.st19{fill:#008FC5;}
	.st20{fill:#252935;}
	.st21{fill:#563624;}
	.st22{fill:#515A81;}
	.st23{fill:url(#SVGID_4_);}
	.st24{fill:#F37820;}
	.st25{opacity:0.3015;}
	.st26{opacity:0.1339;}
	.st27{fill:#2C2C2D;}
	.st28{fill:none;stroke:#434A6D;stroke-linecap:round;stroke-linejoin:round;}
	.st29{fill:none;stroke:#434A6D;stroke-linecap:round;stroke-linejoin:round;stroke-dasharray:0.932,4.6598;}
	.st30{fill:none;stroke:#434A6D;stroke-linecap:round;stroke-linejoin:round;stroke-dasharray:0.996,4.9802;}
	.st31{fill:none;stroke:#434A6D;stroke-linecap:round;stroke-linejoin:round;stroke-dasharray:1.0191,5.0956;}
	.st32{fill:none;stroke:#434A6D;stroke-linecap:round;stroke-linejoin:round;stroke-dasharray:1.065,5.3252;}
	.st33{display:inline;}
	.st34{fill:none;stroke:#FCB913;stroke-miterlimit:10;stroke-dasharray:12,12,5,10;}
</style>
<g id="Layer_2" class="st0">
	<rect id="XMLID_53_" x="-123.4" y="465.6" class="st1" width="544.4" height="399.3"/>
</g>
<g>
	<g class="st0">
		
			<linearGradient id="SVGID_1_" gradientUnits="userSpaceOnUse" x1="-689.6031" y1="216.3" x2="-440.2057" y2="216.3" gradientTransform="matrix(-1 0 0 1 -122.72 0)">
			<stop  offset="0" style="stop-color:#D41B5E;stop-opacity:0.97"/>
			<stop  offset="2.361145e-002" style="stop-color:#C81C60;stop-opacity:0.97"/>
			<stop  offset="0.1154" style="stop-color:#9E2068;stop-opacity:0.97"/>
			<stop  offset="0.2093" style="stop-color:#7C236E;stop-opacity:0.97"/>
			<stop  offset="0.3042" style="stop-color:#612673;stop-opacity:0.97"/>
			<stop  offset="0.4007" style="stop-color:#4E2876;stop-opacity:0.97"/>
			<stop  offset="0.4995" style="stop-color:#432978;stop-opacity:0.97"/>
			<stop  offset="0.6045" style="stop-color:#3F2979;stop-opacity:0.97"/>
		</linearGradient>
		<path class="st2" d="M328.4,219.6c24.8,44.1,75.3,54.5,121.5,41.6c24.5-6.8,52.9-13.3,77.5-3.5c16.6,6.6,28.9,20,39.5,34.1v-151
			H321.4c-0.5,2-0.9,4-1.3,6.1C315.6,171,316,197.7,328.4,219.6z"/>
	</g>
	<g class="st0">
		
			<linearGradient id="SVGID_2_" gradientUnits="userSpaceOnUse" x1="-235.8756" y1="668.6552" x2="142.2687" y2="185.5378" gradientTransform="matrix(-1 0 0 1 -122.72 0)">
			<stop  offset="0" style="stop-color:#D41B5E;stop-opacity:0.97"/>
			<stop  offset="2.361145e-002" style="stop-color:#C81C60;stop-opacity:0.97"/>
			<stop  offset="0.1154" style="stop-color:#9E2068;stop-opacity:0.97"/>
			<stop  offset="0.2093" style="stop-color:#7C236E;stop-opacity:0.97"/>
			<stop  offset="0.3042" style="stop-color:#612673;stop-opacity:0.97"/>
			<stop  offset="0.4007" style="stop-color:#4E2876;stop-opacity:0.97"/>
			<stop  offset="0.4995" style="stop-color:#432978;stop-opacity:0.97"/>
			<stop  offset="0.6045" style="stop-color:#3F2979;stop-opacity:0.97"/>
		</linearGradient>
		<path class="st3" d="M-206.4,140.8v483.9h570.2c-3.3-2.3-35.8-41.3-137.1-79.3C121.4,505.9,88.9,486.1,56.1,421.6
			c-23.1-45.4-29-97.3-41.9-146.6C2.9,231.7-35.5,171.4-75,140.8H-206.4z"/>
	</g>
	<g>
		<g>
			<path class="st4" d="M224.3,489.5c-5.4,0-10.9,1.2-16.2,1.8c-1.7,0.2-3.4,0.2-5,0.5c-1.8,0.3-3.6,0.9-5.4,1.3
				c-2.2,0.5-4.4,0.8-6.6,1c-1.8,0.1-3.6-0.6-5.4-1.2c-4-1.2-7.9-2.6-11.8-4.2c-7.7-3.1-15.2-6.7-22.5-10.8
				c-14.6-8.2-28.1-18.2-40.8-29c-4.8-4.1-9.6-8.3-14.2-12.7c-36.9-34.3-79.1-125.9-80.8-129.6c0,0,0.8-4,0.8-4
				c1.6,1,38,20.8,46.4,25.4c1,0.5,2.2,0.2,2.7-0.8c1.2-2.3,3.5-6.8,3.9-8.4c0.1-0.3-0.4,0.1-0.5-0.3c-0.1-0.3-0.3-0.5-0.6-0.7
				c-3.7-3.5-8-6.2-12.3-8.8c-3.5-2.1-7-4-10.7-5.9c-1.8-0.9-3-1.6-4.5-3c-1.5-1.4-3-2.8-4.5-4.1c-6-5.5-12.1-11-18.1-16.5
				c-11.1-10.1-22.2-20.3-32.8-31c-1.9-1.9-4.1-4-7.7-2.2c-1.9,0.9-3.3,2.6-4,4.5c0,0.9-1,2.4-1.3,3.3c-0.5,1.2-1,2.5-1.5,3.7
				c-4.1,10.5-8.3,21-12.4,31.5c-2.1,5.4-4.3,10.8-6.4,16.2c-1,2.5-2,5.1-3,7.6c-1,2.5-1.8,5-3.2,7.3c-0.2,0.3-0.3,0.5-0.4,0.9
				c-0.1,0.3-0.1,0.6-0.1,0.9c-0.1,2,0,4,0.1,6c0.1,0.8,0.1,1.5,0.4,2.2c0.3,0.7,0.9,1.3,1.7,1.4c1.7,0.3,3.6-1.2,4.9-2.2
				c1.3-1,2.5-2.1,3.8-3.1c2.8-2.3,5.6-4.6,8.4-6.9c4.6-3.8,9.2-7.6,13.8-11.3c0,0,0.1,0,0.1,0c0,2.9,1.6,84.6,22.5,134.4
				c4.1,9.9,8.8,19.5,14,28.8c17.2,30.9,40.2,58.6,68,80.4c10.6,8.3,21.9,15.8,33.9,22c4.9,2.5,9.9,4.5,14.9,6.8
				c2.2,1,5.2,2.8,6.5-0.3c1.5-3.5,2.8-7.7,3.5-11.4c0.1-0.3-0.3-0.5-0.4-0.8c-0.1-0.3-0.3-0.6-0.5-0.8c-1-1.2-2.1-2.3-3-3.6
				c-1.1-1.6-2-3.2-2.4-5c-0.5-2-0.4-4.4-0.5-6.5c-0.2-4.7-0.3-9.3-0.3-14c0-5.4,0.2-10.9,0.5-16.3c0.3-4.5,0-5.7,4.3-5
				c15.3,2.6,30.7,2.7,45.9-0.3c8.5-1.7,17.1-5,25-8.5c2.7-1.2,5.4-2.5,7.8-4.3C219.6,502.9,224,492.3,224.3,489.5z"/>
		</g>
		<g>
			<path class="st5" d="M-50.4,323.4l32.8-27c0,0,0.1,0,0.1,0c0.1,2.9,1.6,84.6,22.5,134.4c4.1,9.8,8.8,19.5,14,28.8
				c17.2,30.9,40.2,58.6,68,80.4c10.6,8.3,21.9,15.8,33.9,22c4.9,2.5,9.9,4.5,14.9,6.8c2,0.9,4.8,2.9,5.9,0.4
				c0.9-1.9-1-7.9-1.3-10.1c-0.6-5.7-1.1-11.3-1.4-17c-0.3-5.2-0.4-10.4-0.4-15.6c0-5.5,0.2-10.9,0.5-16.3c0-0.6,0.1-1.2,0.1-1.7
				c0.2-3.1,0.5-4,4.2-3.3c0,0,0.1,0,0.1,0c42.4,7.1,82.1-10.7,80.9-16.7c0-0.2-0.1-0.4-0.3-0.7c-1.1-1.7-9.1-1.2-11.3-1.6
				c-4.1-0.6-8.3-1.4-12.3-2.3c-38.9-9-71.6-33-100.3-59.7C63.4,390,21.3,298.4,19.6,294.7c0,0,0-0.1,0.1,0
				c1.8,1.1,26.4,16.5,46.4,25.6c2.6,1.2,4.9-2.2,2.9-4.2c-26.5-26.5-53-52.9-79.6-79.4c-1.7-1.7-3.6-3.5-6.4-2.7
				c-0.4,0.1-0.8,0.3-1.3,0.5c-1.9,0.9-3.3,2.6-4,4.5c-9,22.9-24.9,63.2-32.1,81.4C-55.5,323-52.5,325.1-50.4,323.4z"/>
		</g>
		<path class="st6" d="M-50.4,323.4l32.8-27c0,0,0.1,0,0.1,0c0.1,2.9,1.6,84.6,22.5,134.4c4.1,9.8,8.8,19.5,14,28.8
			c17.2,30.9,40.2,58.6,68,80.4c10.6,8.3,21.9,15.8,33.9,22c4.9,2.5,9.9,4.5,14.9,6.8c2,0.9,4.8,2.9,5.9,0.4c0.9-1.9-1-7.9-1.3-10.1
			c-0.6-5.7-1.1-11.3-1.4-17c-0.3-5.2-0.4-10.4-0.4-15.6c0-5.5,0.2-10.9,0.5-16.3c0-0.6,0.1-1.2,0.1-1.7
			c-51.2-26-87.4-78.5-112-131.2C-1.6,315.8-14.5,253.9-17.1,234c-0.4,0.1-0.8,0.3-1.3,0.5c-1.9,0.9-3.3,2.6-4,4.5
			c-9,22.9-24.9,63.2-32.1,81.4C-55.5,323-52.5,325.1-50.4,323.4z"/>
	</g>
	<g>
		<path class="st7" d="M73.8,287.3h33.1c3.5,0,6.3-2.8,6.3-6.3v-24.7c0-3.5-2.8-6.3-6.3-6.3H73.8c-3.5,0-6.3,2.8-6.3,6.3V281
			C67.5,284.5,70.3,287.3,73.8,287.3z"/>
		<path class="st7" d="M86.9,285.8l-5,7.6c-0.4,0.6-1.3,0.6-1.6-0.1c-1.2-2.6-2.3-5.2-3.1-8"/>
	</g>
	<g class="st8">
		<path class="st9" d="M35.5,397.3c2.8,7.3-1.6,15.3-1.7,23.1c0,7.6,4.1,16.4,8.5,22.4c16.1,22,40.9,39.3,66.6,48.2
			c2.9,1,5.9,1.9,8.5,3.4c7.3,4.3,10.7,12.9,13.5,20.9c2,5.7,4.1,11.4,6.1,17.1c0.3,0.8,0.6,1.4,1.5,1.3c0.3-2.3,0-4.8,0-7.2
			c0-5.5,0.2-10.9,0.5-16.3c0-0.6,0.1-1.2,0.1-1.7c0.2-3.1,0.5-4,4.2-3.3c0,0,0.1,0,0.1,0c-10.7-24.1-25.7-46.2-44.2-64.9l-2.4-2.1
			c-7.6-14-15.1-27.9-22.7-41.9c-3.8-7.1-7.7-14.2-12.5-20.6c-5.1-6.7-10.7-12.5-19.5-12.9c-4.3-0.2-9.1,0.7-11.9,4
			c-0.9,1.1-1.6,2.5-2,3.9c-0.7,2.1-1.1,4.3-1.1,6.5c-0.1,3.9,0.9,7.8,2.9,11.1C31.8,391.5,34.3,394.1,35.5,397.3z"/>
	</g>
	<g>
		<circle class="st10" cx="99.6" cy="269.7" r="3.3"/>
		<circle class="st10" cx="90.4" cy="269.7" r="3.4"/>
		<circle class="st10" cx="81.1" cy="269.7" r="3.3"/>
	</g>
	<g>
		<ellipse class="st11" cx="-26.8" cy="402.1" rx="38.2" ry="36.6"/>
		<ellipse class="st10" cx="-26.8" cy="402.1" rx="29.6" ry="28.3"/>
		<linearGradient id="SVGID_3_" gradientUnits="userSpaceOnUse" x1="-47.6334" y1="402.059" x2="-6.0536" y2="402.059">
			<stop  offset="0" style="stop-color:#5A2669"/>
			<stop  offset="1" style="stop-color:#3E1851"/>
		</linearGradient>
		<ellipse class="st12" cx="-26.8" cy="402.1" rx="20.8" ry="19.9"/>
		<ellipse class="st10" cx="-26.8" cy="402.1" rx="12" ry="11.5"/>
		<ellipse class="st13" cx="-26.8" cy="402.1" rx="6" ry="5.8"/>
	</g>
	<path class="st7" d="M-101.2,381.8c1.6-1.5,4.4-1.4,6.5,0.2c0.8-2.6,3-4.3,5.2-4c2.7,0.3,4.5,3.3,4.1,6.6c0,0-0.5,5.4-5.1,9.7
		c-0.8-0.1-6-1.1-9.3-4.1c-0.3-0.2-0.5-0.4-0.7-0.7C-102.8,387.1-103.1,383.6-101.2,381.8z"/>
	<path class="st7" d="M-37.3,471.9c0.4-1.7,2.2-2.9,4.4-2.8c-0.6-2,0-4.1,1.6-4.9c1.9-1,4.4,0.1,5.6,2.5c0,0,2.1,3.7,1,8.6
		c-0.6,0.3-4.4,2-7.9,1.5c-0.3,0-0.5-0.1-0.8-0.1C-36,476.1-37.8,474-37.3,471.9z"/>
	<path class="st7" d="M143.3,277.7c2.3-0.1,4.2,1.8,4.9,4.4c2.3-1.4,5-1.3,6.5,0.3c1.8,2,1.3,5.4-1.2,7.7c0,0-3.8,3.8-10.2,4.1
		c-0.6-0.6-3.9-4.7-4.5-9.2c-0.1-0.3-0.1-0.7-0.1-1C138.6,280.6,140.7,277.8,143.3,277.7z"/>
	<path class="st7" d="M179.5,360.7c2.1,0.8,3.1,3.3,2.7,6c2.7-0.3,5.1,0.9,5.8,3c0.8,2.5-1.1,5.4-4.3,6.5c0,0-5,1.9-11-0.5
		c-0.3-0.8-1.6-5.9-0.3-10.2c0.1-0.3,0.2-0.6,0.3-1C174,361.5,177,359.7,179.5,360.7z"/>
	<path class="st7" d="M162.1,386.9c1.6,0.1,2.9,1.6,3.2,3.5c1.7-0.8,3.7-0.6,4.6,0.7c1.1,1.5,0.5,3.9-1.4,5.4c0,0-3,2.4-7.6,2.2
		c-0.4-0.4-2.4-3.7-2.5-6.9c0-0.2,0-0.5,0-0.7C158.5,388.6,160.2,386.7,162.1,386.9z"/>
	<g>
		<g>
			<path class="st14" d="M93.7,372c-0.4-0.3-0.7-0.6-1-1c-0.8-0.9-2-1.5-2.8-2.5c-1-1.1-2.2-2.1-2.8-3.5c-0.6-1.4-0.5-3-0.1-4.4
				c0.3-1.1,0.8-2.2,1.7-3c0.8-0.8,2-1.3,3.2-1c0.5,0.1,1,0.4,1.4,0.7c1.3,1,2.1,2.6,2.5,4.2c0.3,1.5-0.1,3.2,0.2,4.7
				c0.3,1.2,1.4,2.4,2,3.5"/>
		</g>
		<g>
			<path class="st15" d="M91.3,450.7l-1.8,1.9c7,6.6,21.2,6.4,29.9,3.7c0.3-0.1,1.1-0.4,2.2-0.8c7.3-2.8,28.7-11.4,28.7-12.5
				c-0.1,15.8,4.4,31.3,8.8,46.5c1,3.5,2.4,12.9,7.2,10.4c0.4-0.2,0.8-0.5,1.3-0.9c2-1.7,2.3-4.7,2.4-7.3c1-19.4,1.2-38.9,0.5-58.3
				c-0.1-2.9-0.3-6-2.1-8.3c-3.5-4.5-10.5-3.3-16.1-1.8c-14.6,3.9-29.5,5-44.3,7.7c-4.6,0.8-9.3,0.8-13.8,2c-4.5,1.2-9,4.2-10.2,8.7
				C83,445.9,86.7,451.5,91.3,450.7z"/>
		</g>
		<g class="st16">
			<path class="st17" d="M115.1,450.9c1.7,1.3,3.5,2.6,5.4,3.8c0.7,0.5,1.6,0.5,2.4,0.2c6-2.3,17.7-7.1,23.7-9.9
				c1.7-0.8,3.7,0.4,3.8,2.3c0.7,14.3,4.7,28.3,8.7,42c0.2,0.7,0.4,1.7,0.7,2.8c0.8,3.4,5.9,2.2,5.2-1.2c-0.1-0.6-0.3-1.3-0.4-1.9
				c-3.5-17.7-6.3-35.6-8.4-53.6c-0.2-1.5-1.6-2.6-3.1-2.3c-2.8,0.5-5.6,1.7-8.2,2.9c-9.4,4-19.2,7.2-29,10.2
				C113.9,446.9,113.4,449.6,115.1,450.9z"/>
		</g>
		<g>
			<g>
				<path class="st15" d="M72.9,458.2c3.4,4,7.8,7.3,12.2,9.9c9.1,5.3,19,9.8,29,13.1c8.7,2.8,12,9,15.2,17
					c4.5,11.4,9.8,22.6,14.7,33.9c3.1,7,7.8,15.2,15.4,15.1c-2.6-15-5.9-29.8-9.4-44.6c-3-12.5-4.1-29.8-12.7-39.9
					c-5.6-6.6-13.5-11-21-15c-7.6-4.1-14.8-8.7-22.2-13c-5.3-3.1-11-6.3-17.2-6.3c-10.9-0.1-12.6,10.5-10.1,19
					C68.1,451.5,70.2,455.1,72.9,458.2z"/>
			</g>
		</g>
		<g>
			<path class="st11" d="M51.6,404.3c0.2,0.9,0.4,1.7,0.6,2.6c3,12.2,8.7,26.7,10.7,30.9c0.9,1.9,1.8,3.8,3,5.6
				c0.2,0.4,0.5,0.7,0.9,0.9c0.5,0.2,1.1-0.1,1.6-0.1c3.2-0.3,6.2-0.7,9-1.1c3.1-0.4,5.9-0.9,8.5-1.4c1.1-0.2,2.1-0.4,3-0.6
				c14.1-2.9,20-6.5,22.4-8.7c0.1-0.1,0.2-0.1,0.2-0.2c1.1-1.1,1.4-1.8,1.4-1.8s-2.9-4.9-4.3-7.2c-3.8-6.2-7-12.6-10.3-19.1
				c-2.1-4.1-4-8.2-6-12.3c-2-3.9-5.9-7.4-9-10.4c-0.9-0.9-1.9-1.8-3.1-2.4c-1.8-0.9-3.8-1.1-5.8-1.3c-2.1-0.2-4.3-0.4-6.3,0.1
				c-0.7,0.2-1.4,0.4-2.1,0.6c-2.6,0.9-5.2,1.8-7.5,3.2c-3.3,2.1-6,5.2-7.5,8.9C49.8,393.3,50.3,398.4,51.6,404.3z"/>
		</g>
		<g class="st18">
			<path class="st19" d="M51.6,404.3c0.2,0.9,0.4,1.7,0.6,2.6c3,12.2,8.7,26.7,10.7,30.9c0.9,1.9,1.8,3.8,3,5.6
				c0.2,0.4,0.5,0.7,0.9,0.9c0.5,0.2,1.1-0.1,1.6-0.1c3.2-0.3,6.2-0.7,9-1.1C58.4,424.7,62.3,416,51.6,404.3z"/>
		</g>
		<g>
			<path class="st11" d="M77.1,391c-0.3-0.2-0.6-0.5-0.7-0.8c-0.2-0.4,0-0.9,0.2-1.4c1-2.6-4.8-11.4-2.1-11.2
				c10.2,0.8,19.6,6.9,27.1,13.4c-3.4-3.9-5.6-8.6-7.3-13.5c-0.8-2.2-1.3-4.5-2.5-6.5c-1.2-2,0.5-2.8,2.1-3.8c0.3-0.2,0.6-0.4,1-0.5
				c1.9-0.5,5.1,2.6,6.5,3.8c2,1.6,3.9,3.5,5.6,5.5c3.3,3.9,5.9,8.5,7.5,13.4c1.4,4.2,3.5,11.2-1.6,13.5c-1.6,0.7-3.3,0.9-5.1,0.9
				c-2.1,0-4.2-0.2-6.2-0.7c-1.5-0.3-3-0.8-4.5-1.3c-1.2-0.4-2.4-0.7-3.7-1.1c-1.6-0.5-3.2-1-4.7-1.7c-2.2-1-4.1-2.5-6-4
				C80.9,393.7,78.9,392.4,77.1,391z"/>
		</g>
		<g>
			<path class="st11" d="M55.2,384.1c0,0,0.7,4.3,1.2,5.5c0.8,2.2,2,4.3,2.9,6.4c1,2.1,1.6,4.9,1.5,7.3c-0.1,1.6-1,3.3-1.4,4.8
				c-0.5,1.7-1,3.4-1.5,5.2c-0.5,1.8-1.4,8.4,1.1,15.1c2.8,7.2,6.2,14.2,10.1,20.9c0.6,1.1,1.3,2.1,1.5,3.3c0.8,3.7-2.4,3.6-4.8,2.1
				c-4.2-2.7-7.8-6.3-11.2-9.9c-4.4-4.7-8.4-10.3-11-16.3c-1.2-2.7-2.3-5.5-2.6-8.4C38.5,395,53,386.2,55.2,384.1z"/>
		</g>
		<g>
			<path class="st14" d="M55.2,370.2c1.5,4,2.9,8,4,12.1c1.7,6.2,11.3,3.5,9.6-2.6c-0.2-0.9-0.5-1.8-0.8-2.7c0-0.1-0.1-0.2-0.1-0.4
				c-0.5-1.7-1.1-3.3-1.6-4.9c0-0.1-0.1-0.2-0.1-0.4c-0.4-1.3-0.9-2.5-1.4-3.8c-1-2.5-3.3-4.2-6.1-3.5
				C56.3,364.8,54.2,367.7,55.2,370.2z"/>
		</g>
		<g>
			<path class="st14" d="M58.3,371.5c1.2,2.3,3.4,4,5.9,4.9c1.2,0.4,2.5,0.6,3.8,0.7c0-0.1-0.1-0.2-0.1-0.4
				c-0.5-1.7-1.1-3.3-1.6-4.9c-1.7,0.4-3.5,0.3-5.2,0C60.2,371.6,59.2,371.4,58.3,371.5z"/>
		</g>
		<g>
			<path class="st20" d="M161.3,503.4c-0.1-0.1-0.3-0.2-0.4-0.4c-0.8-0.9-0.8-2.3-0.7-3.5c0-1.9,0-3.8-0.2-5.7
				c-0.1-1-1.1-3.5,0.6-3.5c2.9,0,5.8,0,8.8,0c0.1,0,0.2,0,0.3,0c0.2,0.1,0.2,0.3,0.2,0.5c0.1,0.8,0.2,2,0.7,2.7
				c0.6,0.8,2,1.2,2.9,1.4c1.2,0.2,2.4,0.2,3.7,0.3c3.1,0.1,6.2,0.3,9.3,0.5c1.3,0.1,2.7,0.2,3.8,1c1.7,1.2,1.8,3,0.2,4.2
				c-2.3,1.7-5.8,2-8.5,2.3c-3.1,0.3-6.2,0.5-9.3,0.7c-2.1,0.1-4.1,0.3-6.2,0.4C164.8,504,162.6,504.4,161.3,503.4z"/>
		</g>
		<g>
			<path class="st20" d="M148.9,548c-0.1-0.1-0.3-0.2-0.4-0.4c-1.2-1.4-1.1-3.9-1.3-5.6c-0.3-2.2-0.7-4.4-1.1-6.6
				c3.7,0.5,7.4-1,11.1-0.5c0.1,1.2,0.6,2.4,1.3,3.3c0.7,0.9,1.5,1.1,2.6,1.3c1.2,0.2,2.4,0.2,3.7,0.3c3.1,0.1,6.2,0.3,9.3,0.5
				c1.3,0.1,2.7,0.2,3.8,1c1.7,1.2,1.8,3,0.2,4.2c-2.3,1.7-5.8,2-8.5,2.3c-3.1,0.3-6.2,0.5-9.3,0.7c-2.1,0.1-4.1,0.3-6.2,0.4
				C152.4,548.7,150.2,549,148.9,548z"/>
		</g>
		<g>
			<path class="st14" d="M66.5,451.6c0.5-0.6,1.1-1,1.9-1c1.8-0.2,4,1.7,5.2,2.9c1.5,1.4,2.7,3.2,3.4,5.2c0.6,1.8,1.2,5.3-0.5,6.6
				c-2.1,1.7-5.7-0.7-7.3-2.1c-2.7-2.5-4.7-6.7-3.4-10.4C66,452.3,66.2,451.9,66.5,451.6z"/>
		</g>
		<g>
			<path class="st21" d="M65.3,350c-0.7,1-0.4,2.2-0.3,3.4c0.1,1.1,0.1,2.3,0.4,3.4c0.5,2.3,1.8,4.5,3.5,6.1c0.9,0.8,2.2,1.6,3.3,1
				c1-0.5,1.2-1.8,1.2-2.9c0.1-3.3-0.8-6.6-2.5-9.5c-0.8-1.3-1.9-2.5-3.4-2.6C66.6,348.9,65.8,349.3,65.3,350z"/>
		</g>
		<g>
			<path class="st14" d="M62.3,350.9c4.1-0.3,7.5,3,9.3,6.7c1.2,2.5,1.9,5.3,1.6,8.1c-0.3,2.8-1.7,5.5-4,7.1
				c-2.5,1.7-5.8,1.9-8.7,1.3c-1.7-0.4-3.4-1.1-4.8-2.2c-0.5-0.4-1.1-0.8-1.7-1.1c-0.4-0.2-0.7-0.7-1.1-0.9
				c-0.3-0.1-0.5-0.1-0.8-0.1c-0.7-0.1-1.4-0.3-2-0.7c-0.4-0.3-0.8-0.7-1.1-1.2c-0.1-0.3-0.2-0.7-0.2-1c-0.1-1.2-0.1-2.3-0.4-3.5
				c-0.3-1.4-0.5-3.1,0.4-4.3c0.7-0.9,1.8-1.3,2.7-1.9c1-0.8,1.1-2.1,1.9-3.1c1.7-2.2,4.8-3.6,7.2-2.4"/>
		</g>
		<g>
			<path class="st21" d="M56.2,345.8c0.2-2.1,1.3-4.2,3.1-5.4c2.1-1.4,5-1.4,7-0.1c4.5,2.9,2.8,9.4-1.1,12.1
				c-3.5,2.4-10.8,0.7-12.6,5.6c-1,2.6,1.2,5.3,1.1,8.1c-0.8-0.1-1.3-0.8-1.7-1.4c-0.5-0.6-1.2-1.2-1.9-1c-0.6,0.2-0.8,0.9-0.9,1.5
				c-0.1,0.8-0.1,1.6,0.2,2.4c0.3,0.7,1,1.4,1.8,1.5c0.4,0.1,0.8,0,1.2,0c1.2,0.1,2.3,0.9,2.9,2c0.6,1.1,1.7,3.2-0.3,2.3
				c-1-0.5-2-1.3-2.9-2c-2.6-2.1-4.8-4.8-6-8c-0.9-2.3-1-4.9-0.3-7.3c0.2-0.7,0.5-1.4,1.1-2c0.5-0.5,1.4-0.8,2.1-0.6
				c0-1.3,0.1-2.5,0.4-3.8c0.3-1.2,1-2.4,2.1-3.1c1.4-0.9,3.4-0.8,4.6,0.3C56.1,346.5,56.1,346.2,56.2,345.8z"/>
		</g>
	</g>
	<g>
		<g>
			<path class="st11" d="M89.9,354.4c0.2,0.2,0.3,0.5,0.4,0.7c1.4,3.4,2.5,7,3.4,10.6c0.2,1,0.4,2.1-0.3,2.8
				c-0.6,0.6-1.5,0.6-2.3,0.3c-0.7-0.3-1.3-1-1.8-1.6c-2.8-3.6-4.4-7.9-5.5-12.3"/>
		</g>
		<g>
			<path class="st11" d="M73.7,354.1c0.6,2.5,2.2,4.9,4.8,5.3c1,0.2,2.1,0,3.2-0.3c2.2-0.6,4.5-1.9,6.3-2.4c1.5-0.5,3-0.8,4.5-1.1
				c1.5-0.3,3.1-0.4,4.7-0.5c6.3-0.4,12.5,0.3,18.8,0.4l-14.4-33.8c-3.1,5.5-6.5,10.8-10.7,15.5c-1.1,1.3-2.4,2.4-3.7,3.6
				c-0.8,0.7-1.7,1.4-2.5,2c-2.2,1.7-4.2,3.4-6.8,4.6c-0.4,0.2-0.8,0.4-1.3,0.6c-0.8,0.4-1.6,0.9-2.2,1.5
				C73.6,350.7,73.3,352.5,73.7,354.1z"/>
		</g>
		<path class="st22" d="M100,334.2c0.2,1.9,0.7,3.9,1.4,5.9c1.1,3.4,2.7,6.3,4.5,8.7c3.7,5,8.4,7.5,12.3,6.2
			c5.9-2,7.9-11.8,4.5-22.1c-3.4-10.2-10.9-16.9-16.8-15C101.2,319.6,98.9,326.3,100,334.2z"/>
		<path class="st20" d="M101.8,334.5c0,0.3,0.1,0.6,0.1,0.8c0,0.1,0,0.2,0.1,0.4c0.2,1.3,0.5,2.6,1,3.9c0.6,1.7,1.3,3.3,2.1,4.7
			c0.2,0.3,0.3,0.5,0.5,0.8c0.4,0.7,0.8,1.3,1.3,1.9c3.2,4.2,7.2,6.5,10.6,5.3c5-1.7,6.8-10.1,3.8-18.9c-2.9-8.7-9.4-14.5-14.4-12.8
			C102.7,322.1,100.8,327.8,101.8,334.5z"/>
		<g>
			
				<linearGradient id="SVGID_4_" gradientUnits="userSpaceOnUse" x1="-230.8473" y1="338.6958" x2="-223.8662" y2="341.518" gradientTransform="matrix(-1 0 0 1 -122.72 0)">
				<stop  offset="0" style="stop-color:#F6901E;stop-opacity:0.97"/>
				<stop  offset="0.2085" style="stop-color:#BD7424;stop-opacity:0.97"/>
				<stop  offset="0.5271" style="stop-color:#6C4C2D;stop-opacity:0.97"/>
				<stop  offset="0.7533" style="stop-color:#393333;stop-opacity:0.97"/>
				<stop  offset="0.864" style="stop-color:#252935;stop-opacity:0.97"/>
			</linearGradient>
			<path class="st23" d="M102.2,336.8c0,0.1,0,0.2,0.1,0.3c0.2,1,0.4,2.1,0.8,3.1c0.5,1.4,1,2.7,1.7,3.8c0.1,0.2,0.3,0.4,0.4,0.6
				c0.8,0,2.4-0.1,3.2-0.2c0.2,0,0.3,0,0.5,0c0.7,0,2.7-0.2,2.9-0.2c0,0-0.2,0-0.3-0.4c-0.1-0.3-0.1-0.5-0.2-0.8
				c-0.3-1.2-0.7-2.3-1.1-3.4c-0.8-2.3-1.7-4.5-2.3-6.8c-0.2-0.2-0.4-0.5-0.5-0.7C106.9,332.3,103.2,335.8,102.2,336.8z"/>
		</g>
		<path class="st5" d="M106.3,336.9c0.1,0.7,0.2,1.3,0.5,2c0.4,1.1,0.9,2.2,1.5,3c1.3,1.7,2.9,2.6,4.2,2.1c2-0.7,2.7-4,1.5-7.5
			c-1.2-3.5-3.7-5.8-5.7-5.1C106.7,332,105.9,334.2,106.3,336.9z"/>
		<g>
			<path class="st20" d="M73.7,354.1c0.6,2.5,2.2,4.9,4.8,5.3c1,0.2,2.1,0,3.2-0.3c-2.6-2.1-4.7-6.3-4.9-11.2
				c-0.8,0.4-1.6,0.9-2.2,1.5C73.6,350.7,73.3,352.5,73.7,354.1z"/>
		</g>
	</g>
	<g>
		<g class="st8">
			<g>
				<path class="st24" d="M10.2,310.7c3.6,17.5,9.5,34.6,18.1,50.3c0.4,0.7,1.3,0.1,1-0.6c-7.6-16.1-14-32.7-18.4-50
					C10.8,310,10.1,310.2,10.2,310.7L10.2,310.7z"/>
			</g>
		</g>
		<g class="st8">
			<g>
				<path class="st24" d="M13.9,343.9c4.5,17.3,11.2,34.1,20.6,49.4c0.4,0.6,1.3,0.1,1-0.6c-8.4-15.7-15.6-32-20.9-49
					C14.5,343.2,13.7,343.4,13.9,343.9L13.9,343.9z"/>
			</g>
		</g>
		<g class="st8">
			<g>
				<path class="st24" d="M22.7,325.8c1.6,7.2,3.2,14.4,6.8,20.9c0.3,0.5,1.1,0.2,0.9-0.4c-2.4-6.9-5.5-13.6-7.4-20.6
					C22.9,325.6,22.7,325.6,22.7,325.8L22.7,325.8z"/>
			</g>
		</g>
	</g>
	<g>
		<g class="st8">
			<g>
				<path class="st24" d="M125,527.9c-10.5-6.6-20.6-13.9-30.1-22c-9.3-7.9-17.9-16.5-26.4-25.3c-0.5-0.5-1.2,0.2-0.8,0.8
					c15.3,19.3,35.4,35.2,56.7,47.3C125,528.9,125.4,528.2,125,527.9L125,527.9z"/>
			</g>
		</g>
		<g class="st8">
			<g>
				<path class="st24" d="M73.7,504.4c3.2,5.9,7.6,10.9,13.2,14.6c0.8,0.6,1.6-0.8,0.8-1.3c-5.1-3.8-9.7-8.4-13.2-13.7
					C74.2,503.4,73.4,503.8,73.7,504.4L73.7,504.4z"/>
			</g>
		</g>
		<g>
			<g>
				<path class="st24" d="M80.3,480.9c3.9,5.1,8.3,9.8,13.1,14.1c4.7,4.2,9.9,8.7,15.6,11.5c0.4,0.2,1-0.4,0.6-0.7
					c-4.9-4.1-10.3-7.5-15.2-11.7c-4.8-4.2-9.3-8.8-13.6-13.5C80.5,480.4,80.1,480.7,80.3,480.9L80.3,480.9z"/>
			</g>
		</g>
	</g>
	<g class="st25">
		<path class="st5" d="M35.5,297.3c2.3,0.7,4.9,2.1,7.2,2.6c2.1,0.4,2.2-1.3,0.9-2.6c-1.8-1.8-3.9-3.5-5.7-5.3
			C20.5,275.5,4,258.1-11.7,240c-0.5,2.7,4.9,29,8.1,39.1C-3.3,280.3,31,295.9,35.5,297.3z"/>
	</g>
	<g class="st26">
		<path class="st5" d="M67.4,406.1c2.6,13.6,12,24.9,21.5,35c14.1-2.9,20-6.5,22.4-8.7l0,0c-6.7-8.4-13.4-16.9-19.2-26
			c-2.7-4.3-5.4-8.9-9.7-11.6s-10.8-2.9-13.8,1.2C66.6,398.7,66.7,402.6,67.4,406.1z"/>
	</g>
	<g>
		<g>
			<g>
				<path class="st27" d="M17.1,443.1c-14.3-13.7-28.3-27.9-43.2-41c-0.4-0.3-1,0.2-0.6,0.6c14,14.1,28.9,27.2,43.5,40.7
					C17,443.6,17.3,443.3,17.1,443.1L17.1,443.1z"/>
			</g>
		</g>
		<g>
			<g>
				<path class="st27" d="M20.6,443.8c-1.2-0.5-2.3-0.8-3.6-1.1c-0.3-0.1-0.6,0.1-0.6,0.5c0.2,1.2,0.1,2.6,0.6,3.7
					c0.1,0.2,0.5,0.2,0.6-0.1c0.2-1.2-0.1-2.5-0.2-3.7c-0.2,0.2-0.4,0.3-0.6,0.5c1.2,0.2,2.5,0.4,3.8,0.5
					C20.8,444.2,20.8,443.9,20.6,443.8L20.6,443.8z"/>
			</g>
		</g>
	</g>
	<g>
		<g>
			<path class="st24" d="M4.3,483C20,513.1,41.3,540,67,562.2c7.2,6.2,14.7,12,22.5,17.3c0.2,0.2,0.4-0.2,0.2-0.4
				c-27.7-19.5-51.8-43.7-70.7-72c-5.2-7.9-10.1-16-14.5-24.4C4.5,482.7,4.3,482.8,4.3,483L4.3,483z"/>
		</g>
	</g>
	<g>
		<g>
			<path class="st24" d="M12.8,514.5c6.4,10.4,13.8,20.1,22.3,28.7c0.1,0.1,0.3-0.1,0.2-0.2c-8.4-8.8-16-18.3-22.4-28.6
				C12.9,514.3,12.8,514.4,12.8,514.5L12.8,514.5z"/>
		</g>
	</g>
	<g>
		<g>
			<g>
				<path class="st24" d="M160.5,561c17.6,11.9,34.5,24.8,51.1,38c0.1,0.1,0.3-0.1,0.2-0.2c-16.2-13.7-33.5-26.3-51.2-38.1
					C160.5,560.7,160.4,560.9,160.5,561L160.5,561z"/>
			</g>
		</g>
		<g>
			<g>
				<path class="st24" d="M182.4,566.7c8.5,5.7,16.6,12.1,24.3,19c0.1,0.1,0.4-0.1,0.2-0.2c-7.6-7-15.8-13.3-24.4-19
					C182.4,566.4,182.3,566.6,182.4,566.7L182.4,566.7z"/>
			</g>
		</g>
		<g>
			<g>
				<path class="st24" d="M184.3,558c21.2,13.9,41.7,28.8,61.5,44.6c0.2,0.1,0.4-0.1,0.2-0.2c-19.7-16-40.3-30.8-61.6-44.6
					C184.3,557.7,184.1,557.9,184.3,558L184.3,558z"/>
			</g>
		</g>
	</g>
	<g>
		<path class="st14" d="M91.6,365.1c-1.5-0.5-2.6-1.9-3.1-3.4c-0.6-1.6-0.5-3.3,1-4.3c0.5-0.3,1.1-0.6,1.7-0.6c1.1,0,2,0.9,2.6,1.7
			c0.6,0.7,1,1.5,1.4,2.4c0.3,0.7,0.7,1.8,0.4,2.5C95,364.9,93,365.5,91.6,365.1z"/>
	</g>
	<g>
		<g>
			<path class="st28" d="M-65.9-180.9c-0.1,0.2-0.1,0.3-0.2,0.5"/>
			<path class="st29" d="M-67.7-176.1c-3.2,7.9-6.7,15.7-10.7,23.3"/>
			<path class="st28" d="M-79.5-150.8c-0.1,0.1-0.2,0.3-0.2,0.4"/>
		</g>
	</g>
	<g>
		<g>
			<path class="st28" d="M-20.3-170.4c-0.1,0.1-0.2,0.2-0.4,0.3"/>
			<path class="st30" d="M-24.4-166.7c-13,11.1-27.5,20.5-42.9,27.8"/>
			<path class="st28" d="M-69.6-137.9c-0.2,0.1-0.3,0.1-0.5,0.2"/>
		</g>
	</g>
	<g>
		<g>
			<path class="st28" d="M0-150.5c-0.1,0.1-0.3,0.1-0.4,0.2"/>
			<path class="st31" d="M-5.2-148.2c-17.6,7.2-44.6,12.9-62.7,15.7"/>
			<path class="st28" d="M-70.4-132.2c-0.2,0-0.3,0-0.5,0.1"/>
		</g>
	</g>
	<g>
		<g>
			<path class="st28" d="M-29.5-125.4c-0.2,0-0.3,0-0.5,0"/>
			<path class="st32" d="M-35.3-125.1c-9.8,0.5-19.6,0.7-29.3-0.5"/>
			<path class="st28" d="M-67.2-126c-0.2,0-0.3,0-0.5-0.1"/>
		</g>
	</g>
	<g>
		<g>
			<path class="st5" d="M138.3,390c6.7-4.6,8.4-12.3,4.6-19.4c-1.6-2.9,3.2-4.8,4.7-1.9c4.9,9,2.1,19.7-6.3,25.4
				C138.6,395.9,135.5,391.8,138.3,390L138.3,390z"/>
		</g>
		<g>
			<path class="st5" d="M132.5,383.3c2.3-1.5,4.3-5.7,2.8-8.4c-1.7-2.8,2.4-5.9,4.1-3.1c3,5,1.1,12.3-3.8,15.6
				C132.9,389.2,129.8,385.1,132.5,383.3L132.5,383.3z"/>
		</g>
		<g>
			<path class="st5" d="M128.8,379.8c-3-1.3-1.1-6,2-4.7C133.8,376.3,131.8,381.1,128.8,379.8L128.8,379.8z"/>
		</g>
	</g>
</g>
<g class="st0">
	<g class="st33">
		<path class="st34" d="M-49.9-183c0,0,39.1-134.1,184.4-44"/>
		<g>
			<path class="st7" d="M134.1-227.2c-0.4-1.4,0.3-3.5,1-4.7c0.2,2.4,1,4.8,2.4,6.8c-2.4-0.4-4.8,0.2-7.1,1
				C131.3-225.3,132.6-226.7,134.1-227.2z"/>
		</g>
	</g>
</g>
</svg>
